<?xml version="1.0" encoding="UTF-8" standalone="no"?>
<!-- Created with Inkscape (http://www.inkscape.org/) -->

<svg
   xmlns:dc="http://purl.org/dc/elements/1.1/"
   xmlns:cc="http://creativecommons.org/ns#"
   xmlns:rdf="http://www.w3.org/1999/02/22-rdf-syntax-ns#"
   xmlns:svg="http://www.w3.org/2000/svg"
   xmlns="http://www.w3.org/2000/svg"
   xmlns:sodipodi="http://sodipodi.sourceforge.net/DTD/sodipodi-0.dtd"
   xmlns:inkscape="http://www.inkscape.org/namespaces/inkscape"
   width="1000"
   height="1000"
   id="svg4817"
   version="1.1"
   inkscape:version="0.48.4 r9939"
   sodipodi:docname="call.svg"
   inkscape:export-filename="/Users/Zexclu_zif/Documents/Zexclu_zif/8___Web/2014-08-31 Eauchat/datas/Services_LOGOS--.png"
   inkscape:export-xdpi="9"
   inkscape:export-ydpi="9">
  <defs
     id="defs4819">
    <clipPath
       id="clipPath2415"
       clipPathUnits="userSpaceOnUse">
      <rect
         y="240"
         x="725"
         height="175"
         width="75"
         id="rect2417"
         style="fill:#ffffff;fill-opacity:1;fill-rule:nonzero;stroke:none" />
    </clipPath>
    <clipPath
       id="clipPath3509"
       clipPathUnits="userSpaceOnUse">
      <rect
         y="240"
         x="725"
         height="175"
         width="75"
         id="rect3511"
         style="fill:#ffffff;fill-opacity:1;fill-rule:nonzero;stroke:none" />
    </clipPath>
  </defs>
  <sodipodi:namedview
     id="base"
     pagecolor="#ffffff"
     bordercolor="#666666"
     borderopacity="1.0"
     inkscape:pageopacity="0.0"
     inkscape:pageshadow="2"
     inkscape:zoom="0.24748737"
     inkscape:cx="-162.61931"
     inkscape:cy="542.45717"
     inkscape:document-units="px"
     inkscape:current-layer="layer2"
     showgrid="false"
     width="372.05px"
     inkscape:window-width="1280"
     inkscape:window-height="776"
     inkscape:window-x="0"
     inkscape:window-y="24"
     inkscape:window-maximized="1"
     inkscape:object-nodes="true"
     inkscape:snap-smooth-nodes="true"
     inkscape:snap-page="true"
     inkscape:snap-global="false" />
  <metadata
     id="metadata4822">
    <rdf:RDF>
      <cc:Work
         rdf:about="">
        <dc:format>image/svg+xml</dc:format>
        <dc:type
           rdf:resource="http://purl.org/dc/dcmitype/StillImage" />
        <dc:title></dc:title>
      </cc:Work>
    </rdf:RDF>
  </metadata>
  <g
     inkscape:groupmode="layer"
     id="layer2"
     inkscape:label="Telephone"
     style="display:inline">
    <g
       id="g22384"
       transform="matrix(1.1888713,-1.1888713,1.1888713,1.1888713,2839.6682,4291.8566)"
       style="fill:#ffc0cb;stroke:#00ffff;stroke-opacity:1;display:inline;enable-background:new;fill-opacity:1">
      <path
         id="path22390"
         style="fill:#ffc0cb;stroke:none;fill-opacity:1"
         d="m 640.35437,-2681.2678 c 8.625,0 14.811,-7.027 14.811,-14.902 l 0.062,-0.062 c 0,0 -0.062,-107.0001 -0.062,-107.0631 0,-8.25 -6.686,-14.754 -14.811,-14.754 l -37.799,0 0,136.7811 c 0,0 37.707,0.058 37.738,0.027 l 0.061,-0.027 z m 0,339 c 8.625,0 14.811,-7.027 14.811,-14.902 l 0.062,-0.062 c 0,0 -0.062,-104 -0.062,-104.063 0,-8.25 -6.686,-14.754 -14.811,-14.754 l -37.799,0 0,133.781 c 0,0 37.707,0.058 37.738,0.027 l 0.061,-0.027 z m -48.246,-475.7811 c -22.379,2.504 -103.754,39.6981 -106.129,231.4791 -2.5,202.025 83.75,244.525 106.37,244.067 l 0,-133.436 c -18.62,0 -22.366,-20.275 -26.62,-62.106 -2.814,-27.679 -3.634,-61.942 0,-96 2.552,-23.897 7,-47.223 26.5,-47.223 l -0.121,-136.7811 z"
         inkscape:connector-curvature="0" />
    </g>
  </g>
</svg>
