<?xml version="1.0" encoding="UTF-8" standalone="no"?>
<!-- Created with Inkscape (http://www.inkscape.org/) -->

<svg
   xmlns:dc="http://purl.org/dc/elements/1.1/"
   xmlns:cc="http://creativecommons.org/ns#"
   xmlns:rdf="http://www.w3.org/1999/02/22-rdf-syntax-ns#"
   xmlns:svg="http://www.w3.org/2000/svg"
   xmlns="http://www.w3.org/2000/svg"
   xmlns:sodipodi="http://sodipodi.sourceforge.net/DTD/sodipodi-0.dtd"
   xmlns:inkscape="http://www.inkscape.org/namespaces/inkscape"
   width="1000"
   height="1000"
   id="svg4817"
   version="1.1"
   inkscape:version="0.48.4 r9939"
   sodipodi:docname="chat-hover.svg"
   inkscape:export-filename="/home/lcc/Documents/EAUCHAT/images/chat-hover.png"
   inkscape:export-xdpi="9"
   inkscape:export-ydpi="9">
  <defs
     id="defs4819">
    <clipPath
       id="clipPath2415"
       clipPathUnits="userSpaceOnUse">
      <rect
         y="240"
         x="725"
         height="175"
         width="75"
         id="rect2417"
         style="fill:#ffffff;fill-opacity:1;fill-rule:nonzero;stroke:none" />
    </clipPath>
    <clipPath
       id="clipPath3509"
       clipPathUnits="userSpaceOnUse">
      <rect
         y="240"
         x="725"
         height="175"
         width="75"
         id="rect3511"
         style="fill:#ffffff;fill-opacity:1;fill-rule:nonzero;stroke:none" />
    </clipPath>
  </defs>
  <sodipodi:namedview
     id="base"
     pagecolor="#ffffff"
     bordercolor="#666666"
     borderopacity="1.0"
     inkscape:pageopacity="0.0"
     inkscape:pageshadow="2"
     inkscape:zoom="0.24748737"
     inkscape:cx="-245.45182"
     inkscape:cy="542.45717"
     inkscape:document-units="px"
     inkscape:current-layer="layer4"
     showgrid="false"
     width="372.05px"
     inkscape:window-width="1280"
     inkscape:window-height="776"
     inkscape:window-x="0"
     inkscape:window-y="24"
     inkscape:window-maximized="1"
     inkscape:object-nodes="true"
     inkscape:snap-smooth-nodes="true"
     inkscape:snap-page="true"
     inkscape:snap-global="false" />
  <metadata
     id="metadata4822">
    <rdf:RDF>
      <cc:Work
         rdf:about="">
        <dc:format>image/svg+xml</dc:format>
        <dc:type
           rdf:resource="http://purl.org/dc/dcmitype/StillImage" />
        <dc:title></dc:title>
      </cc:Work>
    </rdf:RDF>
  </metadata>
  <g
     inkscape:groupmode="layer"
     id="layer4"
     inkscape:label="Chat"
     style="display:inline">
    <path
       style="font-size:12px;font-style:normal;font-variant:normal;font-weight:normal;font-stretch:normal;text-indent:0;text-align:start;text-decoration:none;line-height:normal;letter-spacing:normal;word-spacing:normal;text-transform:none;direction:ltr;block-progression:tb;writing-mode:lr-tb;text-anchor:start;baseline-shift:baseline;color:#000000;fill:#ffc0ff;fill-opacity:1;fill-rule:evenodd;stroke:none;stroke-width:25.97548293999999913;marker:none;visibility:visible;display:inline;overflow:visible;enable-background:accumulate;font-family:Sans;-inkscape-font-specification:Sans"
       d="m 578.125,139.0625 c -18.49054,0.0621 -37.21987,1.39584 -56.03125,4.0625 -86.01486,12.1934 -158.25549,50.2493 -205.5,103.1875 -35.01356,39.23323 -56.11598,87.13194 -58,137.59375 -76.71079,24.47265 -137.59589,78.00821 -154.25,148.3125 -13.022761,54.97443 4.29638,109.32736 41.6875,151.25 32.53658,36.47977 80.08822,64.05892 136.8125,77 L 199,838.4375 a 12.98904,12.98904 0 0 0 14.375,21.25 l 207.1875,-97.34375 0.1875,0 a 12.98904,12.98904 0 0 0 7.15625,-2.4375 c 62.58862,-14.74383 113.34554,-45.56551 145.125,-88.0625 L 756,757.8125 a 17.31872,17.31872 0 0 0 19.15625,-28.34375 L 671.0625,632.65625 C 741.78655,616.16901 801.15195,581.60483 841.875,535.9375 889.07132,483.01097 910.98669,414.30908 894.53125,344.84375 865.72248,223.22949 733.3717,141.4925 586.03125,139.125 c -2.63146,-0.0423 -5.26474,-0.0714 -7.90625,-0.0625 z m 0.125,34.65625 c 2.41588,-0.009 4.81192,-0.007 7.21875,0.0312 134.80557,2.16608 251.3163,77.66347 275.34375,179.09375 13.72443,57.93662 -3.80856,114.11522 -44.78125,160.0625 -40.97269,45.94728 -105.68554,80.77206 -184.375,91.96875 A 17.31872,17.31872 0 0 0 617.03125,619 c -1.12491,6.37881 -0.10595,6.21654 -0.1875,4.75 a 17.31872,17.31872 0 0 0 9.1875,14.3125 l 44.375,41.28125 L 514.625,606.125 a 17.31872,17.31872 0 0 0 -1.75,-1.5 l -1.6875,-1.3125 a 17.31872,17.31872 0 0 0 -9.9375,-3.53125 l -2.65625,-0.0937 C 389.99662,575.39666 317.07984,511.89144 297.5625,429.5 c -13.72966,-57.95869 3.85759,-114.16437 44.875,-160.125 41.01741,-45.96063 105.78709,-80.77478 184.53125,-91.9375 17.22943,-2.44241 34.37007,-3.6571 51.28125,-3.71875 z M 259.4375,411.0625 c 0.87895,8.76806 2.34728,17.58256 4.4375,26.40625 22.74586,96.02049 106.72375,167.49268 222.28125,194.8125 a 17.31872,17.31872 0 0 0 9.4375,3.1875 l 53.34375,25.0625 c -28.3118,35.42412 -73.23667,62.15274 -130.4375,74.9375 l -2.1875,0.0625 a 12.98904,12.98904 0 0 0 -7.5,2.65625 l -1.34375,1.03125 a 12.98904,12.98904 0 0 0 -1.34375,1.21875 l -128.5625,60.40625 39,-36.25 A 12.98904,12.98904 0 0 0 323.59375,753.75 c -0.0581,1.07164 0.7252,1.33435 -0.15625,-3.625 A 12.98904,12.98904 0 0 0 312.5,739.5625 C 249.7671,730.63627 198.12929,702.84507 165.40625,666.15625 132.68321,629.46743 118.6195,584.54558 129.59375,538.21875 143.1476,481.00201 193.0866,434.28074 259.4375,411.0625 z"
       id="path22380"
       inkscape:connector-curvature="0" />
  </g>
</svg>
