<?xml version="1.0" encoding="UTF-8" standalone="no"?>
<!-- Created with Inkscape (http://www.inkscape.org/) -->

<svg
   xmlns:dc="http://purl.org/dc/elements/1.1/"
   xmlns:cc="http://creativecommons.org/ns#"
   xmlns:rdf="http://www.w3.org/1999/02/22-rdf-syntax-ns#"
   xmlns:svg="http://www.w3.org/2000/svg"
   xmlns="http://www.w3.org/2000/svg"
   xmlns:sodipodi="http://sodipodi.sourceforge.net/DTD/sodipodi-0.dtd"
   xmlns:inkscape="http://www.inkscape.org/namespaces/inkscape"
   width="1000"
   height="1000"
   id="svg4817"
   version="1.1"
   inkscape:version="0.48.4 r9939"
   sodipodi:docname="cloud-hover.svg"
   inkscape:export-filename="/home/lcc/Documents/EAUCHAT/images/cloud-hover.png"
   inkscape:export-xdpi="9"
   inkscape:export-ydpi="9">
  <defs
     id="defs4819">
    <clipPath
       id="clipPath2415"
       clipPathUnits="userSpaceOnUse">
      <rect
         y="240"
         x="725"
         height="175"
         width="75"
         id="rect2417"
         style="fill:#ffffff;fill-opacity:1;fill-rule:nonzero;stroke:none" />
    </clipPath>
    <clipPath
       id="clipPath3509"
       clipPathUnits="userSpaceOnUse">
      <rect
         y="240"
         x="725"
         height="175"
         width="75"
         id="rect3511"
         style="fill:#ffffff;fill-opacity:1;fill-rule:nonzero;stroke:none" />
    </clipPath>
  </defs>
  <sodipodi:namedview
     id="base"
     pagecolor="#ffffff"
     bordercolor="#666666"
     borderopacity="1.0"
     inkscape:pageopacity="0.0"
     inkscape:pageshadow="2"
     inkscape:zoom="0.24748737"
     inkscape:cx="289.01655"
     inkscape:cy="428.17146"
     inkscape:document-units="px"
     inkscape:current-layer="layer5"
     showgrid="false"
     width="372.05px"
     inkscape:window-width="1280"
     inkscape:window-height="776"
     inkscape:window-x="0"
     inkscape:window-y="24"
     inkscape:window-maximized="1"
     inkscape:object-nodes="true"
     inkscape:snap-smooth-nodes="true"
     inkscape:snap-page="true"
     inkscape:snap-global="false" />
  <metadata
     id="metadata4822">
    <rdf:RDF>
      <cc:Work
         rdf:about="">
        <dc:format>image/svg+xml</dc:format>
        <dc:type
           rdf:resource="http://purl.org/dc/dcmitype/StillImage" />
        <dc:title></dc:title>
      </cc:Work>
    </rdf:RDF>
  </metadata>
  <g
     inkscape:groupmode="layer"
     id="layer5"
     inkscape:label="Cloud"
     style="display:inline">
    <path
       d="m 588.15068,284.98291 c 115.6616,-9.17796 163.2187,88.12277 174.31197,172.11524 2.77458,-0.27411 5.56678,-0.45144 8.40145,-0.45144 54.1553,0 98.25839,51.05746 99.46512,114.45309 9.04745,-5.61141 19.44222,-8.82704 30.53551,-8.82704 34.66539,0 62.83181,31.27429 62.83181,69.76512 0,38.49122 -35.46962,80.69424 -70.13539,80.69424 -293.79935,1.05054 -489.00425,4.30632 -781.78589,2.18531 -39.417714,0 -75.471798,-20.75522 -75.471798,-64.52259 0,-43.76779 31.996363,-79.29504 71.414458,-79.29504 10.27682,0 20.03168,2.42542 28.86362,6.77107 16.00181,-29.42098 45.04476,-49.10157 78.23542,-49.10157 13.06883,0 25.52279,3.08014 36.76854,8.5764 6.26416,-44.6558 29.06417,-108.16078 86.88057,-121.72391 57.81639,-13.56315 112.27574,24.07424 112.27574,24.07424 0,0 21.74727,-145.53516 137.40887,-154.71312 z"
       id="path4319"
       stroke-miterlimit="4"
       inkscape:connector-curvature="0"
       style="fill:#ffc0ff;fill-opacity:1;fill-rule:nonzero;stroke:none;display:inline"
       sodipodi:nodetypes="zcscssccsscsczcz" />
  </g>
</svg>
