<?xml version="1.0" encoding="UTF-8" standalone="no"?>
<!-- Created with Inkscape (http://www.inkscape.org/) -->

<svg
   xmlns:dc="http://purl.org/dc/elements/1.1/"
   xmlns:cc="http://creativecommons.org/ns#"
   xmlns:rdf="http://www.w3.org/1999/02/22-rdf-syntax-ns#"
   xmlns:svg="http://www.w3.org/2000/svg"
   xmlns="http://www.w3.org/2000/svg"
   xmlns:xlink="http://www.w3.org/1999/xlink"
   xmlns:sodipodi="http://sodipodi.sourceforge.net/DTD/sodipodi-0.dtd"
   xmlns:inkscape="http://www.inkscape.org/namespaces/inkscape"
   width="9000"
   height="3400"
   id="svg6903"
   version="1.1"
   inkscape:version="0.48.4 r9939"
   sodipodi:docname="Eauchat_HOME.svg"
   inkscape:export-filename="/Users/Zexclu_zif/Downloads/CAT/2014-08-29 Cats''-6.png"
   inkscape:export-xdpi="150"
   inkscape:export-ydpi="150"
   style="enable-background:new">
  <defs
     id="defs6905">
    <linearGradient
       y2="660.27118"
       x2="241.17624"
       y1="660.27118"
       x1="510.77789"
       gradientUnits="userSpaceOnUse"
       id="linearGradient8608"
       xlink:href="#linearGradient5241"
       inkscape:collect="always" />
    <linearGradient
       y2="660.27118"
       x2="241.17624"
       y1="660.27118"
       x1="510.77789"
       gradientUnits="userSpaceOnUse"
       id="linearGradient8606"
       xlink:href="#linearGradient5241"
       inkscape:collect="always" />
    <linearGradient
       y2="660.27118"
       x2="241.17624"
       y1="660.27118"
       x1="510.77789"
       gradientUnits="userSpaceOnUse"
       id="linearGradient8604"
       xlink:href="#linearGradient5241"
       inkscape:collect="always" />
    <radialGradient
       gradientUnits="userSpaceOnUse"
       gradientTransform="matrix(1.0434173,-0.04376655,0.3515719,8.3816541,-141.01022,-2545.6404)"
       r="60.62923"
       fy="353.76089"
       fx="391.72137"
       cy="353.76089"
       cx="391.72137"
       id="radialGradient5225"
       xlink:href="#linearGradient5219"
       inkscape:collect="always" />
    <radialGradient
       gradientUnits="userSpaceOnUse"
       gradientTransform="matrix(0.997262,0.07394879,-0.3131008,4.2224295,108.63208,-1135.8467)"
       r="102.98385"
       fy="343.5535"
       fx="389.05011"
       cy="343.5535"
       cx="389.05011"
       id="radialGradient5217"
       xlink:href="#linearGradient5203"
       inkscape:collect="always" />
    <radialGradient
       r="185.48482"
       fy="340.57196"
       fx="641.90991"
       cy="340.57196"
       cx="641.90991"
       gradientTransform="matrix(0.5620634,-0.05805816,0.3169271,3.0681863,-34.077011,-664.68311)"
       gradientUnits="userSpaceOnUse"
       id="radialGradient5213"
       xlink:href="#linearGradient5203"
       inkscape:collect="always" />
    <radialGradient
       gradientUnits="userSpaceOnUse"
       gradientTransform="matrix(0.5915425,0.046875,-0.2225448,2.8084173,135.566,-634.202)"
       r="185.48482"
       fy="336.96667"
       fx="497.19464"
       cy="336.96667"
       cx="497.19464"
       id="radialGradient5209"
       xlink:href="#linearGradient5227"
       inkscape:collect="always" />
    <linearGradient
       id="linearGradient5203">
      <stop
         id="stop5205"
         offset="0"
         style="stop-color:#2b4d09;stop-opacity:1;" />
      <stop
         id="stop5207"
         offset="1"
         style="stop-color:#4d8a10;stop-opacity:1;" />
    </linearGradient>
    <linearGradient
       id="linearGradient5219">
      <stop
         id="stop5221"
         offset="0"
         style="stop-color:#467d0e;stop-opacity:1;" />
      <stop
         id="stop5223"
         offset="1"
         style="stop-color:#579d12;stop-opacity:1;" />
    </linearGradient>
    <linearGradient
       id="linearGradient5227">
      <stop
         style="stop-color:#2b4d09;stop-opacity:1;"
         offset="0"
         id="stop5229" />
      <stop
         style="stop-color:#519110;stop-opacity:1;"
         offset="1"
         id="stop5231" />
    </linearGradient>
    <linearGradient
       id="linearGradient5241">
      <stop
         id="stop5243"
         offset="0"
         style="stop-color:#8f4708;stop-opacity:1;" />
      <stop
         style="stop-color:#cb640c;stop-opacity:1;"
         offset="0.60264903"
         id="stop5249" />
      <stop
         id="stop5245"
         offset="1"
         style="stop-color:#e2700e;stop-opacity:1;" />
    </linearGradient>
    <linearGradient
       id="linearGradient15152"
       inkscape:collect="always">
      <stop
         id="stop15154"
         offset="0"
         style="stop-color:#acac00;stop-opacity:1;" />
      <stop
         id="stop15156"
         offset="1"
         style="stop-color:#acac00;stop-opacity:0;" />
    </linearGradient>
    <linearGradient
       id="linearGradient15034"
       inkscape:collect="always">
      <stop
         id="stop15036"
         offset="0"
         style="stop-color:#ffffff;stop-opacity:1;" />
      <stop
         id="stop15038"
         offset="1"
         style="stop-color:#ffffff;stop-opacity:0;" />
    </linearGradient>
    <linearGradient
       id="linearGradient17165"
       inkscape:collect="always">
      <stop
         id="stop17167"
         offset="0"
         style="stop-color:#c1c1c1;stop-opacity:1;" />
      <stop
         id="stop17169"
         offset="1"
         style="stop-color:#c1c1c1;stop-opacity:0;" />
    </linearGradient>
    <linearGradient
       id="linearGradient17228"
       inkscape:collect="always">
      <stop
         id="stop17230"
         offset="0"
         style="stop-color:#5e5e5e;stop-opacity:1;" />
      <stop
         id="stop17232"
         offset="1"
         style="stop-color:#5e5e5e;stop-opacity:0;" />
    </linearGradient>
    <linearGradient
       inkscape:collect="always"
       id="linearGradient18316">
      <stop
         style="stop-color:#000000;stop-opacity:1;"
         offset="0"
         id="stop18318" />
      <stop
         style="stop-color:#707070;stop-opacity:0"
         offset="1"
         id="stop18320" />
    </linearGradient>
    <radialGradient
       r="37.150429"
       fy="367.75928"
       fx="264.42487"
       cy="367.75928"
       cx="264.42487"
       gradientTransform="matrix(0.2291745,0.05337477,-0.477657,2.0509096,783.56901,-50.456164)"
       gradientUnits="userSpaceOnUse"
       id="radialGradient5257"
       xlink:href="#linearGradient15152"
       inkscape:collect="always" />
    <radialGradient
       r="90.153572"
       fy="413.02814"
       fx="469.87689"
       cy="413.02814"
       cx="469.87689"
       gradientTransform="matrix(0.2861143,0.2034903,-0.04819307,0.06776112,603.50469,523.5893)"
       gradientUnits="userSpaceOnUse"
       id="radialGradient5259"
       xlink:href="#linearGradient15034"
       inkscape:collect="always" />
    <radialGradient
       r="27.107115"
       fy="283.37128"
       fx="305.49564"
       cy="283.37128"
       cx="305.49564"
       gradientTransform="matrix(0.7416193,0.2245752,-0.07602462,0.2510577,471.90768,544.24354)"
       gradientUnits="userSpaceOnUse"
       id="radialGradient5261"
       xlink:href="#linearGradient17165"
       inkscape:collect="always" />
    <radialGradient
       r="27.107115"
       fy="283.37128"
       fx="305.49564"
       cy="283.37128"
       cx="305.49564"
       gradientTransform="matrix(0.536428,0.2048832,-0.05499012,0.2290435,509.68369,556.75756)"
       gradientUnits="userSpaceOnUse"
       id="radialGradient5263"
       xlink:href="#linearGradient17165"
       inkscape:collect="always" />
    <radialGradient
       r="27.107115"
       fy="283.37128"
       fx="305.49564"
       cy="283.37128"
       cx="305.49564"
       gradientTransform="matrix(0.536428,0.2180112,-0.05499012,0.2437196,582.49034,547.60075)"
       gradientUnits="userSpaceOnUse"
       id="radialGradient5265"
       xlink:href="#linearGradient17165"
       inkscape:collect="always" />
    <radialGradient
       r="27.107115"
       fy="283.37128"
       fx="305.49564"
       cy="283.37128"
       cx="305.49564"
       gradientTransform="matrix(0.536428,0.2180112,-0.05499012,0.2437196,560.02218,547.00274)"
       gradientUnits="userSpaceOnUse"
       id="radialGradient5267"
       xlink:href="#linearGradient17165"
       inkscape:collect="always" />
    <radialGradient
       r="27.107115"
       fy="283.37128"
       fx="305.49564"
       cy="283.37128"
       cx="305.49564"
       gradientTransform="matrix(0.536428,0.2180112,-0.05499012,0.2437196,531.1809,525.09841)"
       gradientUnits="userSpaceOnUse"
       id="radialGradient5269"
       xlink:href="#linearGradient17165"
       inkscape:collect="always" />
    <radialGradient
       r="27.107115"
       fy="283.37128"
       fx="305.49564"
       cy="283.37128"
       cx="305.49564"
       gradientTransform="matrix(0.536428,0.2180112,-0.05499012,0.2437196,552.16259,533.16303)"
       gradientUnits="userSpaceOnUse"
       id="radialGradient5271"
       xlink:href="#linearGradient17165"
       inkscape:collect="always" />
    <radialGradient
       r="18.578959"
       fy="123.15674"
       fx="259.91202"
       cy="123.15674"
       cx="259.91202"
       gradientTransform="matrix(-2.3153856,-0.3515762,0.02822207,-0.9358416,857.6039,323.68849)"
       gradientUnits="userSpaceOnUse"
       id="radialGradient5273"
       xlink:href="#linearGradient17228"
       inkscape:collect="always" />
    <radialGradient
       r="18.578959"
       fy="123.15674"
       fx="259.91202"
       cy="123.15674"
       cx="259.91202"
       gradientTransform="matrix(-2.3153856,-0.3515762,0.02822207,-0.9358416,853.27319,278.0282)"
       gradientUnits="userSpaceOnUse"
       id="radialGradient5275"
       xlink:href="#linearGradient17228"
       inkscape:collect="always" />
    <radialGradient
       r="18.578959"
       fy="123.15674"
       fx="259.91202"
       cy="123.15674"
       cx="259.91202"
       gradientTransform="matrix(-2.259697,-0.3515762,0.02754329,-0.9358416,841.38525,243.5282)"
       gradientUnits="userSpaceOnUse"
       id="radialGradient5277"
       xlink:href="#linearGradient17228"
       inkscape:collect="always" />
    <radialGradient
       r="19.907146"
       fy="51.839149"
       fx="404.86011"
       cy="51.839149"
       cx="404.86011"
       gradientTransform="matrix(2.2888162,0.01240001,-0.09452622,17.428204,-688.90055,-799.12137)"
       gradientUnits="userSpaceOnUse"
       id="radialGradient5279"
       xlink:href="#linearGradient18316"
       inkscape:collect="always" />
    <radialGradient
       r="27.107115"
       fy="283.37128"
       fx="305.49564"
       cy="283.37128"
       cx="305.49564"
       gradientTransform="matrix(0.536428,0.2180112,-0.05499012,0.2437196,572.83672,528.72066)"
       gradientUnits="userSpaceOnUse"
       id="radialGradient5281"
       xlink:href="#linearGradient17165"
       inkscape:collect="always" />
    <radialGradient
       r="27.107115"
       fy="283.37128"
       fx="305.49564"
       cy="283.37128"
       cx="305.49564"
       gradientTransform="matrix(0.536428,0.2180112,-0.05499012,0.2437196,548.98205,511.6392)"
       gradientUnits="userSpaceOnUse"
       id="radialGradient5283"
       xlink:href="#linearGradient17165"
       inkscape:collect="always" />
    <marker
       viewBox="0 0 10 10"
       refY="5"
       refX="10"
       orient="auto"
       markerWidth="4"
       markerUnits="strokeWidth"
       markerHeight="3"
       id="ArrowStart">
      <path
         id="path1400"
         d="M 10,0 0,5 10,10 10,0 z"
         inkscape:connector-curvature="0" />
    </marker>
    <marker
       viewBox="0 0 10 10"
       refY="5"
       refX="0"
       orient="auto"
       markerWidth="4"
       markerUnits="strokeWidth"
       markerHeight="3"
       id="ArrowEnd">
      <path
         id="path1397"
         d="M 0,0 10,5 0,10 0,0 z"
         inkscape:connector-curvature="0" />
    </marker>
    <inkscape:perspective
       id="perspective20"
       inkscape:persp3d-origin="365.01501 : 209.39667 : 1"
       inkscape:vp_z="730.03003 : 314.095 : 1"
       inkscape:vp_y="0 : 1000 : 0"
       inkscape:vp_x="0 : 314.095 : 1"
       sodipodi:type="inkscape:persp3d" />
    <style
       id="style6"
       type="text/css">
   
    .str0 {stroke:black;stroke-width:0.0762}
    .fil1 {fill:#CCCCCC}
    .fil0 {fill:yellow}
   
  </style>
    <marker
       viewBox="0 0 10 10"
       refY="5"
       refX="10"
       orient="auto"
       markerWidth="4"
       markerUnits="strokeWidth"
       markerHeight="3"
       id="ArrowStart-9">
      <path
         id="path1325"
         d="M 10,0 0,5 10,10 z"
         inkscape:connector-curvature="0" />
    </marker>
    <marker
       viewBox="0 0 10 10"
       refY="5"
       refX="0"
       orient="auto"
       markerWidth="4"
       markerUnits="strokeWidth"
       markerHeight="3"
       id="ArrowEnd-5">
      <path
         id="path1322"
         d="M 0,0 10,5 0,10 z"
         inkscape:connector-curvature="0" />
    </marker>
    <inkscape:perspective
       id="perspective14"
       inkscape:persp3d-origin="300 : 400 : 1"
       inkscape:vp_z="700 : 600 : 1"
       inkscape:vp_y="0 : 1000 : 0"
       inkscape:vp_x="-50 : 600 : 1"
       sodipodi:type="inkscape:persp3d" />
    <marker
       style="overflow:visible"
       id="Dot_l"
       refX="0"
       refY="0"
       orient="auto"
       inkscape:stockid="Dot_l">
      <path
         transform="matrix(0.8,0,0,0.8,5.92,0.8)"
         style="fill-rule:evenodd;stroke:#000000;stroke-width:1pt;marker-start:none;marker-end:none"
         d="m -2.5,-1 c 0,2.76 -2.24,5 -5,5 -2.76,0 -5,-2.24 -5,-5 0,-2.76 2.24,-5 5,-5 2.76,0 5,2.24 5,5 z"
         id="path2915"
         inkscape:connector-curvature="0" />
    </marker>
    <marker
       style="overflow:visible"
       id="Arrow1Mend"
       refX="0"
       refY="0"
       orient="auto"
       inkscape:stockid="Arrow1Mend">
      <path
         transform="matrix(-0.4,0,0,-0.4,-4,0)"
         style="fill-rule:evenodd;stroke:#000000;stroke-width:1pt;marker-start:none"
         d="M 0,0 5,-5 -12.5,0 5,5 0,0 z"
         id="path2968"
         inkscape:connector-curvature="0" />
    </marker>
    <marker
       style="overflow:visible"
       id="Arrow1Lend"
       refX="0"
       refY="0"
       orient="auto"
       inkscape:stockid="Arrow1Lend">
      <path
         transform="matrix(-0.8,0,0,-0.8,-10,0)"
         style="fill-rule:evenodd;stroke:#000000;stroke-width:1pt;marker-start:none"
         d="M 0,0 5,-5 -12.5,0 5,5 0,0 z"
         id="path2974"
         inkscape:connector-curvature="0" />
    </marker>
    <marker
       style="overflow:visible"
       id="Arrow1Lstart"
       refX="0"
       refY="0"
       orient="auto"
       inkscape:stockid="Arrow1Lstart">
      <path
         transform="matrix(0.8,0,0,0.8,10,0)"
         style="fill-rule:evenodd;stroke:#000000;stroke-width:1pt;marker-start:none"
         d="M 0,0 5,-5 -12.5,0 5,5 0,0 z"
         id="path2977"
         inkscape:connector-curvature="0" />
    </marker>
    <marker
       style="overflow:visible"
       id="Arrow1Mstart"
       refX="0"
       refY="0"
       orient="auto"
       inkscape:stockid="Arrow1Mstart">
      <path
         transform="matrix(0.4,0,0,0.4,4,0)"
         style="fill-rule:evenodd;stroke:#000000;stroke-width:1pt;marker-start:none"
         d="M 0,0 5,-5 -12.5,0 5,5 0,0 z"
         id="path2971"
         inkscape:connector-curvature="0" />
    </marker>
    <style
       type="text/css"
       id="style6-2">
    .fil0 {fill:none}
    .fil1 {fill:#373435}
  </style>
    <radialGradient
       inkscape:collect="always"
       xlink:href="#linearGradient15152"
       id="radialGradient20950"
       gradientUnits="userSpaceOnUse"
       gradientTransform="matrix(0.2291745,0.05337477,-0.477657,2.0509096,783.56901,-50.456164)"
       cx="264.42487"
       cy="367.75928"
       fx="264.42487"
       fy="367.75928"
       r="37.150429" />
    <radialGradient
       inkscape:collect="always"
       xlink:href="#linearGradient17228"
       id="radialGradient20966"
       gradientUnits="userSpaceOnUse"
       gradientTransform="matrix(-2.3153856,-0.3515762,0.02822207,-0.9358416,857.6039,323.68849)"
       cx="259.91202"
       cy="123.15674"
       fx="259.91202"
       fy="123.15674"
       r="18.578959" />
    <radialGradient
       inkscape:collect="always"
       xlink:href="#linearGradient17228"
       id="radialGradient20968"
       gradientUnits="userSpaceOnUse"
       gradientTransform="matrix(-2.3153856,-0.3515762,0.02822207,-0.9358416,853.27319,278.0282)"
       cx="259.91202"
       cy="123.15674"
       fx="259.91202"
       fy="123.15674"
       r="18.578959" />
    <radialGradient
       inkscape:collect="always"
       xlink:href="#linearGradient17228"
       id="radialGradient20970"
       gradientUnits="userSpaceOnUse"
       gradientTransform="matrix(-2.259697,-0.3515762,0.02754329,-0.9358416,841.38525,243.5282)"
       cx="259.91202"
       cy="123.15674"
       fx="259.91202"
       fy="123.15674"
       r="18.578959" />
    <radialGradient
       inkscape:collect="always"
       xlink:href="#linearGradient18316"
       id="radialGradient20972"
       gradientUnits="userSpaceOnUse"
       gradientTransform="matrix(2.2888162,0.01240001,-0.09452622,17.428204,-688.90055,-799.12137)"
       cx="404.86011"
       cy="51.839149"
       fx="404.86011"
       fy="51.839149"
       r="19.907146" />
    <radialGradient
       r="25"
       fy="340"
       fx="149.99998"
       cy="340"
       cx="149.99998"
       gradientTransform="matrix(0.8060837,-5.692368e-7,5.4184898e-7,0.7673004,29.087269,79.117956)"
       gradientUnits="userSpaceOnUse"
       id="radialGradient3261"
       xlink:href="#linearGradient3247"
       inkscape:collect="always" />
    <radialGradient
       r="25"
       fy="340"
       fx="149.99998"
       cy="340"
       cx="149.99998"
       gradientTransform="matrix(0.8060837,-5.692368e-7,5.4184898e-7,0.7673004,29.087269,79.117956)"
       gradientUnits="userSpaceOnUse"
       id="radialGradient3257"
       xlink:href="#linearGradient3247"
       inkscape:collect="always" />
    <radialGradient
       gradientTransform="matrix(0.8060837,-5.692368e-7,5.4184898e-7,0.7673004,29.087269,79.117956)"
       gradientUnits="userSpaceOnUse"
       r="25"
       fy="340"
       fx="149.99998"
       cy="340"
       cx="149.99998"
       id="radialGradient3253"
       xlink:href="#linearGradient3247"
       inkscape:collect="always" />
    <clipPath
       id="clipPath2415"
       clipPathUnits="userSpaceOnUse">
      <rect
         y="240"
         x="725"
         height="175"
         width="75"
         id="rect2417"
         style="fill:#ffffff;fill-opacity:1;fill-rule:nonzero;stroke:none" />
    </clipPath>
    <clipPath
       id="clipPath2407"
       clipPathUnits="userSpaceOnUse">
      <rect
         y="265"
         x="800"
         height="150"
         width="75"
         id="rect2409"
         style="fill:#ffffff;fill-opacity:1;fill-rule:nonzero;stroke:none" />
    </clipPath>
    <inkscape:perspective
       id="perspective10"
       inkscape:persp3d-origin="372.04724 : 350.78739 : 1"
       inkscape:vp_z="744.09448 : 526.18109 : 1"
       inkscape:vp_y="0 : 1000 : 0"
       inkscape:vp_x="0 : 526.18109 : 1"
       sodipodi:type="inkscape:persp3d" />
    <linearGradient
       id="linearGradient3247"
       inkscape:collect="always">
      <stop
         id="stop3249"
         offset="0"
         style="stop-color:#e6e6e6;stop-opacity:1;" />
      <stop
         id="stop3251"
         offset="1"
         style="stop-color:#e6e6e6;stop-opacity:0;" />
    </linearGradient>
    <radialGradient
       inkscape:collect="always"
       xlink:href="#linearGradient3247"
       id="radialGradient23187"
       gradientUnits="userSpaceOnUse"
       gradientTransform="matrix(0.8060837,-5.692368e-7,5.4184898e-7,0.7673004,29.087269,79.117956)"
       cx="149.99998"
       cy="340"
       fx="149.99998"
       fy="340"
       r="25" />
    <radialGradient
       inkscape:collect="always"
       xlink:href="#linearGradient3247"
       id="radialGradient23189"
       gradientUnits="userSpaceOnUse"
       gradientTransform="matrix(0.8060837,-5.692368e-7,5.4184898e-7,0.7673004,29.087269,79.117956)"
       cx="149.99998"
       cy="340"
       fx="149.99998"
       fy="340"
       r="25" />
    <radialGradient
       inkscape:collect="always"
       xlink:href="#linearGradient3247"
       id="radialGradient23191"
       gradientUnits="userSpaceOnUse"
       gradientTransform="matrix(0.8060837,-5.692368e-7,5.4184898e-7,0.7673004,29.087269,79.117956)"
       cx="149.99998"
       cy="340"
       fx="149.99998"
       fy="340"
       r="25" />
    <linearGradient
       y2="-1.078e-09"
       x1="-1.2699e-08"
       y1="-1.078e-09"
       id="linearGradient886">
      <stop
         offset="0"
         stop-color="#004f00"
         id="stop888" />
      <stop
         offset="1"
         stop-color="#92c705"
         id="stop889" />
    </linearGradient>
    <linearGradient
       y2="0.76561999"
       x1="0.24806"
       x2="0.57363999"
       y1="0.25"
       id="linearGradient882">
      <stop
         offset="0"
         stop-color="#def200"
         id="stop884" />
      <stop
         offset="1"
         stop-color="#92c705"
         id="stop885" />
    </linearGradient>
    <linearGradient
       y2="0.5625"
       x1="0.29437"
       x2="0.78788"
       y1="0.18751"
       id="linearGradient841">
      <stop
         offset="0"
         stop-opacity=".6667"
         id="stop839" />
      <stop
         offset="1"
         stop-opacity=".1176"
         stop-color="#003a00"
         id="stop840" />
    </linearGradient>
    <linearGradient
       inkscape:collect="always"
       xlink:href="#linearGradient841"
       id="linearGradient24949"
       x1="185.41302"
       y1="381.08466"
       x2="290.91504"
       y2="461.2496"
       gradientTransform="scale(1.2822194,0.77989773)"
       gradientUnits="userSpaceOnUse" />
    <linearGradient
       inkscape:collect="always"
       xlink:href="#linearGradient886"
       id="linearGradient24951"
       x1="7.7007546"
       y1="7.5264421"
       y2="7.5264421"
       gradientTransform="scale(0.99201826,1.008046)"
       x2="417.07297"
       gradientUnits="userSpaceOnUse" />
    <linearGradient
       inkscape:collect="always"
       xlink:href="#linearGradient882"
       id="linearGradient24953"
       x1="207.04785"
       y1="157.93443"
       x2="312.32797"
       y2="324.66623"
       gradientTransform="scale(0.95404988,1.0481632)"
       gradientUnits="userSpaceOnUse" />
    <filter
       inkscape:collect="always"
       id="filter6907"
       color-interpolation-filters="sRGB">
      <feBlend
         inkscape:collect="always"
         mode="darken"
         in2="BackgroundImage"
         id="feBlend6909" />
    </filter>
    <linearGradient
       id="linearGradient5241-1">
      <stop
         style="stop-color:#8f4708;stop-opacity:1;"
         offset="0"
         id="stop5243-5" />
      <stop
         id="stop5249-8"
         offset="0.60264903"
         style="stop-color:#cb640c;stop-opacity:1;" />
      <stop
         style="stop-color:#e2700e;stop-opacity:1;"
         offset="1"
         id="stop5245-4" />
    </linearGradient>
    <linearGradient
       id="linearGradient5227-7">
      <stop
         id="stop5229-3"
         offset="0"
         style="stop-color:#2b4d09;stop-opacity:1;" />
      <stop
         id="stop5231-7"
         offset="1"
         style="stop-color:#519110;stop-opacity:1;" />
    </linearGradient>
    <linearGradient
       id="linearGradient5219-1">
      <stop
         style="stop-color:#467d0e;stop-opacity:1;"
         offset="0"
         id="stop5221-0" />
      <stop
         style="stop-color:#579d12;stop-opacity:1;"
         offset="1"
         id="stop5223-4" />
    </linearGradient>
    <linearGradient
       id="linearGradient5203-6">
      <stop
         style="stop-color:#2b4d09;stop-opacity:1;"
         offset="0"
         id="stop5205-2" />
      <stop
         style="stop-color:#4d8a10;stop-opacity:1;"
         offset="1"
         id="stop5207-2" />
    </linearGradient>
    <radialGradient
       inkscape:collect="always"
       xlink:href="#linearGradient5227-7"
       id="radialGradient5209-0"
       cx="497.19464"
       cy="336.96667"
       fx="497.19464"
       fy="336.96667"
       r="185.48482"
       gradientTransform="matrix(0.5915425,0.046875,-0.2225448,2.8084173,135.566,-634.202)"
       gradientUnits="userSpaceOnUse" />
    <radialGradient
       inkscape:collect="always"
       xlink:href="#linearGradient5203-6"
       id="radialGradient5213-4"
       gradientUnits="userSpaceOnUse"
       gradientTransform="matrix(0.5620634,-0.05805816,0.3169271,3.0681863,-34.077011,-664.68311)"
       cx="641.90991"
       cy="340.57196"
       fx="641.90991"
       fy="340.57196"
       r="185.48482" />
    <radialGradient
       inkscape:collect="always"
       xlink:href="#linearGradient5203-6"
       id="radialGradient5217-2"
       cx="389.05011"
       cy="343.5535"
       fx="389.05011"
       fy="343.5535"
       r="102.98385"
       gradientTransform="matrix(0.997262,0.07394879,-0.3131008,4.2224295,108.63208,-1135.8467)"
       gradientUnits="userSpaceOnUse" />
    <radialGradient
       inkscape:collect="always"
       xlink:href="#linearGradient5219-1"
       id="radialGradient5225-9"
       cx="391.72137"
       cy="353.76089"
       fx="391.72137"
       fy="353.76089"
       r="60.62923"
       gradientTransform="matrix(1.0434173,-0.04376655,0.3515719,8.3816541,-141.01022,-2545.6404)"
       gradientUnits="userSpaceOnUse" />
    <linearGradient
       inkscape:collect="always"
       xlink:href="#linearGradient5241-1"
       id="linearGradient8604-9"
       gradientUnits="userSpaceOnUse"
       x1="510.77789"
       y1="660.27118"
       x2="241.17624"
       y2="660.27118" />
    <linearGradient
       inkscape:collect="always"
       xlink:href="#linearGradient5241-1"
       id="linearGradient8606-9"
       gradientUnits="userSpaceOnUse"
       x1="510.77789"
       y1="660.27118"
       x2="241.17624"
       y2="660.27118" />
    <linearGradient
       inkscape:collect="always"
       xlink:href="#linearGradient5241-1"
       id="linearGradient8608-9"
       gradientUnits="userSpaceOnUse"
       x1="510.77789"
       y1="660.27118"
       x2="241.17624"
       y2="660.27118" />
  </defs>
  <sodipodi:namedview
     id="base"
     pagecolor="#ffffff"
     bordercolor="#666666"
     borderopacity="1.0"
     inkscape:pageopacity="0.0"
     inkscape:pageshadow="2"
     inkscape:zoom="0.1775"
     inkscape:cx="2837.5969"
     inkscape:cy="1484.4221"
     inkscape:document-units="px"
     inkscape:current-layer="layer1"
     showgrid="false"
     inkscape:window-width="1280"
     inkscape:window-height="776"
     inkscape:window-x="0"
     inkscape:window-y="24"
     inkscape:window-maximized="1"
     inkscape:snap-bbox="true"
     inkscape:bbox-paths="true"
     inkscape:bbox-nodes="true"
     inkscape:snap-bbox-edge-midpoints="true"
     inkscape:snap-bbox-midpoints="true"
     inkscape:snap-page="true"
     inkscape:snap-global="false"
     showguides="true"
     inkscape:guide-bbox="true"
     inkscape:object-paths="true" />
  <metadata
     id="metadata6908">
    <rdf:RDF>
      <cc:Work
         rdf:about="">
        <dc:format>image/svg+xml</dc:format>
        <dc:type
           rdf:resource="http://purl.org/dc/dcmitype/StillImage" />
        <dc:title></dc:title>
      </cc:Work>
    </rdf:RDF>
  </metadata>
  <g
     inkscape:groupmode="layer"
     id="layer1"
     inkscape:label="HEADER"
     style="display:inline">
    <path
       sodipodi:nodetypes="sccccccccccccccccccccccccccccscccccccc"
       inkscape:connector-curvature="0"
       style="fill:#000000;stroke:none;display:inline"
       d="m 333.08736,243.9159 c -9.9776,0.34447 -19.4886,12.6373 -17.3503,29.92935 -0.4095,10.8088 12.963,20.20667 24.3629,42.79752 22.8164,162.98739 36.1981,129.29459 56.027,190.70929 15.719,80.3439 -17.7371,56.3352 28.1943,131.0675 1.6245,59.9327 -13.0093,79.2608 -17.2779,157.9603 -5.7835,6.7558 -11.2777,12.2808 -17.0612,14.5308 -8.2009,6.3907 -4.2524,17.9362 -0.2892,22.0614 l 41.3517,0 c 5.0985,1.03799 7.7262,-8.9913 7.3739,-31.3149 3.0294,-8.8126 -2.7016,-31.3056 9.1089,-26.459 l 34.7007,19.7359 c -28.1982,6.0018 -37.7094,19.8535 -19.0132,31.4234 18.6491,-2.8323 26.3237,2.7642 31.4476,6.6146 l 122.2476,0 c 25.755,-0.8275 43.3534,-15.9316 50.3884,-42.0865 30.94535,-132.3255 -99.7187,-200.2618 -133.0193,-256.1346 -7.2634,-9.1533 -3.3847,-27.2664 1.3012,-34.845 7.8213,-19.4986 23.5731,-50.9651 23.4952,-59.9311 4.6961,-100.0065 -10.5657,-78.2249 -26.4593,-53.9307 -3.7509,1.1678 -5.0779,-2.523 -7.4461,-4.1206 1.8186,-26.9784 -4.7149,-26.3089 -7.2293,-33.8332 -1.0241,12.924 -1.7142,23.9162 -4.3376,32.1703 l -32.2427,-1.0845 c -4.4512,0.032 -13.2982,6.5314 -21.3988,10.9886 -23.2244,-5.005 -17.6358,7.0482 -23.1337,33.1105 -3.9606,11.0469 -23.8454,-1.6108 -36.219,-21.1096 -15.7023,-67.32284 -27.9456,-83.90954 -38.1708,-119.35606 1.373,-3.72293 -7.2476,-16.63875 -14.8923,-28.62807 -3.8534,-7.3658 -9.2323,-10.44607 -14.4587,-10.26563 z m 138.4414,442.57846 c 1.8676,-0.1018 3.8319,2.139 5.7835,4.0484 31.3289,41.1488 18.4837,43.1892 29.0618,67.9555 0.9418,7.1727 3.6045,19.0824 -1.4458,15.9045 l -49.5209,-26.893 c -5.7981,-4.435 -2.7923,-9.4978 -1.2289,-14.4586 l 13.1573,-40.8455 c 1.2844,-4.1158 2.7402,-5.6322 4.193,-5.7113 z"
       id="path3395" />
    <path
       id="path3399"
       d="m 81.213094,221.38173 c -5.238136,0.024 -10.516811,0.48694 -15.840583,1.55647 -2.138715,0.577 -4.17873,1.44966 -6.166794,2.50219 l -34.203049,49.43286 c 28.708469,40.62895 63.53496,76.77388 102.786472,107.21946 L 286.70722,275.72044 c 2.34675,2.22832 4.67778,4.46086 7.03369,6.67906 l 23.16981,-22.2044 c -4.1134,-0.71291 -8.20109,-1.49568 -12.27448,-2.36427 -42.15771,-10.25284 -84.63386,-21.25548 -128.30084,-21.88916 -32.43187,1.80293 -63.11149,-14.70655 -95.122306,-14.55994 z"
       style="fill:#0088ff;fill-opacity:1;fill-rule:evenodd;stroke:none"
       inkscape:connector-curvature="0"
       class="blue" />
    <g
       transform="matrix(0.436314,0.45510846,-0.45510846,0.436314,352.87591,-282.15348)"
       style="fill:none;stroke:#000000;stroke-width:5;stroke-miterlimit:4;stroke-opacity:1;stroke-dasharray:none"
       id="g3401">
      <path
         style="fill:none;stroke:#000000;stroke-width:5;stroke-linecap:butt;stroke-linejoin:miter;stroke-miterlimit:4;stroke-opacity:1;stroke-dasharray:none"
         d="m 216.49978,685.72271 61.38308,301.10889 c 78.03016,11.72727 157.63485,11.52184 235.57831,0 l 53.08807,-301.10889"
         id="path3403"
         sodipodi:nodetypes="cccc"
         inkscape:connector-curvature="0" />
      <path
         sodipodi:nodetypes="ccccc"
         id="path3405"
         d="m 199.90976,633.46417 c 126.9554,7.72435 254.68897,8.85525 381.5705,0 l 0,53.91762 c -127.02364,6.5064 -254.54025,6.3761 -381.5705,0 l 0,-53.91762 z"
         style="color:#000000;fill:none;stroke-linecap:butt;stroke-linejoin:miter;stroke-dashoffset:0;marker:none;visibility:visible;display:inline;overflow:visible;enable-background:accumulate"
         inkscape:connector-curvature="0" />
    </g>
    <path
       style="fill:#000000;stroke:none;display:inline"
       d="M 0 383.65625 L 0 831.0625 L 0 14639.062 L 105.09375 14639.062 L 105.09375 1218.6562 L 717.09375 1011.0625 L 717.09375 981.0625 L 677.09375 831.0625 L 156.5 831.0625 L 156.5 383.65625 L 0 383.65625 z "
       id="rect3407" />
    <g
       style="font-size:64.45087433px;font-style:normal;font-variant:normal;font-weight:normal;font-stretch:normal;text-align:start;line-height:125%;letter-spacing:0px;word-spacing:0px;writing-mode:lr-tb;text-anchor:start;fill:#000000;fill-opacity:1;stroke:none;display:inline;font-family:Source Sans Pro;-inkscape-font-specification:Source Sans Pro"
       id="text35187"
       transform="translate(-580,-124)">
      <path
         d="m 1356.7508,681.6407 c 1.0442,2.0887 1.5663,4.32657 1.5666,6.71363 -3e-4,3.28223 -1.0446,6.56444 -3.1331,9.84666 -1.9397,3.28222 -6.7138,8.57852 -14.3224,15.88893 -7.609,7.45957 -17.8286,13.57643 -30.6589,18.3506 -12.6815,4.7741 -26.1833,7.16116 -40.5056,7.16121 -13.129,-5e-5 -29.1671,-2.90929 -48.1144,-8.72772 -18.9474,-5.66932 -36.4774,-17.60466 -52.5901,-35.80605 -16.1127,-18.20138 -24.1691,-38.86443 -24.1691,-61.9892 0,-5.07246 1.4174,-15.96345 4.252,-32.67301 2.8346,-16.85857 14.3224,-35.13455 34.4633,-54.828 20.29,-19.84235 44.8321,-29.76359 73.6262,-29.76377 5.9675,1.8e-4 15.5904,1.11911 28.8686,3.35681 13.4271,2.23805 27.6003,6.863 42.5197,13.87484 15.0682,6.86298 22.6023,15.14312 22.6025,24.84044 -2e-4,0.89529 -0.3731,3.05857 -1.1189,6.48985 -0.597,3.28235 -2.2381,5.9678 -4.9233,8.05636 -2.5365,1.93961 -5.9679,2.90936 -10.2943,2.90924 -5.3711,1.2e-4 -13.4274,-2.08857 -24.169,-6.26606 -10.5928,-4.17724 -22.0806,-8.72759 -34.4633,-13.65105 -4.0284,-0.89501 -7.8328,-1.34259 -11.4132,-1.34273 -16.5604,1.4e-4 -29.8385,7.68351 -39.8342,23.05014 -9.996,15.36686 -14.9939,32.22552 -14.9938,50.57603 -10e-5,16.85873 3.8043,32.52386 11.4132,46.99543 7.7578,14.32242 16.1872,22.22958 25.288,23.7215 9.1005,1.64111 15.5158,2.46166 19.2457,2.46167 9.8465,-10e-6 19.171,-2.31248 27.9735,-6.93742 8.9513,-4.62495 17.3807,-9.92125 25.288,-15.88893 7.907,-5.96765 14.0238,-8.95149 18.3506,-8.95151 4.028,2e-5 7.7578,1.04436 11.1894,3.13302 3.5804,1.93952 6.2658,5.07254 8.0563,9.39909"
         style="font-size:223.78775024px;font-weight:bold;fill:#000000;font-family:Blurfont;-inkscape-font-specification:Blurfont Bold"
         id="path3492"
         inkscape:connector-curvature="0" />
      <path
         d="m 1508.8776,687.01161 c -1.9397,5.22171 -5.4457,7.83257 -10.5181,7.83257 -3.7299,0 -7.4597,-1.41732 -11.1893,-4.25197 -3.5808,-2.83464 -5.8186,-6.26605 -6.7137,-10.29424 -0.746,-4.17735 -1.2682,-18.05218 -1.5665,-41.62452 -0.2985,-23.57223 -5.2964,-36.77569 -14.9938,-39.61043 -9.5483,-2.98374 -15.9636,-4.47565 -19.2457,-4.47575 -13.4273,10e-5 -21.8567,10.81649 -25.288,32.44922 -1.6412,18.05226 -3.0585,32.59845 -4.252,43.63861 -1.0444,10.89102 -3.1331,17.53005 -6.2661,19.91711 -3.133,2.23788 -6.5644,3.35682 -10.2942,3.35682 -5.6693,0 -9.9213,-4.10277 -12.7559,-12.30833 -2.8347,-8.35472 -5.1471,-18.49976 -6.9374,-30.43513 -1.6411,-12.08449 -2.4617,-24.98957 -2.4617,-38.71528 0,-13.72556 0.5222,-26.03387 1.5665,-36.92498 1.1936,-11.04007 2.6855,-22.52783 4.4758,-34.46332 1.7903,-11.93518 3.4314,-19.09638 4.9233,-21.48362 1.6411,-2.53608 4.4757,-3.80421 8.504,-3.80439 1.4918,1.8e-4 3.1329,0.29856 4.9233,0.89515 1.7903,0.44775 4.8487,1.79048 9.1753,4.02818 4.4757,2.08886 7.0119,9.10086 7.6088,21.03605 0.5967,11.78629 2.76,19.02209 6.4898,21.70741 3.8789,2.68558 7.3103,4.40128 10.2942,5.14712 2.9838,0.74608 5.9676,1.11906 8.9516,1.11893 2.9837,1.3e-4 7.3849,-0.44745 13.2034,-1.34272 5.8184,-0.89503 10.2196,-1.3426 13.2035,-1.34273 17.3061,1.3e-4 29.7636,6.11699 37.3726,18.3506 7.6086,12.08463 11.413,27.60057 11.4131,46.54785 -10e-5,9.54833 -0.8953,19.17119 -2.6854,28.86862 -1.6413,9.5483 -3.9537,18.27601 -6.9374,26.18317"
         style="font-size:223.78775024px;font-weight:bold;fill:#000000;font-family:Blurfont;-inkscape-font-specification:Blurfont Bold"
         id="path3494"
         inkscape:connector-curvature="0" />
      <path
         d="m 1748.1556,722.81765 c -1.1937,5.81844 -3.9538,10.07041 -8.2801,12.7559 -4.1776,2.68541 -9.4739,4.02813 -15.889,4.02818 -7.4597,-5e-5 -15.2177,-1.79035 -23.2739,-5.37091 -7.9073,-3.58064 -13.129,-7.08664 -15.6651,-10.51802 -2.3872,-3.43144 -3.8792,-6.11689 -4.4758,-8.05636 -0.4477,-1.93951 -0.6715,-4.17739 -0.6713,-6.71363 -2e-4,-3.13304 1.3425,-9.69748 4.0281,-19.69333 2.6853,-10.14503 4.0281,-17.15703 4.0282,-21.03605 -10e-5,-5.22168 -1.0445,-9.84662 -3.133,-13.87484 -2.0889,-4.02813 -6.2662,-8.05631 -12.5321,-12.08453 -6.117,-4.17732 -13.2782,-6.266 -21.4836,-6.26606 -5.3711,6e-5 -11.3387,1.34278 -17.9031,4.02818 -6.4153,2.53631 -11.8608,7.31045 -16.3365,14.32241 -4.3266,7.01205 -6.4899,14.84462 -6.4898,23.49772 -10e-5,8.95152 2.2378,17.53004 6.7136,25.73559 4.4757,8.35473 10.7417,15.21754 18.7982,20.58847 -13.7258,7.90713 -28.1228,11.86071 -43.191,11.86075 -12.383,-4e-5 -23.1994,-2.90928 -32.4493,-8.72772 -9.1007,-5.66932 -15.2922,-13.72567 -18.5744,-24.16908 -3.133,-10.29423 -4.6995,-19.02194 -4.6995,-26.18316 0,-16.85865 5.7439,-27.97343 17.2317,-33.34438 11.4877,-5.37085 31.4794,-11.78609 59.9751,-19.24574 28.6447,-7.60871 47.2937,-15.88885 55.9469,-24.84044 8.8022,-9.1006 13.2033,-17.90291 13.2035,-26.40696 -2e-4,-5.37078 -1.7159,-10.4433 -5.1471,-15.21757 -3.2824,-4.92318 -7.4598,-8.65298 -12.5321,-11.18938 -5.0727,-2.68531 -9.1755,-4.32641 -12.3084,-4.92333 -3.1331,-0.59662 -6.6391,-0.895 -10.518,-0.89515 -7.6089,1.5e-4 -17.9031,1.93964 -30.8827,5.81848 -12.8306,3.72994 -20.8869,5.59483 -24.1691,5.59469 -4.7742,1.4e-4 -7.8326,-1.71556 -9.1753,-5.14712 -1.3428,-3.58045 -2.0141,-6.63888 -2.0141,-9.1753 0,-8.80215 6.1914,-14.69522 18.5744,-17.67923 12.3829,-2.98366 28.2718,-4.47557 47.6668,-4.47575 4.0281,1.8e-4 9.5482,0.0748 16.5603,0.22378 7.0119,0.14938 11.786,0.22397 14.3224,0.22379 32.6728,1.8e-4 55.5738,9.54845 68.7029,28.64483 13.1286,18.9475 19.693,44.0863 19.6933,75.41648 -3e-4,15.96358 -1.1938,31.47952 -3.5806,46.54785 -2.2381,15.06839 -5.5949,33.71735 -10.0705,55.94694"
         style="font-size:223.78775024px;font-weight:bold;fill:#000000;font-family:Blurfont;-inkscape-font-specification:Blurfont Bold"
         id="path3496"
         inkscape:connector-curvature="0" />
      <path
         d="m 1879.4001,719.23704 c 1.3427,1.79028 2.014,3.43139 2.0141,4.92333 -10e-5,2.68542 -1.492,5.29628 -4.4757,7.83257 -2.984,2.53623 -6.7138,4.40112 -11.1894,5.5947 -4.3267,1.34268 -9.3246,2.01404 -14.9938,2.01409 -11.4878,-5e-5 -21.6329,-2.90929 -30.4351,-8.72772 -8.8024,-5.81852 -13.8003,-13.20351 -14.9938,-22.15499 -1.0444,-8.95152 -2.0887,-20.73766 -3.133,-35.35847 -1.0444,-14.76995 -1.865,-25.58635 -2.4617,-32.44922 0,-3.87893 1.1189,-8.95145 3.3568,-15.21757 2.2379,-6.26598 3.3568,-10.74173 3.3568,-13.42726 0,-4.62486 -2.0141,-9.3244 -6.0422,-14.09863 -4.0282,-4.77404 -9.0262,-8.87681 -14.9938,-12.30833 -5.8185,-3.4313 -8.7277,-5.66917 -8.7277,-6.71363 0,-1.79018 3.9535,-5.29619 11.8607,-10.51802 8.0563,-5.37078 13.3526,-9.54815 15.8889,-12.53212 2.6855,-2.98369 5.6693,-10.44328 8.9515,-22.37877 3.2822,-11.93518 7.9072,-17.90284 13.8749,-17.90302 4.3265,1.8e-4 7.4595,4.40133 9.3991,13.20347 1.9394,8.80248 4.1773,14.91934 6.7136,18.3506 2.5362,3.43156 9.026,9.54842 19.4695,18.3506 10.4434,8.65324 15.6651,13.80036 15.6652,15.44135 -1e-4,0.74607 -3.4315,2.0142 -10.2943,3.80439 -6.8629,1.64122 -13.1289,6.48995 -18.7981,14.54621 -5.6694,8.05644 -8.504,17.97769 -8.504,29.76377 0,14.17327 3.7298,29.54002 11.1894,46.10027 7.4595,16.41111 16.5602,31.03189 27.3021,43.8624"
         style="font-size:223.78775024px;font-weight:bold;fill:#000000;font-family:Blurfont;-inkscape-font-specification:Blurfont Bold"
         id="path3498"
         inkscape:connector-curvature="0" />
    </g>
    <g
       style="font-size:64.45087433000000487px;font-style:normal;font-variant:normal;font-weight:normal;font-stretch:normal;text-align:start;line-height:125%;letter-spacing:0px;word-spacing:0px;writing-mode:lr-tb;text-anchor:start;fill:#0088ff;fill-opacity:1;stroke:none;display:inline;font-family:Source Sans Pro;-inkscape-font-specification:Source Sans Pro"
       id="text35175"
       transform="translate(-580,-124)"
       class="blue">
      <path
         d="m 1380.2975,403.24877 c -4.476,4.62501 -9.2501,7.98182 -14.3224,10.07045 -5.0727,2.08874 -10.2944,3.13308 -15.6651,3.13303 -5.8187,5e-5 -15.9638,-2.08863 -30.4352,-6.26606 -14.3226,-4.3265 -24.4676,-6.48978 -30.4351,-6.48985 -1.0445,7e-5 -2.1634,0.0747 -3.3568,0.22379 -1.1937,0.14926 -2.0888,0.22386 -2.6855,0.22379 10.5925,7e-5 18.9472,-4.2519 25.0643,-12.7559 6.2658,-8.50385 9.3989,-18.2759 9.399,-29.3162 -10e-5,-5.51998 -0.7461,-10.44331 -2.2378,-14.76999 -1.4921,-4.47563 -4.7743,-9.02597 -9.8467,-13.65105 -5.0727,-4.62481 -9.7722,-8.42919 -14.0986,-11.41318 -4.3267,-2.98368 -9.3247,-4.4756 -14.9938,-4.47575 -0.8953,1.5e-4 -4.6997,0.67151 -11.4132,2.01409 -6.5645,1.19368 -14.3225,5.81863 -23.2739,13.87484 -8.9516,7.9073 -13.4274,16.7096 -13.4273,26.40695 -10e-5,3.72991 0.7459,7.4597 2.2379,11.18939 1.641,3.5807 6.5643,9.10079 14.77,16.56029 8.2054,7.31048 12.3082,12.75598 12.3083,16.33651 -10e-5,3.58067 -4.1029,9.10076 -12.3083,16.56029 -8.2057,7.31045 -13.2036,13.05433 -14.9938,17.23166 -1.7904,4.1774 -2.6855,8.87694 -2.6854,14.09863 -1e-4,8.65314 2.5361,16.56029 7.6088,23.7215 5.0724,7.31039 11.1146,11.93533 18.1268,13.87484 7.161,1.93947 13.5763,2.90922 19.2457,2.90924 6.5643,-2e-5 17.9775,-2.1633 34.2395,-6.48984 16.4109,-4.32658 27.8987,-6.48986 34.4633,-6.48985 1.0442,-10e-6 2.1631,-10e-6 3.3569,0 1.6409,0.29838 2.8344,0.44757 3.5806,0.44758 -4.9236,12.68128 -12.9053,21.78197 -23.9453,27.3021 -11.0404,5.66925 -24.0201,8.50389 -38.9391,8.50394 -12.2339,-5e-5 -25.2881,-1.64116 -39.1628,-4.92333 -13.7258,-3.28226 -25.5865,-6.86286 -35.5823,-10.74181 -9.9959,-3.87902 -18.649,-9.5483 -25.9594,-17.00787 -7.3104,-7.4596 -14.9938,-17.90302 -23.0501,-31.33029 -7.9072,-13.57642 -11.8608,-29.53993 -11.8608,-47.89058 0,-18.4997 5.5947,-36.85028 16.7841,-55.05178 11.1894,-18.20127 26.4069,-32.22529 45.6527,-42.0721 19.3949,-9.84649 41.1768,-14.76981 65.346,-14.76999 21.6327,1.8e-4 41.2514,5.37108 58.8562,16.11272 17.6044,10.74196 29.8382,22.45351 36.7012,35.13467 7.0118,12.53223 11.2637,21.25994 12.7559,26.18317 1.4917,4.77423 2.2376,9.24998 2.2379,13.42726 -3e-4,3.72988 -0.597,7.31048 -1.7903,10.74182 -1.1938,3.28229 -3.2825,6.48991 -6.2661,9.62287"
         style="font-size:223.78775024000000826px;font-weight:bold;fill:#0088ff;font-family:Blurfont;-inkscape-font-specification:Blurfont Bold;fill-opacity:1"
         id="path3485"
         inkscape:connector-curvature="0" />
      <path
         d="m 1622.8555,499.02993 c -1.1938,5.81844 -3.9538,10.07041 -8.2802,12.7559 -4.1775,2.68541 -9.4738,4.02813 -15.8889,4.02818 -7.4598,-5e-5 -15.2177,-1.79035 -23.2739,-5.37091 -7.9074,-3.58064 -13.1291,-7.08664 -15.6652,-10.51802 -2.3872,-3.43144 -3.8791,-6.11689 -4.4757,-8.05636 -0.4477,-1.93951 -0.6715,-4.17739 -0.6714,-6.71363 -10e-5,-3.13304 1.3426,-9.69748 4.0282,-19.69333 2.6853,-10.14503 4.028,-17.15703 4.0282,-21.03604 -2e-4,-5.22169 -1.0445,-9.84663 -3.133,-13.87485 -2.0889,-4.02813 -6.2663,-8.05631 -12.5322,-12.08453 -6.117,-4.17732 -13.2782,-6.266 -21.4836,-6.26606 -5.371,6e-5 -11.3387,1.34278 -17.903,4.02818 -6.4154,2.53631 -11.8609,7.31045 -16.3365,14.32241 -4.3267,7.01205 -6.4899,14.84462 -6.4899,23.49772 0,8.95152 2.2378,17.53004 6.7137,25.73559 4.4756,8.35473 10.7417,15.21754 18.7981,20.58847 -13.7257,7.90713 -28.1227,11.86071 -43.191,11.86075 -12.383,-4e-5 -23.1994,-2.90928 -32.4492,-8.72772 -9.1007,-5.66932 -15.2922,-13.72567 -18.5744,-24.16908 -3.133,-10.29423 -4.6995,-19.02194 -4.6995,-26.18316 0,-16.85864 5.7438,-27.97343 17.2316,-33.34438 11.4877,-5.37085 31.4794,-11.78609 59.9751,-19.24574 28.6448,-7.60871 47.2937,-15.88885 55.947,-24.84044 8.8021,-9.1006 13.2033,-17.90291 13.2034,-26.40696 -10e-5,-5.37078 -1.7158,-10.44329 -5.1471,-15.21757 -3.2823,-4.92318 -7.4597,-8.65298 -12.5321,-11.18938 -5.0726,-2.68531 -9.1754,-4.32641 -12.3083,-4.92333 -3.1332,-0.59662 -6.6392,-0.895 -10.518,-0.89515 -7.6089,1.5e-4 -17.9032,1.93964 -30.8827,5.81848 -12.8306,3.72994 -20.887,5.59483 -24.1691,5.59469 -4.7742,1.4e-4 -7.8326,-1.71556 -9.1753,-5.14712 -1.3428,-3.58045 -2.0142,-6.63888 -2.0141,-9.1753 -10e-5,-8.80215 6.1914,-14.69522 18.5744,-17.67923 12.3828,-2.98366 28.2717,-4.47557 47.6668,-4.47575 4.028,1.8e-4 9.5481,0.0748 16.5603,0.22379 7.0118,0.14937 11.786,0.22396 14.3224,0.22378 32.6728,1.8e-4 55.5737,9.54845 68.7028,28.64483 13.1287,18.9475 19.6931,44.0863 19.6933,75.41648 -2e-4,15.96358 -1.1937,31.47952 -3.5806,46.54785 -2.2381,15.06839 -5.5949,33.71735 -10.0704,55.94694"
         style="font-size:223.78775024000000826px;font-weight:bold;fill:#0088ff;font-family:Blurfont;-inkscape-font-specification:Blurfont Bold;fill-opacity:1"
         id="path3487"
         inkscape:connector-curvature="0" />
      <path
         d="m 1890.3868,305.00595 c -3e-4,10.89116 0.9695,24.09462 2.9092,39.61043 1.9393,15.51606 3.8787,31.40497 5.8185,47.66679 2.0884,16.26197 3.1328,29.83842 3.133,40.72937 -2e-4,18.05223 -2.3873,32.82221 -7.1612,44.30997 -4.7744,11.48776 -13.5021,19.46951 -26.1832,23.94529 -12.5323,4.47572 -26.7055,7.98173 -42.5196,10.51803 -15.6653,2.68541 -31.4797,4.02813 -47.443,4.02818 -11.9355,-5e-5 -23.4979,-0.74601 -34.6871,-2.23788 -11.0403,-1.34277 -23.9454,-4.02822 -38.7153,-8.05636 -14.7701,-4.02821 -25.7356,-13.05431 -32.8968,-27.07832 -7.1612,-13.87483 -10.7418,-31.62864 -10.7418,-53.26148 0,-10.89095 0.7459,-22.97547 2.2378,-36.25362 1.4919,-13.42717 2.9839,-26.92901 4.4758,-40.50558 1.6411,-13.72551 2.4616,-24.54191 2.4617,-32.44922 -1e-4,-5.22156 1.0443,-9.69731 3.133,-13.42727 2.0887,-3.87881 7.385,-5.81831 15.8889,-5.81848 3.7298,1.7e-4 7.4596,0.44775 11.1894,1.34273 3.8789,0.74613 8.5039,2.08885 13.8749,4.02818 5.52,1.79047 9.026,4.32672 10.518,7.60878 1.4918,3.28238 2.2378,7.16136 2.2379,11.63696 -10e-5,1.93964 -10e-5,3.80454 0,5.5947 0.5966,5.81862 0.895,12.75603 0.8951,20.81226 -10e-5,3.58072 -0.075,9.25 -0.2238,17.00787 -0.1493,7.75807 -0.2238,13.65114 -0.2238,17.67923 0,19.69339 2.0886,35.88069 6.2661,48.56194 4.3265,12.53214 12.532,21.18526 24.6166,25.95938 12.2336,4.62496 22.3787,6.93743 30.4352,6.93742 17.3061,1e-5 28.4208,-11.33856 33.3444,-34.01574 2.3868,-23.72144 4.9977,-49.08402 7.8325,-76.08783 2.8345,-27.00358 7.9816,-44.01143 15.4414,-51.02361 7.4594,-7.16103 13.427,-10.74163 17.903,-10.74181 5.6691,1.8e-4 11.4129,1.64128 17.2317,4.92333 5.9674,3.28239 8.9512,5.96784 8.9515,8.05636"
         style="font-size:223.78775024000000826px;font-weight:bold;fill:#0088ff;font-family:Blurfont;-inkscape-font-specification:Blurfont Bold;fill-opacity:1"
         id="path3489"
         inkscape:connector-curvature="0" />
    </g>
  </g>
  <style
     id="style4"
     type="text/css">

	.st0{fill:none;}

</style>
  <style
     type="text/css"
     id="style4-1">

	.st0{fill:none;}

</style>
</svg>
