<?xml version="1.0" encoding="UTF-8" standalone="no"?>
<!-- Created with Inkscape (http://www.inkscape.org/) -->

<svg
   xmlns:dc="http://purl.org/dc/elements/1.1/"
   xmlns:cc="http://creativecommons.org/ns#"
   xmlns:rdf="http://www.w3.org/1999/02/22-rdf-syntax-ns#"
   xmlns:svg="http://www.w3.org/2000/svg"
   xmlns="http://www.w3.org/2000/svg"
   xmlns:sodipodi="http://sodipodi.sourceforge.net/DTD/sodipodi-0.dtd"
   xmlns:inkscape="http://www.inkscape.org/namespaces/inkscape"
   width="1000"
   height="1000"
   id="svg4817"
   version="1.1"
   inkscape:version="0.48.4 r9939"
   sodipodi:docname="media-hover.svg"
   inkscape:export-filename="/home/lcc/Documents/EAUCHAT/images/media-hover.png"
   inkscape:export-xdpi="9"
   inkscape:export-ydpi="9">
  <defs
     id="defs4819">
    <clipPath
       id="clipPath2415"
       clipPathUnits="userSpaceOnUse">
      <rect
         y="240"
         x="725"
         height="175"
         width="75"
         id="rect2417"
         style="fill:#ffffff;fill-opacity:1;fill-rule:nonzero;stroke:none" />
    </clipPath>
    <clipPath
       id="clipPath3509"
       clipPathUnits="userSpaceOnUse">
      <rect
         y="240"
         x="725"
         height="175"
         width="75"
         id="rect3511"
         style="fill:#ffffff;fill-opacity:1;fill-rule:nonzero;stroke:none" />
    </clipPath>
  </defs>
  <sodipodi:namedview
     id="base"
     pagecolor="#ffffff"
     bordercolor="#666666"
     borderopacity="1.0"
     inkscape:pageopacity="0.0"
     inkscape:pageshadow="2"
     inkscape:zoom="0.29415642"
     inkscape:cx="360.61837"
     inkscape:cy="512.65333"
     inkscape:document-units="px"
     inkscape:current-layer="layer8"
     showgrid="false"
     width="372.05px"
     inkscape:window-width="1280"
     inkscape:window-height="776"
     inkscape:window-x="0"
     inkscape:window-y="24"
     inkscape:window-maximized="1"
     inkscape:object-nodes="true"
     inkscape:snap-smooth-nodes="true"
     inkscape:snap-page="true"
     inkscape:snap-global="true"
     inkscape:snap-bbox="true" />
  <metadata
     id="metadata4822">
    <rdf:RDF>
      <cc:Work
         rdf:about="">
        <dc:format>image/svg+xml</dc:format>
        <dc:type
           rdf:resource="http://purl.org/dc/dcmitype/StillImage" />
        <dc:title></dc:title>
      </cc:Work>
    </rdf:RDF>
  </metadata>
  <g
     inkscape:groupmode="layer"
     id="layer8"
     inkscape:label="Medias"
     style="display:inline">
    <path
       style="fill:#ffc0ff;fill-opacity:1"
       d="M 225 175 L 225 500 L 225 825 L 500 825 L 775 825 L 775 500 L 775 175 L 500 175 L 225 175 z M 255.15625 225 L 322.28125 225 L 322.28125 266.40625 L 255.15625 266.40625 L 255.15625 225 z M 350 225 L 500 225 L 650 225 L 650 350 L 650 475 L 500 475 L 350 475 L 350 350 L 350 225 z M 677.71875 225 L 744.84375 225 L 744.84375 266.40625 L 677.71875 266.40625 L 677.71875 225 z M 255.15625 326.40625 L 322.28125 326.40625 L 322.28125 367.8125 L 255.15625 367.8125 L 255.15625 326.40625 z M 677.71875 326.40625 L 744.84375 326.40625 L 744.84375 367.8125 L 677.71875 367.8125 L 677.71875 326.40625 z M 255.15625 427.78125 L 322.28125 427.78125 L 322.28125 469.1875 L 255.15625 469.1875 L 255.15625 427.78125 z M 677.71875 427.78125 L 744.84375 427.78125 L 744.84375 469.1875 L 677.71875 469.1875 L 677.71875 427.78125 z M 350 525 L 500 525 L 650 525 L 650 650 L 650 775 L 500 775 L 350 775 L 350 650 L 350 525 z M 255.15625 529.1875 L 322.28125 529.1875 L 322.28125 570.59375 L 255.15625 570.59375 L 255.15625 529.1875 z M 677.71875 529.1875 L 744.84375 529.1875 L 744.84375 570.59375 L 677.71875 570.59375 L 677.71875 529.1875 z M 255.15625 630.59375 L 322.28125 630.59375 L 322.28125 672 L 255.15625 672 L 255.15625 630.59375 z M 677.71875 630.59375 L 744.84375 630.59375 L 744.84375 672 L 677.71875 672 L 677.71875 630.59375 z M 255.15625 732 L 322.28125 732 L 322.28125 773.375 L 255.15625 773.375 L 255.15625 732 z M 677.71875 732 L 744.84375 732 L 744.84375 773.375 L 677.71875 773.375 L 677.71875 732 z "
       id="path5049" />
  </g>
</svg>
