<?xml version="1.0" encoding="UTF-8" standalone="no"?>
<!-- Created with Inkscape (http://www.inkscape.org/) -->

<svg
   xmlns:dc="http://purl.org/dc/elements/1.1/"
   xmlns:cc="http://creativecommons.org/ns#"
   xmlns:rdf="http://www.w3.org/1999/02/22-rdf-syntax-ns#"
   xmlns:svg="http://www.w3.org/2000/svg"
   xmlns="http://www.w3.org/2000/svg"
   xmlns:sodipodi="http://sodipodi.sourceforge.net/DTD/sodipodi-0.dtd"
   xmlns:inkscape="http://www.inkscape.org/namespaces/inkscape"
   width="1000"
   height="1000"
   id="svg4817"
   version="1.1"
   inkscape:version="0.48.4 r9939"
   sodipodi:docname="media-hover.svg"
   inkscape:export-filename="/home/lcc/Documents/EAUCHAT/images/media-hover.png"
   inkscape:export-xdpi="9"
   inkscape:export-ydpi="9">
  <defs
     id="defs4819">
    <clipPath
       id="clipPath2415"
       clipPathUnits="userSpaceOnUse">
      <rect
         y="240"
         x="725"
         height="175"
         width="75"
         id="rect2417"
         style="fill:#ffffff;fill-opacity:1;fill-rule:nonzero;stroke:none" />
    </clipPath>
    <clipPath
       id="clipPath3509"
       clipPathUnits="userSpaceOnUse">
      <rect
         y="240"
         x="725"
         height="175"
         width="75"
         id="rect3511"
         style="fill:#ffffff;fill-opacity:1;fill-rule:nonzero;stroke:none" />
    </clipPath>
  </defs>
  <sodipodi:namedview
     id="base"
     pagecolor="#ffffff"
     bordercolor="#666666"
     borderopacity="1.0"
     inkscape:pageopacity="0.0"
     inkscape:pageshadow="2"
     inkscape:zoom="0.175"
     inkscape:cx="-2075.5822"
     inkscape:cy="-28.971398"
     inkscape:document-units="px"
     inkscape:current-layer="layer8"
     showgrid="false"
     width="372.05px"
     inkscape:window-width="1280"
     inkscape:window-height="776"
     inkscape:window-x="0"
     inkscape:window-y="24"
     inkscape:window-maximized="1"
     inkscape:object-nodes="true"
     inkscape:snap-smooth-nodes="true"
     inkscape:snap-page="true"
     inkscape:snap-global="false" />
  <metadata
     id="metadata4822">
    <rdf:RDF>
      <cc:Work
         rdf:about="">
        <dc:format>image/svg+xml</dc:format>
        <dc:type
           rdf:resource="http://purl.org/dc/dcmitype/StillImage" />
        <dc:title></dc:title>
      </cc:Work>
    </rdf:RDF>
  </metadata>
  <g
     inkscape:groupmode="layer"
     id="layer8"
     inkscape:label="Medias"
     style="display:inline">
    <path
       style="fill:#ffc0ff;fill-opacity:1"
       d="m 225,500 0,-325.00009 274.9999,0 275.0001,0 0,325.00009 0,325.00009 -275.0001,0 -274.9999,0 L 225,500 z m 99.99996,249.99991 c 0,-13.74996 -16.87504,-25 -37.50008,-25 -20.62485,0 -37.49988,11.25004 -37.49988,25 0,13.75018 16.87503,25.00019 37.49988,25.00019 20.62504,0 37.50008,-11.25001 37.50008,-25.00019 z m 325.0001,-99.99996 0,-124.99995 -150.00015,0 -149.99994,0 0,124.99995 0,125.00015 149.99994,0 150.00015,0 0,-125.00016 z m 99.99996,99.99996 c 0,-13.74996 -16.87504,-25 -37.5001,-25 -20.62483,0 -37.49988,11.25004 -37.49988,25 0,13.75018 16.87504,25.00019 37.49988,25.00019 20.62505,0 37.5001,-11.25001 37.5001,-25.00019 z M 324.99996,649.99995 c 0,-13.74996 -16.87504,-25 -37.50008,-25 -20.62485,0 -37.49988,11.25004 -37.49988,25 0,13.74996 16.87503,24.99999 37.49988,24.99999 20.62504,0 37.50008,-11.25002 37.50008,-24.99999 z m 425.00006,0 c 0,-13.74996 -16.87504,-25 -37.5001,-25 -20.62483,0 -37.49988,11.25004 -37.49988,25 0,13.74996 16.87504,24.99999 37.49988,24.99999 20.62505,0 37.5001,-11.25002 37.5001,-24.99999 z M 324.99996,549.99999 C 324.99996,536.25003 308.12492,525 287.49988,525 266.87503,525 250,536.25003 250,549.99999 c 0,13.74996 16.87503,24.99999 37.49988,24.99999 20.62504,0 37.50008,-11.25002 37.50008,-24.99999 z m 425.00006,0 C 750.00002,536.25003 733.12498,525 712.49992,525 c -20.62483,0 -37.49988,11.25003 -37.49988,24.99999 0,13.74996 16.87504,24.99999 37.49988,24.99999 20.62505,0 37.5001,-11.25002 37.5001,-24.99999 z M 324.99996,450.00003 c 0,-13.74997 -16.87504,-25 -37.50008,-25 -20.62485,0 -37.49988,11.25003 -37.49988,25 0,13.74996 16.87503,24.99998 37.49988,24.99998 20.62504,0 37.50008,-11.25002 37.50008,-24.99998 z m 325.0001,-100.00017 0,-124.99996 -150.00015,0 -149.99994,0 0,124.99996 0,125.00015 149.99994,0 150.00015,0 0,-125.00015 z m 99.99996,100.00018 c 0,-13.74998 -16.87504,-25 -37.5001,-25 -20.62483,0 -37.49988,11.25002 -37.49988,25 0,13.74996 16.87504,24.99998 37.49988,24.99998 20.62505,0 37.5001,-11.25002 37.5001,-24.99998 z M 324.99996,349.99986 c 0,-13.74996 -16.87504,-25 -37.50008,-25 -20.62485,0 -37.49988,11.25004 -37.49988,25 0,13.75016 16.87503,25.00018 37.49988,25.00018 20.62504,0 37.50008,-11.25002 37.50008,-25.00018 z m 425.00006,0 c 0,-13.74996 -16.87504,-25 -37.5001,-25 -20.62483,0 -37.49988,11.25004 -37.49988,25 0,13.75016 16.87504,25.00018 37.49988,25.00018 20.62505,0 37.5001,-11.25002 37.5001,-25.00018 z M 324.99996,249.9999 c 0,-13.74997 -16.87504,-25 -37.50008,-25 -20.62485,0 -37.49988,11.25003 -37.49988,25 0,13.74996 16.87503,24.99998 37.49988,24.99998 20.62504,0 37.50008,-11.25002 37.50008,-24.99998 z m 425.00006,0 c 0,-13.74997 -16.87504,-25 -37.5001,-25 -20.62483,0 -37.49988,11.25003 -37.49988,25 0,13.74996 16.87504,24.99998 37.49988,24.99998 20.62505,0 37.5001,-11.25002 37.5001,-24.99998 z"
       id="path5049"
       inkscape:connector-curvature="0" />
  </g>
</svg>
