<?xml version="1.0" encoding="UTF-8" standalone="no"?>
<!-- Created with Inkscape (http://www.inkscape.org/) -->

<svg
   xmlns:dc="http://purl.org/dc/elements/1.1/"
   xmlns:cc="http://creativecommons.org/ns#"
   xmlns:rdf="http://www.w3.org/1999/02/22-rdf-syntax-ns#"
   xmlns:svg="http://www.w3.org/2000/svg"
   xmlns="http://www.w3.org/2000/svg"
   xmlns:sodipodi="http://sodipodi.sourceforge.net/DTD/sodipodi-0.dtd"
   xmlns:inkscape="http://www.inkscape.org/namespaces/inkscape"
   width="1000"
   height="1000"
   id="svg4817"
   version="1.1"
   inkscape:version="0.48.4 r9939"
   sodipodi:docname="settings-hover.svg"
   inkscape:export-filename="/home/lcc/Documents/EAUCHAT/images/settings-hover.png"
   inkscape:export-xdpi="9"
   inkscape:export-ydpi="9">
  <defs
     id="defs4819">
    <clipPath
       id="clipPath2415"
       clipPathUnits="userSpaceOnUse">
      <rect
         y="240"
         x="725"
         height="175"
         width="75"
         id="rect2417"
         style="fill:#ffffff;fill-opacity:1;fill-rule:nonzero;stroke:none" />
    </clipPath>
    <clipPath
       id="clipPath3509"
       clipPathUnits="userSpaceOnUse">
      <rect
         y="240"
         x="725"
         height="175"
         width="75"
         id="rect3511"
         style="fill:#ffffff;fill-opacity:1;fill-rule:nonzero;stroke:none" />
    </clipPath>
  </defs>
  <sodipodi:namedview
     id="base"
     pagecolor="#ffffff"
     bordercolor="#666666"
     borderopacity="1.0"
     inkscape:pageopacity="0.0"
     inkscape:pageshadow="2"
     inkscape:zoom="0.24748737"
     inkscape:cx="-994.98502"
     inkscape:cy="704.08158"
     inkscape:document-units="px"
     inkscape:current-layer="layer7"
     showgrid="false"
     width="372.05px"
     inkscape:window-width="1280"
     inkscape:window-height="776"
     inkscape:window-x="0"
     inkscape:window-y="24"
     inkscape:window-maximized="1"
     inkscape:object-nodes="true"
     inkscape:snap-smooth-nodes="true"
     inkscape:snap-page="true"
     inkscape:snap-global="false" />
  <metadata
     id="metadata4822">
    <rdf:RDF>
      <cc:Work
         rdf:about="">
        <dc:format>image/svg+xml</dc:format>
        <dc:type
           rdf:resource="http://purl.org/dc/dcmitype/StillImage" />
        <dc:title></dc:title>
      </cc:Work>
    </rdf:RDF>
  </metadata>
  <g
     inkscape:groupmode="layer"
     id="layer7"
     inkscape:label="Settings"
     style="display:inline">
    <path
       style="fill:#ffc0ff;fill-rule:evenodd;stroke:none;stroke-width:5.05509948999999992;stroke-miterlimit:4;stroke-opacity:1;stroke-dasharray:none;fill-opacity:1"
       d="M 334.28125 95.96875 L 317.65625 98.78125 L 317.65625 98.8125 L 303.4375 101.1875 L 301.6875 137.6875 C 284.75918 142.52752 268.62427 149.26639 253.5625 157.6875 L 227.15625 133 L 213.28125 142.5625 L 213.28125 142.59375 L 201.40625 150.78125 L 215.25 184.65625 C 202.21776 195.99005 190.48073 208.78128 180.3125 222.78125 L 145.75 211.53125 L 137.21875 226.0625 L 129.90625 238.5 L 156.8125 263.375 C 147.16434 284.90555 140.76037 308.20083 138.25 332.65625 L 102.53125 340.75 L 102.625 355.1875 L 102.75 372.03125 L 138.21875 379.53125 C 140.02403 397.15158 143.86547 414.18222 149.46875 430.375 L 120.5625 452.78125 L 126.75 465.8125 L 133.96875 481.03125 L 169.3125 472.84375 C 178.26124 487.74644 188.86146 501.54329 200.875 513.96875 L 184.125 546.5 L 195.25 555.6875 L 208.25 566.4375 L 236.71875 544.125 C 251.02691 553.84432 266.51923 561.99537 282.90625 568.28125 L 281.46875 604.84375 L 295.4375 608.46875 L 295.4375 608.5 L 311.75 612.75 L 328.15625 580.40625 C 339.89621 582.27872 351.95185 583.28125 364.21875 583.28125 C 369.55997 583.28125 374.84473 583.11292 380.09375 582.75 L 394.3125 616.59375 L 408.5 614 L 425.0625 610.9375 L 426.3125 574.6875 C 443.22241 569.88947 459.31869 563.1835 474.375 554.8125 L 501.5625 579.46875 L 513.3125 571.125 L 527.0625 561.34375 L 512.8125 527.90625 C 526.02552 516.46275 537.90543 503.52114 548.1875 489.34375 L 583.15625 500.15625 L 590.25 487.625 L 598.5625 472.96875 L 571.625 448.75 C 581.2495 427.2357 587.65256 403.95958 590.15625 379.53125 L 625.65625 372.03125 L 625.78125 355.1875 L 625.875 340.75 L 590.15625 332.65625 C 588.34753 315.03863 584.51033 298.03382 578.90625 281.84375 L 607.875 260.03125 L 600.875 244.71875 L 594.875 231.625 L 559.0625 239.375 C 550.04885 224.36801 539.37071 210.46057 527.25 197.96875 L 544.34375 165.875 L 531.53125 154.9375 L 520.5625 145.59375 L 491.28125 167.84375 C 476.98179 158.17183 461.52446 150.05907 445.15625 143.8125 L 447.09375 107.65625 L 430.84375 103.15625 L 430.84375 103.1875 L 416.9375 99.34375 L 399.875 131.75 C 388.26141 129.91478 376.34755 128.9375 364.21875 128.9375 C 358.69878 128.9375 353.2342 129.14388 347.8125 129.53125 L 334.28125 95.96875 z M 366.875 176.1875 C 386.99417 176.12071 407.02423 179.31113 419.21875 186.625 C 433.40417 195.1267 432.5195 205.68616 425.78125 217.53125 C 413.04503 239.92321 379.46875 298.09375 379.46875 298.09375 C 372.79279 309.70046 356.56281 311.45846 348.25 299.375 L 299.8125 215.6875 C 299.8125 215.6875 290.33846 196.01658 313.875 185.34375 C 326.52498 179.60812 346.75583 176.25429 366.875 176.1875 z M 256.21875 219.71875 C 263.94992 219.67384 269.54583 225.04157 274.28125 233.125 C 287.30601 255.35037 320.875 313.5 320.875 313.5 C 327.58898 325.08435 320.99617 340.03083 306.375 341.1875 L 209.6875 341.3125 C 209.6875 341.3125 187.91136 339.65795 190.4375 313.9375 C 193.1531 286.29174 219.35636 237.184 244.21875 223.375 C 248.73599 220.86424 252.70458 219.73916 256.21875 219.71875 z M 472.40625 220.40625 C 475.92067 220.42642 479.88845 221.55259 484.40625 224.0625 C 509.26541 237.87217 535.47392 286.97788 538.1875 314.625 C 540.71566 340.3468 518.9375 342 518.9375 342 L 422.25 341.90625 C 407.62539 340.75228 401.0342 325.80785 407.75 314.21875 C 407.75 314.21875 441.31959 256.03651 454.34375 233.8125 C 459.07875 225.7286 464.67453 220.36187 472.40625 220.40625 z M 364.25 329.8125 C 374.97747 329.83399 385.05723 336.46105 388.9375 347.125 C 393.90605 360.77553 386.86853 375.87709 373.21875 380.84375 C 359.56816 385.81244 344.46654 378.77485 339.5 365.125 C 334.53124 351.4738 341.56877 336.37358 355.21875 331.40625 C 358.20495 330.3195 361.24631 329.80648 364.25 329.8125 z M 422.8125 372.34375 C 422.8125 372.34375 489.96039 372.36534 515.71875 372.53125 C 529.34548 372.61725 538.91533 377.12216 539.1875 393.65625 C 539.65681 422.09095 510.24122 469.35676 487.65625 485.53125 C 466.64443 500.58022 454.3125 482.53125 454.3125 482.53125 L 406.0625 398.75 C 399.75171 385.5085 409.41932 372.32275 422.8125 372.34375 z M 269.03125 373.0625 C 289.0433 373.04244 305.84375 373.0625 305.84375 373.0625 C 319.2343 373.0408 328.87207 386.22591 322.5625 399.46875 L 274.3125 483.25 C 274.3125 483.25 261.98057 501.29762 240.96875 486.25 C 218.38459 470.07619 188.996 422.8097 189.46875 394.375 C 189.73829 377.83887 199.28013 373.30611 212.90625 373.21875 C 225.78614 373.1358 249.0192 373.08256 269.03125 373.0625 z M 363.34375 406.21875 C 369.66647 406.2268 375.92107 409.61447 379.46875 415.78125 C 379.46875 415.78125 413.04563 473.95247 425.78125 496.34375 C 432.5201 508.18816 433.40295 518.71434 419.21875 527.21875 C 394.82971 541.84311 339.17557 540.00387 313.875 528.53125 C 290.33643 517.85842 299.8125 498.15625 299.8125 498.15625 L 348.25 414.5 C 352.14625 408.83461 357.76488 406.21165 363.34375 406.21875 z "
       id="path19641" />
    <path
       style="fill:#000000;fill-rule:evenodd;stroke:none;stroke-width:5.05509948999999992;stroke-miterlimit:4;stroke-opacity:1;stroke-dasharray:none"
       d="M 699.5 494 L 690.78125 521.21875 C 677.00347 521.449 663.43706 523.27813 650.34375 526.59375 L 635.375 502.59375 L 622.9375 507 L 612.3125 510.78125 L 615.90625 539.21875 C 603.75783 545.14705 592.30516 552.44471 581.78125 560.96875 L 557.9375 545.4375 L 548.53125 554.71875 L 540.5 562.625 L 555.78125 586.875 C 544.125 601.19733 534.57083 617.52006 527.71875 635.5 L 499.0625 634.40625 L 496.21875 645.3125 L 492.90625 658.09375 L 518.21875 670.96875 C 516.01432 684.65586 515.45003 698.27863 516.40625 711.65625 L 490 722.75 L 492.0625 733.84375 L 494.4375 746.8125 L 522.8125 747.78125 C 526.55812 760.86021 531.77819 773.45377 538.34375 785.28125 L 519.09375 806.46875 L 525.65625 815.6875 L 533.28125 826.4375 L 559.34375 815.34375 C 568.1922 825.59062 578.22799 834.86515 589.34375 842.9375 L 580.875 870.3125 L 590.6875 875.875 L 602.15625 882.40625 L 621.125 861.28125 C 629.62182 865.07567 638.50757 868.26463 647.78125 870.75 L 647.75 870.78125 C 651.78822 871.86344 655.83335 872.77356 659.875 873.5625 L 663.78125 902.0625 L 675.03125 902.96875 L 688.15625 904.03125 L 696.4375 876.84375 C 710.19444 876.64195 723.73355 874.84088 736.8125 871.5625 L 752.375 895.71875 L 762.96875 891.78125 L 775.3125 887.1875 L 771.34375 859 C 783.6515 853.02497 795.22937 845.63512 805.875 837 L 830.125 852.28125 L 838.03125 844.25 L 847.28125 834.84375 L 831.84375 811.09375 C 843.47897 796.77888 853.00258 780.46166 859.84375 762.5 L 888.21875 764.03125 L 891.71875 751.3125 L 894.71875 740.4375 L 869.34375 727.0625 C 871.54595 713.37674 872.11308 699.7499 871.15625 686.375 L 897.46875 675.75 L 895.28125 662.75 L 893.40625 651.625 L 864.75 650.25 C 860.97586 637.07894 855.72644 624.39926 849.09375 612.5 L 868.53125 591.6875 L 861.03125 580.84375 L 854.625 571.53125 L 828 582.40625 C 819.14953 572.19732 809.10888 562.97667 798 554.9375 L 806.78125 527.96875 L 795.40625 521.28125 L 785.6875 515.59375 L 766.1875 536.625 C 757.77925 532.88477 748.98265 529.73884 739.8125 527.28125 C 735.63961 526.16317 731.45817 525.21146 727.28125 524.40625 L 723.875 496.3125 L 710.71875 495.0625 L 699.5 494 z M 699.21875 558.96875 C 721.92244 558.70141 756.11573 568.03205 769.65625 582.03125 C 778.65857 591.33342 775.86909 599.12927 768.375 606.71875 C 754.20981 621.06682 717.03125 658.21875 717.03125 658.21875 C 709.63281 665.64097 696.99266 663.69479 693.15625 652.875 L 673.5 579.78125 C 673.5 579.78125 670.32453 562.98755 690.28125 559.6875 C 692.96258 559.2441 695.97537 559.00694 699.21875 558.96875 z M 636.25 573.53125 C 644.39308 573.69957 648.36029 579.42485 650.65625 587.78125 C 656.0003 607.2226 669.625 658.03125 669.625 658.03125 C 672.35415 668.14946 664.3203 678.08784 653.03125 676 L 579.9375 656.5 C 579.9375 656.5 563.78604 650.8397 570.90625 631.90625 C 578.56008 611.55541 608.34414 579.74654 629.9375 574.34375 C 632.2918 573.75382 634.37083 573.49241 636.25 573.53125 z M 799.125 617.90625 C 802.9581 617.67575 807.01431 619.31181 811.375 623.53125 C 827.37075 639.00754 837.23678 681.45494 833.6875 702.90625 C 830.38733 722.86431 813.59375 719.6875 813.59375 719.6875 L 740.5 700 C 729.67824 696.16496 727.73051 683.55681 735.15625 676.15625 C 735.15625 676.15625 772.30766 638.97568 786.65625 624.8125 C 790.68819 620.83131 794.78082 618.16748 799.125 617.90625 z M 694.0625 678.40625 C 704.49688 678.55229 713.3217 686.60094 714.25 697.21875 C 715.2408 708.54578 706.8569 718.54116 695.53125 719.53125 C 684.20419 720.52201 674.20894 712.13817 673.21875 700.8125 C 672.22795 689.48548 680.61185 679.49007 691.9375 678.5 C 692.64544 678.43808 693.36687 678.39651 694.0625 678.40625 z M 568.59375 680.15625 C 570.86408 680.20115 573.32643 680.6076 575.90625 681.28125 C 595.41469 686.37456 646.1875 699.96875 646.1875 699.96875 C 656.31509 702.6654 660.92219 714.61046 653.46875 723.34375 L 600.03125 776.90625 C 600.03125 776.90625 587.05527 788.03899 574.21875 772.40625 C 560.42116 755.60264 547.75712 713.93246 553.875 692.53125 C 556.54046 683.1959 561.78277 680.02156 568.59375 680.15625 z M 730.0625 722.625 C 731.59071 722.55534 733.16864 722.72971 734.75 723.15625 C 734.75 723.15625 785.52866 736.74989 804.96875 742.09375 C 815.25346 744.91974 821.54971 750.28894 818.40625 762.84375 C 813.00073 784.43592 781.19538 814.19128 760.84375 821.84375 C 741.90978 828.96394 736.25 812.84375 736.25 812.84375 L 716.75 739.71875 C 714.98726 730.19358 721.81015 723.00117 730.0625 722.625 z M 679.46875 736.21875 C 685.67588 736.26534 691.41786 740.54076 693.1875 747.1875 C 693.1875 747.1875 706.81435 797.9916 711.90625 817.5 C 714.60163 827.82001 713.10211 835.94396 700.65625 839.5 C 679.25438 845.61519 637.55355 832.95576 620.75 819.15625 C 605.1172 806.31904 616.28125 793.34375 616.28125 793.34375 L 669.84375 739.90625 C 672.84557 737.34416 676.2174 736.19435 679.46875 736.21875 z "
       id="path19649" />
  </g>
</svg>
