<?xml version="1.0" encoding="UTF-8" standalone="no"?>
<!-- Created with Inkscape (http://www.inkscape.org/) -->

<svg
   xmlns:dc="http://purl.org/dc/elements/1.1/"
   xmlns:cc="http://creativecommons.org/ns#"
   xmlns:rdf="http://www.w3.org/1999/02/22-rdf-syntax-ns#"
   xmlns:svg="http://www.w3.org/2000/svg"
   xmlns="http://www.w3.org/2000/svg"
   xmlns:xlink="http://www.w3.org/1999/xlink"
   xmlns:sodipodi="http://sodipodi.sourceforge.net/DTD/sodipodi-0.dtd"
   xmlns:inkscape="http://www.inkscape.org/namespaces/inkscape"
   width="1000"
   height="1000"
   id="svg4817"
   version="1.1"
   inkscape:version="0.48.2 r9819"
   sodipodi:docname="Services_LOGOS.svg"
   inkscape:export-filename="/Users/Zexclu_zif/Documents/Zexclu_zif/8___Web/2014-08-31 Eauchat/datas/Services_LOGOS--.png"
   inkscape:export-xdpi="9"
   inkscape:export-ydpi="9">
  <defs
     id="defs4819">
    <clipPath
       id="clipPath2415"
       clipPathUnits="userSpaceOnUse">
      <rect
         y="240"
         x="725"
         height="175"
         width="75"
         id="rect2417"
         style="fill:#ffffff;fill-opacity:1;fill-rule:nonzero;stroke:none" />
    </clipPath>
    <clipPath
       id="clipPath3509"
       clipPathUnits="userSpaceOnUse">
      <rect
         y="240"
         x="725"
         height="175"
         width="75"
         id="rect3511"
         style="fill:#ffffff;fill-opacity:1;fill-rule:nonzero;stroke:none" />
    </clipPath>
  </defs>
  <sodipodi:namedview
     id="base"
     pagecolor="#ffffff"
     bordercolor="#666666"
     borderopacity="1.0"
     inkscape:pageopacity="0.0"
     inkscape:pageshadow="2"
     inkscape:zoom="0.175"
     inkscape:cx="444.4178"
     inkscape:cy="-28.971398"
     inkscape:document-units="px"
     inkscape:current-layer="layer3"
     showgrid="false"
     width="372.05px"
     inkscape:window-width="1280"
     inkscape:window-height="778"
     inkscape:window-x="0"
     inkscape:window-y="0"
     inkscape:window-maximized="1"
     inkscape:object-nodes="true"
     inkscape:snap-smooth-nodes="true"
     inkscape:snap-page="true"
     inkscape:snap-global="false" />
  <metadata
     id="metadata4822">
    <rdf:RDF>
      <cc:Work
         rdf:about="">
        <dc:format>image/svg+xml</dc:format>
        <dc:type
           rdf:resource="http://purl.org/dc/dcmitype/StillImage" />
        <dc:title></dc:title>
      </cc:Work>
    </rdf:RDF>
  </metadata>
  <g
     inkscape:groupmode="layer"
     id="layer3"
     inkscape:label="TT">
    <path
       inkscape:connector-curvature="0"
       d=""
       id="path22396"
       style="fill:none;stroke:#00ffff;stroke-width:34.88525772;stroke-opacity:1" />
    <path
       style="display:inline;fill:#000000"
       d="m 1287.2728,432.23378 0,-123.7702 60.9351,0 60.9351,0 0,37.44552 c 0,33.85281 1.6926,35.54546 35.5454,35.54546 l 35.5455,0 0,86.32467 0,86.32468 -96.4806,0 -96.4805,0 z m 132.026,-93.30267 0,-30.46753 60.9351,61.2462 -30.4676,0 c -27.4797,0 -30.4675,-1.58523 -30.4675,-30.77867 z"
       id="path4567"
       inkscape:connector-curvature="0"
       sodipodi:nodetypes="ccccssccccccsccss" />
    <path
       style="display:inline;fill:#000000"
       d="m 1503.2778,363.95349 0,-123.7702 60.9351,0 58.7078,0 c 0,24.33033 0,48.66065 0,72.99098 l 73.3182,0 0,86.32467 0,86.32468 -96.4806,0 -96.4805,0 z m 129.6429,-123.7702 63.3182,62.99098 -63.3182,0 c 0,-20.4154 0,-42.57558 0,-62.99098 z"
       id="path4567-1"
       inkscape:connector-curvature="0"
       sodipodi:nodetypes="ccccccccccccccc" />
    <g
       transform="matrix(1.0430253,0,0,1.2543458,-4987.1056,2153.1497)"
       style="fill:#00ffff;stroke:#00ffff;stroke-opacity:1;display:inline;enable-background:new"
       id="g22404">
      <path
         inkscape:connector-curvature="0"
         style="fill:#00ffff;fill-opacity:1;fill-rule:nonzero;stroke:#000000;stroke-width:3.05100012;stroke-linecap:round;stroke-linejoin:round;stroke-miterlimit:4;stroke-opacity:1;stroke-dasharray:none;stroke-dashoffset:0"
         d="m 4090.5938,2364.5625 c -1.5773,0 -2.8438,1.2666 -2.8438,2.8437 l 0,629.3126 c 0,1.5769 1.2666,2.8437 2.8438,2.8437 l 515.9687,0 c 1.5771,0 2.8439,-1.2666 2.8437,-2.8437 l 0,-629.3126 c 0,-1.5769 -1.2666,-2.8437 -2.8437,-2.8437 l -37.5625,0 c -0.2697,0.6492 -0.7111,1.2473 -1.4062,1.6875 -3.0284,1.9176 -3.3883,4.3702 -4.8126,9.625 -0.1559,0.5751 -4.7816,4.0633 -5.0937,4.6875 -0.3086,0.6171 -0.2751,1.9216 -0.1875,3.4063 12.2851,3.6711 21.25,15.0496 21.25,28.5312 0,16.4517 -13.3299,29.7813 -29.7812,29.7812 -16.4517,0 -29.7813,-13.3295 -29.7813,-29.7812 0,-12.5432 7.7461,-23.2668 18.7187,-27.6562 -0.1291,-1.7562 -0.2764,-3.4329 -0.5937,-3.75 -1.5772,-1.5779 -1.5,-5.9473 -1.5,-7.6876 0,-2.9337 -1.1001,-5.5569 -1.7813,-8.2812 -0.048,-0.1923 -0.065,-0.3728 -0.094,-0.5625 l -69.8125,0 c 0,0.1854 -0.031,0.3803 -0.031,0.5625 0,2.9719 -3.8317,5.3508 -5.1563,8 -1.8325,3.665 -1.8835,2.7612 -2.6875,6.5938 -0.3722,1.7737 -0.2679,3.0406 0.094,4 12.7443,3.3791 22.1562,14.9784 22.1562,28.7812 0,16.4517 -13.3608,29.7813 -29.8125,29.7812 -16.4517,0 -29.7811,-13.3295 -29.7813,-29.7812 0,-10.0867 5.0187,-18.9881 12.6876,-24.375 0.014,-2.0054 0.1135,-4.1416 0.5624,-5.9375 0.757,-3.0281 -0.7262,-4.7825 0,-7.6875 0.7227,-2.8906 1.0938,-5.6441 1.0938,-8.8125 l 0,-1.125 -65.5938,0 c -0.1141,1.0397 -0.2664,2.0846 -0.2812,3.0625 -0.052,3.4749 0.2186,5.0375 0.2188,8.25 0,2.9396 -0.2188,4.7671 -0.2188,7.7812 0,1.4855 3.0486,6.3946 2.375,8.0313 5.2451,5.3697 8.4688,12.7132 8.4688,20.8125 0,16.4517 -13.3296,29.7813 -29.7813,29.7812 -16.4517,0 -29.7813,-13.3295 -29.7813,-29.7812 0,-13.2026 8.5735,-24.3737 20.4688,-28.2812 -0.1568,-0.8271 -0.3368,-1.66 -0.5625,-2.5626 -0.4344,-1.7372 -0.5495,-5.7685 -0.5625,-7.5624 -0.029,-3.9721 -0.4064,-2.8649 -0.4062,-6.4063 0,-1.442 0.1032,-2.3967 0.25,-3.125 l -74.0626,0 c -0.066,0.4967 -0.125,1.0494 -0.125,1.6875 0,1.6779 -0.4157,5.8708 -0.3437,7.3438 0.2135,4.4119 -0.6443,3.7655 -0.4063,7.9062 0.1635,2.7917 3.9712,5.5465 4.5313,8.3125 6.4329,5.464 10.5311,13.586 10.5313,22.6875 0,16.4517 -13.3608,29.7813 -29.8126,29.7812 -16.4516,0 -29.7812,-13.3295 -29.7812,-29.7812 0,-12.6525 7.9048,-23.432 19.0312,-27.75 0.1569,-1.7232 0.375,-3.3833 0.375,-5.3125 0,-3.9999 -0.4687,-2.6927 -0.4687,-6.0313 0,-2.7554 -0.1289,-5.4511 -1.25,-8.125 -0.122,-0.2907 -0.1895,-0.4885 -0.2813,-0.7187 l -72.9062,0 c 0.011,0.1801 0.023,0.3968 0.031,0.5625 0.1801,3.3832 0.4063,2.3524 0.4063,6.3438 0,1.9908 0.583,6.3829 0.625,8.5312 0.049,2.5139 1.3448,5.1393 1.9375,8.6875 0,0.02 0,0.043 0,0.062 7.1716,5.4374 11.8125,14.053 11.8125,23.75 0,16.4517 -13.3295,29.7813 -29.7813,29.7812 -16.4516,0 -29.7812,-13.3295 -29.7812,-29.7812 0,-11.4702 6.5005,-21.3995 16,-26.375 0.2754,-1.1902 0.6744,-2.3225 1.125,-4.125 0.4298,-1.7194 -0.504,-4.6412 -1.1875,-7.375 -0.6901,-2.7597 0.5316,-4.842 -0.062,-7.2188 -0.1978,-0.7907 -0.4889,-1.7885 -0.7188,-2.8437 l -42.6874,0 z"
         transform="translate(0,-4000)"
         id="path22406" />
      <path
         inkscape:connector-curvature="0"
         id="path22408"
         d="m 4122.0434,-1458.167 450.4579,0"
         style="fill:#00ffff;stroke:#000000;stroke-width:3.05148864;stroke-linecap:butt;stroke-linejoin:miter;stroke-miterlimit:4;stroke-opacity:1;stroke-dasharray:none" />
      <path
         inkscape:connector-curvature="0"
         id="path22410"
         d="m 4122.0434,-1376.5033 450.4579,0"
         style="fill:#00ffff;stroke:#000000;stroke-width:3.05148864;stroke-linecap:butt;stroke-linejoin:miter;stroke-miterlimit:4;stroke-opacity:1;stroke-dasharray:none" />
      <path
         inkscape:connector-curvature="0"
         id="path22412"
         d="m 4122.0434,-1294.8396 450.4579,0"
         style="fill:#00ffff;stroke:#000000;stroke-width:3.05148864;stroke-linecap:butt;stroke-linejoin:miter;stroke-miterlimit:4;stroke-opacity:1;stroke-dasharray:none" />
      <path
         inkscape:connector-curvature="0"
         id="path22414"
         d="m 4122.0434,-1213.176 450.4579,0"
         style="fill:#00ffff;stroke:#000000;stroke-width:3.05148864;stroke-linecap:butt;stroke-linejoin:miter;stroke-miterlimit:4;stroke-opacity:1;stroke-dasharray:none" />
      <path
         inkscape:connector-curvature="0"
         id="path22416"
         d="m 4122.0434,-1049.8487 450.4579,0"
         style="fill:#00ffff;stroke:#000000;stroke-width:3.05148864;stroke-linecap:butt;stroke-linejoin:miter;stroke-miterlimit:4;stroke-opacity:1;stroke-dasharray:none" />
      <path
         inkscape:connector-curvature="0"
         id="path22418"
         d="m 4122.0434,-1131.5123 450.4579,0"
         style="fill:#00ffff;stroke:#000000;stroke-width:3.05148864;stroke-linecap:butt;stroke-linejoin:miter;stroke-miterlimit:4;stroke-opacity:1;stroke-dasharray:none" />
      <path
         style="fill:#00ffff;stroke:#000000;stroke-width:3.05148864;stroke-linecap:butt;stroke-linejoin:miter;stroke-miterlimit:4;stroke-opacity:1;stroke-dasharray:none"
         d="m 4122.0434,-1498.167 450.4579,0"
         id="path22420"
         inkscape:connector-curvature="0" />
      <path
         style="fill:#00ffff;stroke:#000000;stroke-width:3.05148864;stroke-linecap:butt;stroke-linejoin:miter;stroke-miterlimit:4;stroke-opacity:1;stroke-dasharray:none"
         d="m 4122.0434,-1416.5033 450.4579,0"
         id="path22422"
         inkscape:connector-curvature="0" />
      <path
         style="fill:#00ffff;stroke:#000000;stroke-width:3.05148864;stroke-linecap:butt;stroke-linejoin:miter;stroke-miterlimit:4;stroke-opacity:1;stroke-dasharray:none"
         d="m 4122.0434,-1334.8396 450.4579,0"
         id="path22424"
         inkscape:connector-curvature="0" />
      <path
         style="fill:#00ffff;stroke:#000000;stroke-width:3.05148864;stroke-linecap:butt;stroke-linejoin:miter;stroke-miterlimit:4;stroke-opacity:1;stroke-dasharray:none"
         d="m 4122.0434,-1253.176 450.4579,0"
         id="path22426"
         inkscape:connector-curvature="0" />
      <path
         style="fill:#00ffff;stroke:#000000;stroke-width:3.05148864;stroke-linecap:butt;stroke-linejoin:miter;stroke-miterlimit:4;stroke-opacity:1;stroke-dasharray:none"
         d="m 4122.0434,-1089.8487 450.4579,0"
         id="path22428"
         inkscape:connector-curvature="0" />
      <path
         style="fill:#00ffff;stroke:#000000;stroke-width:3.05148864;stroke-linecap:butt;stroke-linejoin:miter;stroke-miterlimit:4;stroke-opacity:1;stroke-dasharray:none"
         d="m 4122.0434,-1171.5123 450.4579,0"
         id="path22430"
         inkscape:connector-curvature="0" />
    </g>
    <g
       transform="matrix(0.94361876,0,0,0.94361876,-2337.9635,-847.93343)"
       id="g4270"
       style="fill:none;stroke:#00ffff;stroke-opacity:1;display:inline;enable-background:new">
      <g
         style="display:inline"
         id="g4210"
         transform="matrix(0.72020132,0,0,0.72020132,-2579.7485,2605.9422)">
        <rect
           style="fill:#000000;fill-opacity:1;fill-rule:nonzero;stroke:#000000;stroke-width:1.07406449;stroke-linejoin:miter;stroke-miterlimit:4;stroke-opacity:1;stroke-dasharray:none;stroke-dashoffset:279.9"
           id="rect4212"
           width="674.92596"
           height="403.80942"
           x="4798.4839"
           y="-1891.1328" />
        <rect
           style="fill:#000000;fill-opacity:1;fill-rule:nonzero;stroke:none"
           id="rect4214"
           width="675"
           height="100"
           x="4798.4468"
           y="-1891.1698" />
        <path
           inkscape:connector-curvature="0"
           style="fill:#ffffff;fill-rule:evenodd;stroke:#000000;stroke-width:1px;stroke-linecap:butt;stroke-linejoin:miter;stroke-opacity:1"
           d="m 4798.447,-1891.1698 50,100 75,0 -50,-100 -75,0 z"
           id="path4216" />
        <path
           inkscape:connector-curvature="0"
           id="path4218"
           d="m 4948.447,-1891.1698 50,100 75,0 -50,-100 -75,0 z"
           style="fill:#ffffff;fill-rule:evenodd;stroke:#000000;stroke-width:1px;stroke-linecap:butt;stroke-linejoin:miter;stroke-opacity:1" />
        <path
           inkscape:connector-curvature="0"
           style="fill:#ffffff;fill-rule:evenodd;stroke:#000000;stroke-width:1px;stroke-linecap:butt;stroke-linejoin:miter;stroke-opacity:1"
           d="m 5098.447,-1891.1698 50,100 75,0 -50,-100 -75,0 z"
           id="path4220" />
        <path
           inkscape:connector-curvature="0"
           id="path4222"
           d="m 5248.447,-1891.1698 50,100 75,0 -50,-100 -75,0 z"
           style="fill:#ffffff;fill-rule:evenodd;stroke:#000000;stroke-width:1px;stroke-linecap:butt;stroke-linejoin:miter;stroke-opacity:1" />
        <path
           transform="translate(4673.447,-2181.1698)"
           inkscape:connector-curvature="0"
           style="fill:#ffffff;fill-rule:evenodd;stroke:#000000;stroke-width:1px;stroke-linecap:butt;stroke-linejoin:miter;stroke-opacity:1"
           d="m 725,290 50,100 75,0 -50,-100 -75,0 z"
           id="path4224"
           clip-path="url(#clipPath2415)" />
        <g
           transform="matrix(0.98444549,-0.17569012,0.17569012,0.98444549,4624.0023,-2154.8414)"
           inkscape:transform-center-y="-114.53662"
           inkscape:transform-center-x="-328.08056"
           id="g4226">
          <rect
             transform="matrix(0.9999962,-0.00276474,0.0024727,0.9999969,0,0)"
             inkscape:transform-center-y="-51.851858"
             inkscape:transform-center-x="-337.36"
             y="190.40121"
             x="124.28323"
             height="101.87254"
             width="674.97968"
             id="rect4228"
             style="fill:#000000;fill-opacity:1;fill-rule:nonzero;stroke:#000000;stroke-width:1.01992762;stroke-linejoin:miter;stroke-miterlimit:4;stroke-opacity:1;stroke-dasharray:1.01992769, 1.01992769;stroke-dashoffset:10.19927695" />
          <path
             style="fill:#ffffff;fill-rule:evenodd;stroke:#000000;stroke-width:1px;stroke-linecap:butt;stroke-linejoin:miter;stroke-opacity:1"
             d="m 125,290 50,-100 75,0 -50,100 -75,0 z"
             id="path4230"
             inkscape:connector-curvature="0" />
          <path
             id="path4232"
             d="m 275,290 50,-100 75,0 -50,100 -75,0 z"
             style="fill:#ffffff;fill-rule:evenodd;stroke:#000000;stroke-width:1px;stroke-linecap:butt;stroke-linejoin:miter;stroke-opacity:1"
             inkscape:connector-curvature="0" />
          <path
             style="fill:#ffffff;fill-rule:evenodd;stroke:#000000;stroke-width:1px;stroke-linecap:butt;stroke-linejoin:miter;stroke-opacity:1"
             d="m 425,290 50,-100 75,0 -50,100 -75,0 z"
             id="path4234"
             inkscape:connector-curvature="0" />
          <path
             id="path4236"
             d="m 575,290 50,-100 75,0 -50,100 -75,0 z"
             style="fill:#ffffff;fill-rule:evenodd;stroke:#000000;stroke-width:1px;stroke-linecap:butt;stroke-linejoin:miter;stroke-opacity:1"
             inkscape:connector-curvature="0" />
          <path
             transform="matrix(1,0,0,-1,0,580)"
             style="fill:#ffffff;fill-rule:evenodd;stroke:#000000;stroke-width:1px;stroke-linecap:butt;stroke-linejoin:miter;stroke-opacity:1"
             d="m 725,290 50,100 75,0 -50,-100 -75,0 z"
             id="path4238"
             clip-path="url(#clipPath2415)"
             inkscape:connector-curvature="0" />
        </g>
        <path
           inkscape:connector-curvature="0"
           style="fill:#1a1a1a;fill-rule:evenodd;stroke:#1a1a1a;stroke-width:20;stroke-linecap:round;stroke-linejoin:round;stroke-miterlimit:4;stroke-opacity:1;stroke-dasharray:none"
           d="m 4798.447,-1833.1698 150,0 -150,-150 0,150 z"
           id="path4240" />
      </g>
      <path
         id="path4242"
         style="fill:#000000;fill-opacity:1;fill-rule:evenodd;stroke:none;display:inline"
         d="m 1459.8766,1212.3669 c 30.2086,73.6911 63.1842,116.9559 84.2162,140.9056 16.6058,18.9093 107.6077,102.9914 2.7227,234.3908 62.3153,-128.6588 39.8855,-204.9289 -71.5228,-251.9673 0,102.7742 0,179.8548 0,272.3516 3.4949,112.1696 -111.7421,119.0267 -139.8463,89.1933 -29.0286,-30.8146 39.416,-133.0415 124.4302,-99.4707 0,-82.2194 0,-236.3807 0,-385.4033 z"
         inkscape:connector-curvature="0" />
      <g
         style="display:inline"
         id="g25022"
         transform="matrix(2.0833334,0,0,2.0833334,-8768.7964,3091.4068)">
        <path
           d="m 4571.3354,-804.83848 v 85.6695 h 233.06 v -85.6695 h -233.06 z"
           id="path586"
           inkscape:connector-curvature="0"
           style="fill:#ffffff;fill-opacity:1;fill-rule:evenodd;stroke:none" />
        <path
           d="m 4635.3367,-771.66149 c 0,7.81 -6.77,14.14 -15.11,14.14 -8.35,0 -15.11,-6.33 -15.11,-14.14 0,-7.8 6.76,-14.13 15.11,-14.13 8.34,0 15.11,6.33 15.11,14.13 z"
           id="path590"
           inkscape:connector-curvature="0"
           style="fill:#00ffff;fill-opacity:1;fill-rule:evenodd;stroke:none" />
        <g
           transform="matrix(1.0404268,0,0,1,-192.85163,7.1989254)"
           id="g25016">
          <g
             id="g25012">
            <path
               sodipodi:nodetypes="cssccccc"
               d="m 4749.566,-731.52816 c 4.07,0 5.09,-6 17.3,-7 12.21,-1 35.62,2 38.67,8 3.05,6 0,88.95 0,88.95 l -226.95,1 c 0,0 166.91,-26.99 159.78,-39.98 -7.12,-12.99 -23.8152,-23.54249 -20.7552,-29.53249 3.05,-6 21.7752,-16.43751 31.9552,-21.43751 z"
               id="path593"
               inkscape:connector-curvature="0"
               style="fill:#000000;fill-opacity:1;fill-rule:evenodd;stroke:none" />
            <path
               sodipodi:nodetypes="ccccc"
               d="m 4578.917,-724.67816 c 2.879,-1.42 164.1799,-1.14376 164.1799,-1.14376 0,0 -54.6199,11.86376 -8.5599,35.89376 46.05,24.03 -155.62,48.64 -155.62,48.64 z"
               id="path581"
               inkscape:connector-curvature="0"
               style="fill:#00ffff;fill-opacity:1;fill-rule:evenodd;stroke:#000000;stroke-width:5.4000001;stroke-linejoin:bevel;stroke-miterlimit:4;stroke-opacity:1;stroke-dasharray:none" />
          </g>
          <path
             style="fill:#ffffff;fill-opacity:1;fill-rule:evenodd"
             inkscape:connector-curvature="0"
             id="path591"
             d="m 4604.826,-722.67816 c 5.76,0 18.71,7.06 14.39,8.48 -4.32,1.41 -20.149,5.65 -11.51,8.48 8.63,2.83 23.03,2.83 15.83,7.07 -7.2,4.24 -14.39,8.48 -10.08,9.89 4.32,1.41 12.96,9.89 20.15,5.65 7.2,-4.24 5.76,-9.89 0,-12.72 -5.75,-2.82 -18.71,-4.24 -11.51,-8.48 7.2,-4.24 25.91,0 24.47,-5.65 -1.44,-5.66 -10.08,-2.83 -17.27,-4.24 -7.2,-1.42 30.22,-5.66 21.59,-7.07 -8.64,-1.41 -43.18,0 -46.06,-1.41 z" />
        </g>
        <rect
           y="-803.93152"
           x="4571.1318"
           height="169.88678"
           width="234.58092"
           id="rect25010"
           style="fill:none;stroke:#000000;stroke-width:5.4190793;stroke-miterlimit:4;stroke-opacity:1;stroke-dasharray:none" />
      </g>
    </g>
    <path
       style="display:inline;fill:#00ffff;fill-rule:nonzero;stroke:#ffffff;stroke-width:19.23357200999999961;stroke-miterlimit:4;stroke-opacity:1;stroke-dasharray:none;stroke-dashoffset:0"
       inkscape:connector-curvature="0"
       stroke-miterlimit="4"
       id="path5088"
       d="m 2674.2668,309.91064 c 81.6191,0 149.2528,60.29917 160.7562,138.74098 2.8772,-0.25599 5.7726,-0.42159 8.7121,-0.42159 56.1574,0 101.891,47.6833 103.1423,106.88943 9.382,-5.24057 20.161,-8.2437 31.6644,-8.2437 35.947,0 65.1547,29.20752 65.1547,65.15468 0,35.94753 -36.7809,75.36156 -72.7283,75.36156 -304.6611,0.9811 -507.0827,4.02172 -810.6885,2.04088 -40.8749,0 -78.2619,-19.38361 -78.2619,-60.2586 0,-40.87539 33.1792,-74.05482 74.0546,-74.05482 10.6568,0 20.7723,2.26513 29.9307,6.32361 16.5934,-27.4767 46.7101,-45.85669 81.1278,-45.85669 13.552,0 26.4664,2.87658 38.1279,8.00963 6.4957,-41.70472 42.5752,-73.67978 86.0925,-73.67978 34.3546,0 64.0768,19.90445 78.2702,48.8075 12.6925,-7.51281 27.1969,-12.33257 42.6716,-13.63025 -0.326,-4.20002 -0.5152,-8.41085 -0.5152,-12.69396 0,-89.68461 72.8042,-162.48888 162.4889,-162.48888 z" />
    <use
       x="0"
       y="0"
       xlink:href="#path4319"
       id="use3118"
       transform="matrix(1,0,0,-1,1200,1280)"
       width="1000"
       height="1000"
       style="display:inline;fill:#000000;fill-opacity:0.28502419000000001" />
    <path
       sodipodi:type="arc"
       style="fill:#ccddee;fill-opacity:1;fill-rule:nonzero;stroke:#0088ff;stroke-width:50;stroke-miterlimit:4;stroke-opacity:1;stroke-dasharray:none"
       id="path5102"
       sodipodi:cx="500"
       sodipodi:cy="491.42856"
       sodipodi:rx="454.28571"
       sodipodi:ry="454.28571"
       d="m 954.28571,491.42856 a 454.28571,454.28571 0 1 1 -908.571416,0 454.28571,454.28571 0 1 1 908.571416,0 z"
       transform="translate(1080,8.5714417)" />
    <path
       d="m -651.05607,497.39081 c -17.3948,17.9738 -35.948,31.01909 -55.6601,39.13625 -19.7137,8.11717 -40.0064,12.17594 -60.8782,12.17555 -22.61275,3.9e-4 -62.03892,-8.11677 -118.27807,-24.35149 -55.66088,-16.81376 -95.08666,-25.22045 -118.27776,-25.22084 -4.0591,3.9e-4 -8.4074,0.29147 -13.0453,0.86974 -4.6389,0.57983 -8.1175,0.86974 -10.4364,0.86974 41.16485,0 73.63312,-16.52385 97.40556,-49.57233 24.35032,-33.04809 36.52626,-71.0243 36.52665,-113.92942 -3.9e-4,-21.45197 -2.89951,-40.58504 -8.6966,-57.39958 -5.79864,-17.3932 -18.55402,-35.07709 -38.26652,-53.05128 -19.71366,-17.97302 -37.97699,-32.75778 -54.79036,-44.3539 -16.81453,-11.59534 -36.23793,-17.3932 -58.26933,-17.39398 -3.4793,7.8e-4 -18.2641,2.60961 -44.3543,7.82726 -25.5111,4.63898 -55.6605,22.6124 -90.4477,53.92062 -34.7879,30.72957 -52.1819,64.93731 -52.1815,102.62361 -4e-4,14.49524 2.8987,28.99009 8.697,43.48455 6.3773,13.91542 25.5104,35.36778 57.3996,64.3571 31.888,28.40987 47.8324,49.57232 47.8328,63.48735 -4e-4,13.91503 -15.9448,35.36739 -47.8328,64.35709 -31.8892,28.40988 -51.3122,50.73198 -58.2693,66.96592 -6.9579,16.23432 -10.4365,34.49804 -10.4361,54.79075 -4e-4,33.62792 9.8558,64.35671 29.5695,92.18715 19.7125,28.40949 43.1939,46.38329 70.4449,53.92063 27.8293,7.53733 52.7606,11.30581 74.7931,11.30581 25.5104,0 69.8647,-8.40708 133.06253,-25.22084 63.77649,-16.81415 108.42069,-25.22123 133.93222,-25.22123 4.058,0 8.4063,0 13.04568,0 6.3769,1.15965 11.0151,1.73948 13.915,1.73948 -19.1342,49.28241 -50.1529,84.6498 -93.05686,106.1022 -42.9055,22.0322 -93.34757,33.0481 -151.32617,33.0484 -47.5437,-3e-4 -98.2753,-6.378 -152.1956,-19.1334 -53.3416,-12.7554 -99.4349,-26.67041 -138.2809,-41.74508 -38.8463,-15.07468 -72.4742,-37.10687 -100.8841,-66.09618 -28.4099,-28.98971 -58.2693,-69.57552 -89.5779,-121.75667 -30.7292,-52.76137 -46.0938,-114.79916 -46.0938,-186.11377 0,-71.89404 21.7423,-143.20864 65.2268,-213.94381 43.4846,-70.73439 102.6232,-125.23485 177.4168,-163.50175 75.373,-38.265742 160.0224,-57.398802 253.9494,-57.399582 84.0696,7.8e-4 160.31233,20.87332 228.72859,62.617622 68.41474,41.74585 115.95804,87.2594 142.62924,136.54143 27.2494,48.70298 43.7733,82.62081 49.5723,101.75387 5.7971,18.55363 8.6958,35.9476 8.697,52.18115 0,14.49524 -2.3201,28.41027 -6.9575,41.74547 -4.6394,12.75538 -12.7566,25.22123 -24.3515,37.39639"
       style="font-size:223.78775024px;font-style:normal;font-variant:normal;font-weight:bold;font-stretch:normal;text-align:start;line-height:125%;letter-spacing:0px;word-spacing:0px;writing-mode:lr-tb;text-anchor:start;fill:#0088ff;fill-opacity:1;stroke:none;font-family:Blurfont;-inkscape-font-specification:Blurfont Bold"
       id="path5132"
       inkscape:connector-curvature="0" />
    <rect
       style="display:inline;fill:#ccddee;fill-opacity:1;fill-rule:nonzero;stroke:none"
       id="rect5104"
       width="1000"
       height="1000"
       x="0"
       y="1462.8572" />
  </g>
  <g
     inkscape:groupmode="layer"
     id="layer10"
     inkscape:label="LOGO"
     style="display:none">
    <path
       inkscape:connector-curvature="0"
       id="path3485"
       style="font-size:223.78775024px;font-style:normal;font-variant:normal;font-weight:bold;font-stretch:normal;text-align:start;line-height:125%;letter-spacing:0px;word-spacing:0px;writing-mode:lr-tb;text-anchor:start;fill:#0088ff;fill-opacity:1;stroke:none;font-family:Blurfont;-inkscape-font-specification:Blurfont Bold"
       d="m 931.80107,497.39081 c -17.3948,17.9738 -35.948,31.01909 -55.6601,39.13625 -19.7137,8.11717 -40.0064,12.17594 -60.8782,12.17555 -22.61275,3.9e-4 -62.03892,-8.11677 -118.27807,-24.35149 -55.66088,-16.81376 -95.08666,-25.22045 -118.27772,-25.22084 -4.05916,3.9e-4 -8.40746,0.29147 -13.04529,0.86974 -4.63899,0.57983 -8.11755,0.86974 -10.43646,0.86974 41.16486,0 73.63313,-16.52385 97.40557,-49.57233 24.35032,-33.04809 36.52626,-71.0243 36.52665,-113.92942 -3.9e-4,-21.45197 -2.89951,-40.58504 -8.6966,-57.39958 -5.79864,-17.3932 -18.55402,-35.07709 -38.26652,-53.05128 -19.71366,-17.97302 -37.97699,-32.75778 -54.79036,-44.3539 -16.81454,-11.59534 -1.9522,-73.10749 -23.98361,-73.10827 -3.47934,7.8e-4 -52.54981,58.3239 -78.64,63.54155 -25.51114,4.63898 -69.9462,65.46954 -104.73338,96.77776 -15.59506,14.56713 -32.22969,22.12816 -43.34098,50.72309 -3.9e-4,14.49524 14.40481,48.135 20.20306,62.62946 6.3773,13.91542 19.44944,25.26625 51.33866,54.25557 31.88805,28.40987 47.83246,49.57232 47.83285,63.48735 -3.9e-4,13.91503 -15.9448,35.36739 -47.83285,64.35709 -31.88922,28.40988 -51.31219,50.73198 -58.26932,66.96592 -6.9579,16.23432 -10.43646,34.49804 -10.43607,54.79075 -3.9e-4,33.62792 9.85586,64.35671 29.56952,92.18715 29.73324,18.56522 -35.94386,29.6682 -69.85357,32.953 -16.6304,1.61097 -12.97371,23.0397 -8.00116,26.90887 11.9592,9.30552 120.34562,6.92799 148.2996,7.63019 74.13129,2.20099 149.62997,-12.11624 207.85565,-27.48646 63.77649,-16.81415 108.42069,-25.22123 133.93222,-25.22123 4.058,0 8.4063,0 13.04568,0 6.3769,1.15965 11.0151,1.73948 13.915,1.73948 -19.1342,49.28241 -50.1529,84.6498 -93.05686,106.1022 -42.9055,22.0322 -93.34757,33.0481 -151.32619,33.0484 -47.54372,-3e-4 -98.27531,-6.378 -152.19555,-19.1334 C 358.38509,902.95632 312.29171,889.04131 273.44576,873.96664 234.59942,858.89196 200.9715,836.85977 172.56163,807.87046 144.15175,778.88075 114.29231,738.29494 82.9837,686.11379 52.25452,633.35242 36.88993,571.31463 36.88993,500.00002 c 0,-71.89404 21.74228,-143.20864 65.22683,-213.94381 43.48455,-70.73439 102.62322,-125.23485 177.41677,-163.50175 75.373,-38.265742 160.02241,-57.398802 253.94942,-57.399582 84.06959,7.8e-4 160.31232,20.87332 228.72858,62.617622 68.41474,41.74585 115.95804,87.2594 142.62924,136.54143 27.2494,48.70298 43.7733,82.62081 49.5723,101.75387 5.7971,18.55363 8.6958,35.9476 8.697,52.18115 0,14.49524 -2.3201,28.41027 -6.9575,41.74547 -4.6394,12.75538 -12.7566,25.22123 -24.3515,37.39639"
       sodipodi:nodetypes="cccccccccccccccccccccccssccscccccsscsscccccccc" />
  </g>
  <g
     inkscape:groupmode="layer"
     id="layer8"
     inkscape:label="Medias"
     style="display:none">
    <path
       style="fill:#00ffff"
       d="m 225,500 0,-325.00009 274.9999,0 275.0001,0 0,325.00009 0,325.00009 -275.0001,0 -274.9999,0 L 225,500 z m 99.99996,249.99991 c 0,-13.74996 -16.87504,-25 -37.50008,-25 -20.62485,0 -37.49988,11.25004 -37.49988,25 0,13.75018 16.87503,25.00019 37.49988,25.00019 20.62504,0 37.50008,-11.25001 37.50008,-25.00019 z m 325.0001,-99.99996 0,-124.99995 -150.00015,0 -149.99994,0 0,124.99995 0,125.00015 149.99994,0 150.00015,0 0,-125.00016 z m 99.99996,99.99996 c 0,-13.74996 -16.87504,-25 -37.5001,-25 -20.62483,0 -37.49988,11.25004 -37.49988,25 0,13.75018 16.87504,25.00019 37.49988,25.00019 20.62505,0 37.5001,-11.25001 37.5001,-25.00019 z M 324.99996,649.99995 c 0,-13.74996 -16.87504,-25 -37.50008,-25 -20.62485,0 -37.49988,11.25004 -37.49988,25 0,13.74996 16.87503,24.99999 37.49988,24.99999 20.62504,0 37.50008,-11.25002 37.50008,-24.99999 z m 425.00006,0 c 0,-13.74996 -16.87504,-25 -37.5001,-25 -20.62483,0 -37.49988,11.25004 -37.49988,25 0,13.74996 16.87504,24.99999 37.49988,24.99999 20.62505,0 37.5001,-11.25002 37.5001,-24.99999 z M 324.99996,549.99999 C 324.99996,536.25003 308.12492,525 287.49988,525 266.87503,525 250,536.25003 250,549.99999 c 0,13.74996 16.87503,24.99999 37.49988,24.99999 20.62504,0 37.50008,-11.25002 37.50008,-24.99999 z m 425.00006,0 C 750.00002,536.25003 733.12498,525 712.49992,525 c -20.62483,0 -37.49988,11.25003 -37.49988,24.99999 0,13.74996 16.87504,24.99999 37.49988,24.99999 20.62505,0 37.5001,-11.25002 37.5001,-24.99999 z M 324.99996,450.00003 c 0,-13.74997 -16.87504,-25 -37.50008,-25 -20.62485,0 -37.49988,11.25003 -37.49988,25 0,13.74996 16.87503,24.99998 37.49988,24.99998 20.62504,0 37.50008,-11.25002 37.50008,-24.99998 z m 325.0001,-100.00017 0,-124.99996 -150.00015,0 -149.99994,0 0,124.99996 0,125.00015 149.99994,0 150.00015,0 0,-125.00015 z m 99.99996,100.00018 c 0,-13.74998 -16.87504,-25 -37.5001,-25 -20.62483,0 -37.49988,11.25002 -37.49988,25 0,13.74996 16.87504,24.99998 37.49988,24.99998 20.62505,0 37.5001,-11.25002 37.5001,-24.99998 z M 324.99996,349.99986 c 0,-13.74996 -16.87504,-25 -37.50008,-25 -20.62485,0 -37.49988,11.25004 -37.49988,25 0,13.75016 16.87503,25.00018 37.49988,25.00018 20.62504,0 37.50008,-11.25002 37.50008,-25.00018 z m 425.00006,0 c 0,-13.74996 -16.87504,-25 -37.5001,-25 -20.62483,0 -37.49988,11.25004 -37.49988,25 0,13.75016 16.87504,25.00018 37.49988,25.00018 20.62505,0 37.5001,-11.25002 37.5001,-25.00018 z M 324.99996,249.9999 c 0,-13.74997 -16.87504,-25 -37.50008,-25 -20.62485,0 -37.49988,11.25003 -37.49988,25 0,13.74996 16.87503,24.99998 37.49988,24.99998 20.62504,0 37.50008,-11.25002 37.50008,-24.99998 z m 425.00006,0 c 0,-13.74997 -16.87504,-25 -37.5001,-25 -20.62483,0 -37.49988,11.25003 -37.49988,25 0,13.74996 16.87504,24.99998 37.49988,24.99998 20.62505,0 37.5001,-11.25002 37.5001,-24.99998 z"
       id="path5049"
       inkscape:connector-curvature="0" />
  </g>
  <g
     inkscape:groupmode="layer"
     id="layer9"
     inkscape:label="Pad"
     style="display:none">
    <path
       sodipodi:nodetypes="ccccccccccccccc"
       inkscape:connector-curvature="0"
       id="path4597"
       d="m 250,502.46174 0,-320.71285 157.89478,0 152.1234,0 c 0,63.04466 0,126.08929 0,189.13394 l 189.98182,0 0,223.68413 0,223.68415 -250.00013,0 -249.99987,0 z M 585.93014,181.74889 750,344.97087 l -164.06986,0 c 0,-52.9003 0,-110.32166 0,-163.22198 z"
       style="fill:#00ffff;display:inline" />
  </g>
  <g
     inkscape:groupmode="layer"
     id="layer7"
     inkscape:label="Settings"
     style="display:none">
    <g
       transform="matrix(2.0220397,0,0,2.0220397,-4239.0602,351.19783)"
       id="g20497"
       style="fill:none;stroke:#00ffff;stroke-opacity:1;display:inline;enable-background:new">
      <path
         inkscape:connector-curvature="0"
         id="path19641"
         class="fil0 str0"
         d="m 2276.547,103.12348 c 55.5988,0 100.6883,-45.089201 100.6883,-100.6883492 0,-55.5988128 -45.0895,-100.6883448 -100.6883,-100.6883448 -55.5992,0 -100.6887,45.089532 -100.6887,100.6883448 0,55.5991482 45.0895,100.6883492 100.6887,100.6883492 z m -20.5972,-79.256839 -23.8597,41.436956 c 0,0 -6.0951,8.921116 -16.4865,1.479317 -11.169,-7.998762 -25.7154,-31.370097 -25.4816,-45.432485 0.1333,-8.177941 4.8613,-10.418519 11.6001,-10.461723 12.7395,-0.08205 45.9576,-0.08071 45.9576,-0.08071 6.6223,-0.01072 11.3905,6.509397 8.2701,13.058649 z m 49.3061,-28.4673929 47.8154,0.055261 c 0,0 10.7742,-0.8165215 9.5239,-13.5372421 -1.342,-13.672883 -14.3095,-37.955855 -26.6036,-44.78543 -7.1497,-3.972086 -11.4547,-0.998715 -14.8608,4.816405 -6.4411,10.990887 -23.0495,39.759034 -23.0495,39.759034 -3.3213,5.731391 -0.058,13.121278 7.1746,13.6919722 l 0,0 z m -57.3083,-0.3452968 -47.816,0.055261 c 0,0 -10.7736,-0.8178611 -9.5243,-13.5379123 1.343,-13.672212 14.3092,-37.955185 26.6049,-44.784425 7.1488,-3.973425 11.4538,-0.999385 14.8602,4.8154 6.4414,10.991557 23.0491,39.760374 23.0491,39.760374 3.3204,5.729046 0.057,13.1192685 -7.1739,13.6913024 z m 49.3058,28.4667237 23.86,41.436955 c 0,0 6.0948,8.922121 16.4862,1.479652 11.1694,-7.999096 25.715,-31.370432 25.4829,-45.432819 -0.1346,-8.176937 -4.8623,-10.419189 -11.6014,-10.461723 -12.7388,-0.08205 -45.957,-0.08138 -45.957,-0.08138 -6.6236,-0.01038 -11.3917,6.510737 -8.2707,13.059319 l 0,0 z m -28.601,7.781737 -23.9564,41.382364 c 0,0 -4.6785,9.738643 6.9625,15.016895 12.5124,5.673785 40.0253,6.585087 52.0869,-0.64739 7.0148,-4.205856 6.5928,-9.420474 3.2601,-15.278128 -6.2984,-11.073611 -22.9082,-39.840753 -22.9082,-39.840753 -3.3026,-5.740768 -11.3342,-6.610206 -15.4449,-0.632988 l 0,0 z m 0,-56.933112 -23.9564,-41.382699 c 0,0 -4.6775,-9.738643 6.9625,-15.016894 12.5121,-5.673116 40.025,-6.585758 52.0866,0.648394 7.0154,4.204516 6.5924,9.419134 3.26,15.277123 -6.2987,11.073946 -22.9081,39.841088 -22.9081,39.841088 -3.3016,5.740098 -11.3335,6.608866 -15.4446,0.632988 l 0,0 z m 3.4443,15.8401138 c -6.7506,2.4565975 -10.2327,9.92485478 -7.7754,16.6760603 2.4562,6.7505359 9.9248,10.2326409 16.6757,7.7753739 6.7505,-2.456263 10.2326,-9.9248549 7.7754,-16.6757254 -2.4563,-6.7505357 -9.9245,-10.2326416 -16.6757,-7.7757088 z"
         style="fill:#00ffff;fill-rule:evenodd;stroke:#ffffff;stroke-width:2.5;stroke-miterlimit:4;stroke-opacity:1;stroke-dasharray:none">
        <metadata
           id="metadata19643">
          <odm
             name="Comments"
             value=""
             type="0"
             id="odm19645" />
        </metadata>
      </path>
      <path
         inkscape:connector-curvature="0"
         id="path19647"
         class="fil0 str0"
         d="m 2276.547,114.7785 c 2.6415,0 5.2615,-0.0918 7.8574,-0.27128 l 7.0342,16.7484 7.0121,-1.29043 0,0.003 8.1977,-1.50644 0.6092,-17.93835 c 8.3628,-2.37287 16.3301,-5.6902 23.7762,-9.83008 l 13.4465,12.19993 5.8098,-4.13284 0,0.003 6.7924,-4.83115 -7.0419,-16.546109 c 6.5345,-5.659384 12.4106,-12.060269 17.4956,-19.071703 l 17.2843,5.355951 3.5189,-6.200606 0,0.002 4.1151,-7.248889 -13.3243,-11.973191 c 4.7598,-10.639897 7.9197,-22.152247 9.1579,-34.233281 l 17.5516,-3.714201 0.061,-8.334346 0,0 0.052,-7.1293239 -17.6617,-4.0082561 c -0.8945,-8.712799 -2.7881,-17.128865 -5.5596,-25.135664 l 14.3277,-10.775873 -3.466,-7.579449 0,0.0023 -2.966,-6.483609 -17.7089,3.833766 c -4.4577,-7.421705 -9.7477,-14.287116 -15.742,-20.464948 l 8.4639,-15.883653 -6.3442,-5.403844 0,0.0033 -5.4283,-4.622481 -14.4773,10.994898 c -7.0718,-4.783248 -14.7155,-8.784136 -22.8104,-11.873378 l 0.9542,-17.89147 -8.0343,-2.21613 0,0.005 -6.8735,-1.89562 -8.4458,16.02934 c -5.7435,-0.90761 -11.6303,-1.3842 -17.6286,-1.3842 -2.7299,0 -5.4357,0.0988 -8.117,0.29037 l -6.6869,-16.59534 -8.2181,1.38654 0,0.006 -7.0309,1.18627 -0.8774,18.04285 c -8.3719,2.39363 -16.3442,5.733727 -23.793,9.898388 l -13.0671,-12.207628 -6.8624,4.73 0,0.004 -5.8704,4.046768 6.844,16.759119 c -6.4451,5.605129 -12.2462,11.931328 -17.2749,18.855014 l -17.0907,-5.569962 -4.2203,7.186929 0,0.0027 -3.6101,6.148025 13.2968,12.305762 c -4.7715,10.647935 -7.9378,22.171001 -9.1793,34.2654319 l -17.6614,4.0079212 0.053,7.1299937 -0.01,0 0.061,8.3343462 17.5509,3.713531 c 0.8928,8.714139 2.7841,17.133889 5.5552,25.142028 l -14.2952,11.081984 3.0608,6.4394 0,0.002 3.5773,7.527872 17.4734,-4.05146 c 4.4256,7.370127 9.6704,14.190995 15.6117,20.336005 l -8.2774,16.093979 5.496,4.542783 0,0.003 6.4234,5.31074 14.0915,-11.030413 c 7.0761,4.806693 14.7252,8.829353 22.8294,11.938033 l -0.7006,18.09207 6.9006,1.79414 0,0.007 8.0664,2.09857 8.1237,-15.98211 c 5.806,0.92603 11.7575,1.41333 17.8241,1.41333 l 0,0 z m 0,-13.53624 c 54.5606,0 98.8065,-44.246216 98.8065,-98.8067942 0,-54.5605778 -44.2459,-98.8064608 -98.8065,-98.8064608 -54.5606,0 -98.8068,44.245883 -98.8068,98.8064608 0,54.5605782 44.2462,98.8067942 98.8068,98.8067942 z"
         style="fill:#00ffff;fill-rule:evenodd;stroke:#ffffff;stroke-width:2.5;stroke-miterlimit:4;stroke-opacity:1;stroke-dasharray:none" />
      <path
         inkscape:connector-curvature="0"
         id="path19649"
         class="fil1 str0"
         d="m 2419.1177,248.13139 c 42.0338,11.26384 85.2565,-13.68963 96.5204,-55.72341 11.2638,-42.03343 -13.6897,-85.25649 -55.7234,-96.520331 -42.0335,-11.263842 -85.2565,13.689631 -96.5204,55.723401 -11.2638,42.03377 13.6897,85.25649 55.7234,96.52034 l 0,0 z m 0.485,-64.09225 -26.4331,26.49307 c 0,0 -6.4153,5.51002 -12.7636,-2.22115 -6.8236,-8.31023 -13.0861,-28.92622 -10.0605,-39.51019 1.7576,-6.15573 5.786,-6.89187 10.8894,-5.55925 9.6479,2.5189 34.7611,9.24967 34.7611,9.24967 5.0086,1.33363 7.2928,7.2288 3.6067,11.54785 l 0,0 z m 43.0432,-11.53278 36.1379,9.72893 c 0,0 8.3109,1.56539 9.943,-8.30487 1.7553,-10.60875 -3.1288,-31.59416 -11.0395,-39.24796 -4.6007,-4.45168 -8.4576,-3.07585 -12.211,0.63031 -7.0961,7.0044 -25.4802,25.38886 -25.4802,25.38886 -3.6724,3.65995 -2.7021,9.90811 2.6498,11.80473 z m -43.2559,-11.87104 -36.1607,-9.6452 c 0,0 -7.979,-2.80089 -4.4577,-12.16443 3.7852,-10.06451 18.5074,-25.79578 29.1864,-28.46773 6.2097,-1.55601 8.8616,1.56472 10.2591,6.65107 2.6429,9.61472 9.3703,34.72862 9.3703,34.72862 1.3497,5.00396 -2.6144,9.93021 -8.1974,8.89767 z m 31.5091,31.51009 9.6435,36.16071 c 0,0 2.8003,7.98001 12.1641,4.45872 10.0649,-3.78453 25.7965,-18.50704 28.4698,-29.18545 1.5546,-6.20898 -1.5651,-8.86184 -6.6514,-10.25943 -9.6141,-2.64281 -34.7277,-9.37191 -34.7277,-9.37191 -5.0052,-1.35004 -9.9315,2.61434 -8.8983,8.19736 z m -23.1995,0.0888 -26.4951,26.43212 c 0,0 -5.5097,6.41495 2.2215,12.76359 8.3102,6.82455 28.9255,13.08745 39.5098,10.06318 6.1551,-1.75864 6.8926,-5.78632 5.5596,-10.89008 -2.5182,-9.64788 -9.2473,-34.76144 -9.2473,-34.76144 -1.3336,-5.00898 -7.2298,-7.29343 -11.5485,-3.60737 l 0,0 z m 11.5341,-43.0422 -9.7276,-36.13928 c 0,0 -1.5634,-8.31023 8.3062,-9.94227 10.6084,-1.75428 31.5935,3.12978 39.2466,11.04213 4.4521,4.60039 3.0759,8.45693 -0.6303,12.21031 -7.0054,7.09584 -25.3905,25.47963 -25.3905,25.47963 -3.6589,3.67066 -9.9071,2.70041 -11.8044,-2.65052 l 0,0 z m -0.6052,12.67317 c -5.6011,0.48964 -9.7467,5.4303 -9.2567,11.03208 0.4897,5.60111 5.4303,9.74668 11.0321,9.2567 5.6011,-0.48965 9.7467,-5.4303 9.2567,-11.03208 -0.4897,-5.60111 -5.4303,-9.74668 -11.0321,-9.2567 l 0,0 z"
         style="fill:#000000;fill-rule:evenodd;stroke:#ffffff;stroke-width:2.5;stroke-miterlimit:4;stroke-opacity:1;stroke-dasharray:none">
        <metadata
           id="metadata19651">
          <odm
             name="Comments"
             value=""
             type="0"
             id="odm19653" />
        </metadata>
      </path>
      <path
         inkscape:connector-curvature="0"
         id="path19655"
         class="fil1 str0"
         d="m 2416.7767,256.95303 c 1.9971,0.5352 3.9965,0.99671 5.9953,1.38688 l 1.9251,14.08717 5.5626,0.44477 0,0.003 6.5027,0.5218 4.0946,-13.43811 c 6.8035,-0.0998 13.4988,-0.99369 19.967,-2.61501 l 7.694,11.9474 5.2296,-1.94753 0,0.003 6.1139,-2.27608 -1.9717,-13.93579 c 6.0868,-2.95495 11.8259,-6.6035 17.0907,-10.874 l 11.9819,7.55065 3.9165,-3.9751 0,0.003 4.5796,-4.6466 -7.6478,-11.75148 c 5.7542,-7.07942 10.4755,-15.14282 13.8588,-24.02576 l 14.0215,0.7482 1.7345,-6.28869 0,-0.001 1.4836,-5.3794 -12.5405,-6.60819 c 1.0891,-6.76829 1.3624,-13.51481 0.8892,-20.12937 l 13.0151,-5.24409 -1.0848,-6.43237 0,6.7e-4 -0.9287,-5.50264 -14.1649,-0.68925 c -1.8665,-6.51375 -4.4748,-12.77599 -7.755,-18.66077 l 9.6168,-10.29359 -3.7018,-5.37069 0,0.002 -3.1673,-4.59402 -13.1728,5.37906 c -4.377,-5.04883 -9.3455,-9.62209 -14.8394,-13.59786 l 4.3458,-13.332608 -5.6249,-3.302926 0,0.0037 -4.8123,-2.825673 -9.6329,10.407131 c -4.1583,-1.849732 -8.5118,-3.402396 -13.0469,-4.6178 -2.0637,-0.552944 -4.1295,-1.026513 -6.1952,-1.424726 l -1.6934,-13.900959 -6.494,-0.616913 -3e-4,0.005 -5.5559,-0.52749 -4.3187,13.462556 c -6.8138,0.113871 -13.5178,1.023498 -19.9931,2.66324 l -7.4059,-11.876402 -6.146,2.185652 0,0.004 -5.2578,1.869827 1.7787,14.056695 c -6.008,2.931841 -11.6754,6.539539 -16.88,10.755106 l -11.7923,-7.673558 -4.6467,4.578608 0,0.003 -3.9748,3.91649 7.5594,11.9973 c -5.7646,7.08311 -10.4929,15.15354 -13.8816,24.04552 l -14.1642,-0.54825 -1.4046,5.40116 0,-10e-4 -1.6424,6.31313 12.5161,6.36304 c -1.0902,6.76896 -1.3665,13.51749 -0.8936,20.13339 l -13.0526,5.48188 1.0094,5.48824 0,0.001 1.1793,6.41562 14.0312,0.47726 c 1.8524,6.4682 4.4356,12.68756 7.6826,18.53684 l -9.5182,10.49053 3.2346,4.5478 0,0.002 3.7802,5.31643 12.8878,-5.48456 c 4.376,5.06759 9.3438,9.65826 14.8411,13.65044 l -4.1948,13.5359 4.8532,2.75434 0,0.003 5.6731,3.22087 9.3793,-10.43694 c 4.2021,1.87653 8.6026,3.45029 13.1889,4.67943 l 0,0 z m 2.7423,-10.23364 c 41.2487,11.05351 83.6633,-13.43342 94.7164,-54.68182 11.0536,-41.24873 -13.433,-83.66297 -54.6818,-94.716487 -41.2487,-11.053516 -83.6629,13.433417 -94.7165,54.681817 -11.0535,41.24873 13.4335,83.66297 54.6819,94.71649 l 0,0 z"
         style="fill:#000000;fill-rule:evenodd;stroke:#ffffff;stroke-width:2.5;stroke-miterlimit:4;stroke-opacity:1;stroke-dasharray:none" />
    </g>
  </g>
  <g
     inkscape:groupmode="layer"
     id="layer6"
     inkscape:label="Travaux"
     style="display:none">
    <path
       style="fill:#00ffff;fill-opacity:1;fill-rule:evenodd;stroke:#00ffff;stroke-width:3.6908977px;stroke-linecap:butt;stroke-linejoin:miter;stroke-opacity:1"
       d="m 512.56969,155.98153 c -34.8139,0 -63.0355,28.22156 -63.0355,63.03546 10e-5,34.81386 28.2216,63.03545 63.0355,63.03545 34.814,0 63.0356,-28.22159 63.0356,-63.03545 -2e-4,-34.8139 -28.2216,-63.03546 -63.0356,-63.03546 z m -143.6728,53.75817 -128.6784,1.30383 -16.298,0.15036 -6.8703,14.74338 -39.7168,85.05014 -10.4808,-9.72846 a 11.0738,11.0738 0 0 0 -8.0737,-3.05908 11.0738,11.0738 0 0 0 -7.0206,19.30688 l 15.7461,14.59285 -4.3125,9.17692 a 25.838867,25.838867 0 0 0 43.5781,27.23019 l 13.9913,12.93807 -51.1004,55.01193 a 40.603932,40.603932 0 0 0 -21.7641,35.30386 l -4.6638,147.73448 -40.0175,173.46041 a 40.603932,40.603932 0 1 0 79.0825,18.25371 l 41.0207,-177.52228 0.8526,-3.91151 0.1509,-3.96158 3.9615,-127.32467 24.0208,16.84957 69.0531,111.72871 -75.472,157.51333 a 40.603932,40.603932 0 1 0 73.2154,35.05321 l 85.1003,-177.52228 9.5783,-20.00894 -11.6343,-18.90555 -77.6284,-125.51936 30.0886,27.88203 a 25.853846,25.853846 0 0 0 26.9793,25.0237 l 199.1358,184.64323 c -13.5454,19.2366 -28.162,35.26054 -53.4571,34.35114 -61.9854,-2.10138 -48.3289,60.95373 -127.1241,92.47206 l 498.0153,0 c -26.2651,-70.39061 -58.0017,-21.42993 -93.5252,-62.03258 -6.4443,-80.34614 -64.0886,-85.05022 -64.0886,-85.05022 -58.8337,-52.53007 -49.2876,-41.61636 -77.7287,-42.02364 -35.3046,-0.4904 -53.6243,20.97643 -69.4544,43.82895 l -191.4636,-177.5222 a 25.853846,25.853846 0 0 0 0.3509,-0.55154 l 93.2242,-145.97956 a 25.838867,25.838867 0 0 0 -10.3302,-37.46029 l -90.2155,-106.2124 a 25.838867,25.838867 0 0 0 -26.0267,-19.3068 z m -36.9586,52.05314 -96.0827,103.45445 -18.7049,-17.35121 39.8672,-85.35095 74.9204,-0.75229 z m 93.8762,123.96471 -62.4336,97.73746 -37.8114,-35.05304 100.245,-62.68442 z"
       id="path22434"
       inkscape:connector-curvature="0" />
  </g>
  <g
     inkscape:groupmode="layer"
     id="layer5"
     inkscape:label="Cloud"
     style="display:none">
    <path
       d="m 591.40961,287.91064 c 119.93761,-8.57143 169.25289,82.29917 180.75629,160.74098 2.87715,-0.25599 5.77258,-0.42159 8.71204,-0.42159 56.15742,0 101.89101,47.6833 103.14234,106.88943 9.38194,-5.24057 20.16101,-8.2437 31.66441,-8.2437 35.94697,0 65.1547,29.20752 65.1547,65.15468 0,35.94753 -36.78093,75.36156 -72.72829,75.36156 -304.66111,0.9811 -507.08273,4.02172 -810.688506,2.04088 -40.874981,0 -78.261983,-19.38361 -78.261983,-60.2586 0,-40.87539 33.179268,-74.05482 74.054643,-74.05482 10.656756,0 20.772256,2.26513 29.930716,6.32361 16.59338,-27.4767 46.71006,-45.85669 81.12778,-45.85669 13.55198,0 26.46636,2.87658 38.12786,8.00963 6.49575,-41.70472 30.13868,-101.01295 90.09255,-113.67978 59.95387,-12.66683 116.42658,22.48329 116.42658,22.48329 0,0 22.55126,-135.91745 142.48887,-144.48888 z"
       id="path4319"
       stroke-miterlimit="4"
       inkscape:connector-curvature="0"
       style="fill:#00ffff;fill-rule:nonzero;stroke:#ffffff;stroke-width:19.23357201;stroke-miterlimit:4;stroke-opacity:1;stroke-dasharray:none;stroke-dashoffset:0;display:inline"
       sodipodi:nodetypes="zcscssccsscsczcz" />
  </g>
  <g
     inkscape:label="Mails"
     inkscape:groupmode="layer"
     id="layer1"
     transform="translate(0,-52.361892)"
     style="display:none">
    <path
       sodipodi:nodetypes="ccccccccccccccccccccccccccccc"
       inkscape:connector-curvature="0"
       id="path5085"
       d="m 125,269.43015 0,565.86349 750,0 0,-565.86348 z m 88.7868,52.31576 576.45789,0 -265.37595,267.11046 -0.0937,0 c -10.47904,10.56175 -36.44544,10.99832 -47.53423,-0.0938 l -0.0469,-0.0468 z m -36.42415,37.54924 189.57434,192.15264 -189.57434,193.74647 z m 645.32157,4.0315 0,381.77385 -188.02737,-192.52765 z m -419.0418,225.34221 36.37726,36.84604 0.0469,0.0468 c 33.54264,33.80187 88.64746,33.62541 121.83575,0.23439 0.0177,-0.018 0.076,-0.076 0.0937,-0.0937 l 35.76786,-36.00225 188.68366,193.23082 -572.8483,0 z"
       style="font-size:medium;font-style:normal;font-variant:normal;font-weight:normal;font-stretch:normal;text-indent:0;text-align:start;text-decoration:none;line-height:normal;letter-spacing:normal;word-spacing:normal;text-transform:none;direction:ltr;block-progression:tb;writing-mode:lr-tb;text-anchor:start;baseline-shift:baseline;color:#000000;fill:#00ffff;fill-opacity:1;stroke:none;stroke-width:30.65500069;marker:none;visibility:visible;display:inline;overflow:visible;enable-background:accumulate;font-family:Sans;-inkscape-font-specification:Sans" />
  </g>
  <g
     inkscape:groupmode="layer"
     id="layer2"
     inkscape:label="Telephone"
     style="display:none">
    <g
       id="g22384"
       transform="matrix(1.1888713,-1.1888713,1.1888713,1.1888713,2842.5253,4291.8566)"
       style="fill:#00ffff;stroke:#00ffff;stroke-opacity:1;display:inline;enable-background:new">
      <path
         id="path22390"
         style="fill:#00ffff;stroke:none"
         d="m 640.35437,-2681.2678 c 8.625,0 14.811,-7.027 14.811,-14.902 l 0.062,-0.062 c 0,0 -0.062,-107.0001 -0.062,-107.0631 0,-8.25 -6.686,-14.754 -14.811,-14.754 l -37.799,0 0,136.7811 c 0,0 37.707,0.058 37.738,0.027 l 0.061,-0.027 z m 0,339 c 8.625,0 14.811,-7.027 14.811,-14.902 l 0.062,-0.062 c 0,0 -0.062,-104 -0.062,-104.063 0,-8.25 -6.686,-14.754 -14.811,-14.754 l -37.799,0 0,133.781 c 0,0 37.707,0.058 37.738,0.027 l 0.061,-0.027 z m -48.246,-475.7811 c -22.379,2.504 -103.754,39.6981 -106.129,231.4791 -2.5,202.025 83.75,244.525 106.37,244.067 l 0,-133.436 c -18.62,0 -22.366,-20.275 -26.62,-62.106 -2.814,-27.679 -3.634,-61.942 0,-96 2.552,-23.897 7,-47.223 26.5,-47.223 l -0.121,-136.7811 z"
         inkscape:connector-curvature="0" />
    </g>
  </g>
  <g
     inkscape:groupmode="layer"
     id="layer4"
     inkscape:label="Chat"
     style="display:none">
    <g
       id="g22378"
       transform="matrix(1.7316988,0,0,1.7316988,-5653.8176,-2120.8869)"
       style="fill:none;stroke:#00ffff;stroke-opacity:1;display:inline;enable-background:new">
      <path
         inkscape:connector-curvature="0"
         style="font-size:12px;fill:#ffffff;fill-rule:evenodd;stroke:#00ffff;stroke-width:15;stroke-linecap:round;stroke-linejoin:round;stroke-miterlimit:4;stroke-opacity:1;stroke-dasharray:none"
         d="m 3466.4872,1445.47 c -64.7754,1.0408 -121.9102,37.1382 -134.0404,88.3451 -13.8575,58.4982 36.2394,114.669 111.8388,125.426 0.016,0.09 -0.011,0.2234 -0.018,0.3522 l -0.4335,0.019 -58.9092,54.7869 121.0339,-56.8635 -1.1923,0.037 0.7768,-0.5933 1.7342,-0.056 -1.3187,0.6119 1.6619,-0.056 0,-0.5748 0.018,0 c 52.3717,-11.5366 89.0893,-42.7949 98.9045,-84.2291 13.8631,-58.5222 -36.2961,-114.7203 -111.9472,-125.4446 -9.4564,-1.3405 -18.8551,-1.91 -28.1088,-1.7613 z"
         id="path22380" />
      <path
         inkscape:connector-curvature="0"
         style="font-size:12px;fill:#ffffff;fill-rule:evenodd;stroke:#00ffff;stroke-width:20;stroke-linecap:round;stroke-linejoin:round;stroke-miterlimit:4;stroke-opacity:1;stroke-dasharray:none"
         d="m 3603.1442,1315.0844 c 81.4651,1.309 153.3208,46.707 168.5764,111.1075 17.4279,73.5705 -45.5766,144.2138 -140.6545,157.7424 -0.02,0.1133 0.014,0.281 0.023,0.443 l 0.5453,0.023 74.0872,68.903 -152.2185,-71.5146 1.4994,0.047 -0.9769,-0.7462 -2.181,-0.07 1.6585,0.7695 -2.0902,-0.07 0,-0.7229 -0.023,0 c -65.8655,-14.5089 -112.0434,-53.8209 -124.3875,-105.9309 -17.435,-73.6005 45.6478,-144.2783 140.7908,-157.7657 11.8928,-1.6859 23.7132,-2.4021 35.351,-2.2151 z"
         id="path22382" />
    </g>
  </g>
</svg>
