<?xml version="1.0" encoding="UTF-8" standalone="no"?>
<!-- Created with Inkscape (http://www.inkscape.org/) -->

<svg
   xmlns:dc="http://purl.org/dc/elements/1.1/"
   xmlns:cc="http://creativecommons.org/ns#"
   xmlns:rdf="http://www.w3.org/1999/02/22-rdf-syntax-ns#"
   xmlns:svg="http://www.w3.org/2000/svg"
   xmlns="http://www.w3.org/2000/svg"
   xmlns:sodipodi="http://sodipodi.sourceforge.net/DTD/sodipodi-0.dtd"
   xmlns:inkscape="http://www.inkscape.org/namespaces/inkscape"
   width="1000"
   height="1000"
   id="svg4817"
   version="1.1"
   inkscape:version="0.48.2 r9819"
   sodipodi:docname="Travaux.svg">
  <defs
     id="defs4819">
    <clipPath
       id="clipPath2415"
       clipPathUnits="userSpaceOnUse">
      <rect
         y="240"
         x="725"
         height="175"
         width="75"
         id="rect2417"
         style="fill:#ffffff;fill-opacity:1;fill-rule:nonzero;stroke:none" />
    </clipPath>
    <clipPath
       id="clipPath3509"
       clipPathUnits="userSpaceOnUse">
      <rect
         y="240"
         x="725"
         height="175"
         width="75"
         id="rect3511"
         style="fill:#ffffff;fill-opacity:1;fill-rule:nonzero;stroke:none" />
    </clipPath>
  </defs>
  <sodipodi:namedview
     id="base"
     pagecolor="#ffffff"
     bordercolor="#666666"
     borderopacity="1.0"
     inkscape:pageopacity="0.0"
     inkscape:pageshadow="2"
     inkscape:zoom="0.175"
     inkscape:cx="275.40611"
     inkscape:cy="319.15894"
     inkscape:document-units="px"
     inkscape:current-layer="layer6"
     showgrid="false"
     width="372.05px"
     inkscape:window-width="1278"
     inkscape:window-height="756"
     inkscape:window-x="0"
     inkscape:window-y="0"
     inkscape:window-maximized="0" />
  <metadata
     id="metadata4822">
    <rdf:RDF>
      <cc:Work
         rdf:about="">
        <dc:format>image/svg+xml</dc:format>
        <dc:type
           rdf:resource="http://purl.org/dc/dcmitype/StillImage" />
        <dc:title />
      </cc:Work>
    </rdf:RDF>
  </metadata>
  <g
     inkscape:groupmode="layer"
     id="layer6"
     inkscape:label="Travaux"
     style="display:inline">
    <path
       style="fill:#ff0000;fill-opacity:1;fill-rule:evenodd;stroke:none;stroke-width:3.69089769999999984px;stroke-linecap:butt;stroke-linejoin:miter;stroke-opacity:1"
       d="m 512.56969,155.98153 c -34.8139,0 -63.0355,28.22156 -63.0355,63.03546 10e-5,34.81386 28.2216,63.03545 63.0355,63.03545 34.814,0 63.0356,-28.22159 63.0356,-63.03545 -2e-4,-34.8139 -28.2216,-63.03546 -63.0356,-63.03546 z m -143.6728,53.75817 -128.6784,1.30383 -16.298,0.15036 -6.8703,14.74338 -39.7168,85.05014 -10.4808,-9.72846 a 11.0738,11.0738 0 0 0 -8.0737,-3.05908 11.0738,11.0738 0 0 0 -7.0206,19.30688 l 15.7461,14.59285 -4.3125,9.17692 a 25.838867,25.838867 0 0 0 43.5781,27.23019 l 13.9913,12.93807 -51.1004,55.01193 a 40.603932,40.603932 0 0 0 -21.7641,35.30386 l -4.6638,147.73448 -40.0175,173.46041 a 40.603932,40.603932 0 1 0 79.0825,18.25371 l 41.0207,-177.52228 0.8526,-3.91151 0.1509,-3.96158 3.9615,-127.32467 24.0208,16.84957 69.0531,111.72871 -75.472,157.51333 a 40.603932,40.603932 0 1 0 73.2154,35.05321 l 85.1003,-177.52228 9.5783,-20.00894 -11.6343,-18.90555 -77.6284,-125.51936 30.0886,27.88203 a 25.853846,25.853846 0 0 0 26.9793,25.0237 l 199.1358,184.64323 c -13.5454,19.2366 -28.162,35.26054 -53.4571,34.35114 -61.9854,-2.10138 -48.3289,60.95373 -127.1241,92.47206 l 498.0153,0 c -26.2651,-70.39061 -58.0017,-21.42993 -93.5252,-62.03258 -6.4443,-80.34614 -64.0886,-85.05022 -64.0886,-85.05022 -58.8337,-52.53007 -49.2876,-41.61636 -77.7287,-42.02364 -35.3046,-0.4904 -53.6243,20.97643 -69.4544,43.82895 l -191.4636,-177.5222 a 25.853846,25.853846 0 0 0 0.3509,-0.55154 l 93.2242,-145.97956 a 25.838867,25.838867 0 0 0 -10.3302,-37.46029 l -90.2155,-106.2124 a 25.838867,25.838867 0 0 0 -26.0267,-19.3068 z m -36.9586,52.05314 -96.0827,103.45445 -18.7049,-17.35121 39.8672,-85.35095 74.9204,-0.75229 z m 93.8762,123.96471 -62.4336,97.73746 -37.8114,-35.05304 100.245,-62.68442 z"
       id="path22434"
       inkscape:connector-curvature="0" />
  </g>
</svg>
