<?xml version="1.0" encoding="UTF-8" standalone="no"?>
<!-- Created with Inkscape (http://www.inkscape.org/) -->

<svg
   xmlns:dc="http://purl.org/dc/elements/1.1/"
   xmlns:cc="http://creativecommons.org/ns#"
   xmlns:rdf="http://www.w3.org/1999/02/22-rdf-syntax-ns#"
   xmlns:svg="http://www.w3.org/2000/svg"
   xmlns="http://www.w3.org/2000/svg"
   xmlns:sodipodi="http://sodipodi.sourceforge.net/DTD/sodipodi-0.dtd"
   xmlns:inkscape="http://www.inkscape.org/namespaces/inkscape"
   width="1000"
   height="1000"
   id="svg4817"
   version="1.1"
   inkscape:version="0.48.4 r9939"
   sodipodi:docname="media.svg"
   inkscape:export-filename="/Users/Zexclu_zif/Documents/Zexclu_zif/8___Web/2014-08-31 Eauchat/datas/Services_LOGOS--.png"
   inkscape:export-xdpi="9"
   inkscape:export-ydpi="9">
  <defs
     id="defs4819">
    <clipPath
       id="clipPath2415"
       clipPathUnits="userSpaceOnUse">
      <rect
         y="240"
         x="725"
         height="175"
         width="75"
         id="rect2417"
         style="fill:#ffffff;fill-opacity:1;fill-rule:nonzero;stroke:none" />
    </clipPath>
    <clipPath
       id="clipPath3509"
       clipPathUnits="userSpaceOnUse">
      <rect
         y="240"
         x="725"
         height="175"
         width="75"
         id="rect3511"
         style="fill:#ffffff;fill-opacity:1;fill-rule:nonzero;stroke:none" />
    </clipPath>
  </defs>
  <sodipodi:namedview
     id="base"
     pagecolor="#ffffff"
     bordercolor="#666666"
     borderopacity="1.0"
     inkscape:pageopacity="0.0"
     inkscape:pageshadow="2"
     inkscape:zoom="0.24748737"
     inkscape:cx="357.99944"
     inkscape:cy="31.884097"
     inkscape:document-units="px"
     inkscape:current-layer="layer8"
     showgrid="false"
     width="372.05px"
     inkscape:window-width="1280"
     inkscape:window-height="776"
     inkscape:window-x="0"
     inkscape:window-y="24"
     inkscape:window-maximized="1"
     inkscape:object-nodes="true"
     inkscape:snap-smooth-nodes="true"
     inkscape:snap-page="true"
     inkscape:snap-global="true"
     inkscape:snap-bbox="true" />
  <metadata
     id="metadata4822">
    <rdf:RDF>
      <cc:Work
         rdf:about="">
        <dc:format>image/svg+xml</dc:format>
        <dc:type
           rdf:resource="http://purl.org/dc/dcmitype/StillImage" />
        <dc:title />
      </cc:Work>
    </rdf:RDF>
  </metadata>
  <g
     inkscape:groupmode="layer"
     id="layer8"
     inkscape:label="Medias"
     style="display:inline">
    <path
       style="fill:#0088ff;fill-opacity:1"
       d="M 225 175 L 225 500 L 225 825 L 500 825 L 775 825 L 775 500 L 775 175 L 500 175 L 225 175 z M 255.15625 225 L 322.28125 225 L 322.28125 266.40625 L 255.15625 266.40625 L 255.15625 225 z M 350 225 L 500 225 L 650 225 L 650 350 L 650 475 L 500 475 L 350 475 L 350 350 L 350 225 z M 677.71875 225 L 744.84375 225 L 744.84375 266.40625 L 677.71875 266.40625 L 677.71875 225 z M 255.15625 326.40625 L 322.28125 326.40625 L 322.28125 367.8125 L 255.15625 367.8125 L 255.15625 326.40625 z M 677.71875 326.40625 L 744.84375 326.40625 L 744.84375 367.8125 L 677.71875 367.8125 L 677.71875 326.40625 z M 255.15625 427.78125 L 322.28125 427.78125 L 322.28125 469.1875 L 255.15625 469.1875 L 255.15625 427.78125 z M 677.71875 427.78125 L 744.84375 427.78125 L 744.84375 469.1875 L 677.71875 469.1875 L 677.71875 427.78125 z M 350 525 L 500 525 L 650 525 L 650 650 L 650 775 L 500 775 L 350 775 L 350 650 L 350 525 z M 255.15625 529.1875 L 322.28125 529.1875 L 322.28125 570.59375 L 255.15625 570.59375 L 255.15625 529.1875 z M 677.71875 529.1875 L 744.84375 529.1875 L 744.84375 570.59375 L 677.71875 570.59375 L 677.71875 529.1875 z M 255.15625 630.59375 L 322.28125 630.59375 L 322.28125 672 L 255.15625 672 L 255.15625 630.59375 z M 677.71875 630.59375 L 744.84375 630.59375 L 744.84375 672 L 677.71875 672 L 677.71875 630.59375 z M 255.15625 732 L 322.28125 732 L 322.28125 773.375 L 255.15625 773.375 L 255.15625 732 z M 677.71875 732 L 744.84375 732 L 744.84375 773.375 L 677.71875 773.375 L 677.71875 732 z "
       id="path5049" />
    <path
       style="fill:#ffc0ff;fill-opacity:1"
       d="m 1104.5469,225 0,62.625 80.0625,0 0,-62.625 -80.0625,0 z m 424.0625,0 0,62.625 80.0625,0 0,-62.625 -80.0625,0 z m -424.0625,97.46875 0,62.625 80.0625,0 0,-62.625 -80.0625,0 z m 424.0625,0 0,62.625 80.0625,0 0,-62.625 -80.0625,0 z m -424.0625,97.46875 0,62.625 80.0625,0 0,-62.625 -80.0625,0 z m 424.0625,0 0,62.625 80.0625,0 0,-62.625 -80.0625,0 z m -424.0625,97.5 0,62.625 80.0625,0 0,-62.625 -80.0625,0 z m 424.0625,0 0,62.625 80.0625,0 0,-62.625 -80.0625,0 z m -424.0625,97.46875 0,62.625 80.0625,0 0,-62.625 -80.0625,0 z m 424.0625,0 0,62.625 80.0625,0 0,-62.625 -80.0625,0 z m -424.0625,97.46875 0,62.625 80.0625,0 0,-62.625 -80.0625,0 z m 424.0625,0 0,62.625 80.0625,0 0,-62.625 -80.0625,0 z"
       id="rect2987"
       inkscape:connector-curvature="0" />
    <path
       inkscape:connector-curvature="0"
       id="path2999"
       d="m -785.15254,500 0,-325.00009 274.9999,0 275.0001,0 0,325.00009 0,325.00009 -275.0001,0 -274.9999,0 0,-325.00009 z m 99.99996,249.99991 c 0,-13.74996 -16.87504,-25 -37.50008,-25 -20.62485,0 -37.49988,11.25004 -37.49988,25 0,13.75018 16.87503,25.00019 37.49988,25.00019 20.62504,0 37.50008,-11.25001 37.50008,-25.00019 z m 325.0001,-99.99996 0,-124.99995 -150.00015,0 -149.99994,0 0,124.99995 0,125.00015 149.99994,0 150.00015,0 0,-125.00016 z m 99.99996,99.99996 c 0,-13.74996 -16.87504,-25 -37.5001,-25 -20.62483,0 -37.49988,11.25004 -37.49988,25 0,13.75018 16.87504,25.00019 37.49988,25.00019 20.62505,0 37.5001,-11.25001 37.5001,-25.00019 z m -425.00006,-99.99996 c 0,-13.74996 -16.87504,-25 -37.50008,-25 -20.62485,0 -37.49988,11.25004 -37.49988,25 0,13.74996 16.87503,24.99999 37.49988,24.99999 20.62504,0 37.50008,-11.25002 37.50008,-24.99999 z m 425.00006,0 c 0,-13.74996 -16.87504,-25 -37.5001,-25 -20.62483,0 -37.49988,11.25004 -37.49988,25 0,13.74996 16.87504,24.99999 37.49988,24.99999 20.62505,0 37.5001,-11.25002 37.5001,-24.99999 z m -425.00006,-99.99996 c 0,-13.74996 -16.87504,-24.99999 -37.50008,-24.99999 -20.62485,0 -37.49988,11.25003 -37.49988,24.99999 0,13.74996 16.87503,24.99999 37.49988,24.99999 20.62504,0 37.50008,-11.25002 37.50008,-24.99999 z m 425.00006,0 c 0,-13.74996 -16.87504,-24.99999 -37.5001,-24.99999 -20.62483,0 -37.49988,11.25003 -37.49988,24.99999 0,13.74996 16.87504,24.99999 37.49988,24.99999 20.62505,0 37.5001,-11.25002 37.5001,-24.99999 z m -425.00006,-99.99996 c 0,-13.74997 -16.87504,-25 -37.50008,-25 -20.62485,0 -37.49988,11.25003 -37.49988,25 0,13.74996 16.87503,24.99998 37.49988,24.99998 20.62504,0 37.50008,-11.25002 37.50008,-24.99998 z m 325.0001,-100.00017 0,-124.99996 -150.00015,0 -149.99994,0 0,124.99996 0,125.00015 149.99994,0 150.00015,0 0,-125.00015 z m 99.99996,100.00018 c 0,-13.74998 -16.87504,-25 -37.5001,-25 -20.62483,0 -37.49988,11.25002 -37.49988,25 0,13.74996 16.87504,24.99998 37.49988,24.99998 20.62505,0 37.5001,-11.25002 37.5001,-24.99998 z M -685.15258,349.99986 c 0,-13.74996 -16.87504,-25 -37.50008,-25 -20.62485,0 -37.49988,11.25004 -37.49988,25 0,13.75016 16.87503,25.00018 37.49988,25.00018 20.62504,0 37.50008,-11.25002 37.50008,-25.00018 z m 425.00006,0 c 0,-13.74996 -16.87504,-25 -37.5001,-25 -20.62483,0 -37.49988,11.25004 -37.49988,25 0,13.75016 16.87504,25.00018 37.49988,25.00018 20.62505,0 37.5001,-11.25002 37.5001,-25.00018 z M -685.15258,249.9999 c 0,-13.74997 -16.87504,-25 -37.50008,-25 -20.62485,0 -37.49988,11.25003 -37.49988,25 0,13.74996 16.87503,24.99998 37.49988,24.99998 20.62504,0 37.50008,-11.25002 37.50008,-24.99998 z m 425.00006,0 c 0,-13.74997 -16.87504,-25 -37.5001,-25 -20.62483,0 -37.49988,11.25003 -37.49988,25 0,13.74996 16.87504,24.99998 37.49988,24.99998 20.62505,0 37.5001,-11.25002 37.5001,-24.99998 z"
       style="fill:#0088ff;fill-opacity:1" />
    <rect
       y="224.99989"
       x="-762.19971"
       height="62.629459"
       width="80.047157"
       id="rect3001"
       style="fill:#ffc0ff;fill-opacity:1" />
    <rect
       style="fill:#ffc0ff;fill-opacity:1"
       id="rect3003"
       width="80.047157"
       height="62.629459"
       x="-762.19971"
       y="322.47406" />
    <rect
       y="419.94818"
       x="-762.19971"
       height="62.629459"
       width="80.047157"
       id="rect3005"
       style="fill:#ffc0ff;fill-opacity:1" />
    <rect
       style="fill:#ffc0ff;fill-opacity:1"
       id="rect3007"
       width="80.047157"
       height="62.629459"
       x="-762.19971"
       y="517.42236" />
    <rect
       y="614.89648"
       x="-762.19971"
       height="62.629459"
       width="80.047157"
       id="rect3009"
       style="fill:#ffc0ff;fill-opacity:1" />
    <rect
       style="fill:#ffc0ff;fill-opacity:1"
       id="rect3011"
       width="80.047157"
       height="62.629459"
       x="-762.19971"
       y="712.37067" />
    <path
       d="m 674,2201.6615 0,46 74.5625,0 0,-46 -74.5625,0 z m -422.5625,0 0,46 74.5625,0 0,-46 -74.5625,0 z M 674,2117.547 l 0,46 74.5625,0 0,-46 -74.5625,0 z m -422.5625,0 0,46 74.5625,0 0,-46 -74.5625,0 z M 674,2033.4324 l 0,46 74.5625,0 0,-46 -74.5625,0 z m -422.5625,0 0,46 74.5625,0 0,-46 -74.5625,0 z M 674,1949.3178 l 0,46 74.5625,0 0,-46 -74.5625,0 z m -422.5625,0 0,46 74.5625,0 0,-46 -74.5625,0 z M 674,1865.2032 l 0,46 74.5625,0 0,-46 -74.5625,0 z m -422.5625,0 0,46 74.5625,0 0,-46 -74.5625,0 z M 674,1781.0886 l 0,46 74.5625,0 0,-46 -74.5625,0 z m -422.5625,0 0,46 74.5625,0 0,-46 -74.5625,0 z M 674,1696.974 l 0,46 74.5625,0 0,-46 -74.5625,0 z m -422.5625,0 0,46 74.5625,0 0,-46 -74.5625,0 z"
       style="fill:#00ffff;fill-opacity:1"
       id="path3127"
       inkscape:connector-curvature="0" />
    <path
       d="m 677.72812,1568.3938 0,41.4 67.10626,0 0,-41.4 -67.10626,0 z m 0,-101.3975 0,41.4 67.10626,0 0,-41.4 -67.10626,0 z m 0,-101.3975 0,41.4 67.10626,0 0,-41.4 -67.10626,0 z m 0,-101.3975 0,41.4 67.10626,0 0,-41.4 -67.10626,0 z m 0,-101.3975 0,41.4 67.10626,0 0,-41.4 -67.10626,0 z m 0,-101.3975 0,41.4 67.10626,0 0,-41.4 -67.10626,0 z m -422.5625,506.9875 0,41.4 67.10626,0 0,-41.4 -67.10626,0 z m 0,-101.3975 0,41.4 67.10626,0 0,-41.4 -67.10626,0 z m 0,-101.3975 0,41.4 67.10626,0 0,-41.4 -67.10626,0 z m 0,-101.3975 0,41.4 67.10626,0 0,-41.4 -67.10626,0 z m 0,-101.3975 0,41.4 67.10626,0 0,-41.4 -67.10626,0 z m 0,-101.3975 0,41.4 67.10626,0 0,-41.4 -67.10626,0 z"
       style="fill:#00ffff;fill-opacity:1"
       id="path3213"
       inkscape:connector-curvature="0" />
  </g>
</svg>
