<?xml version="1.0" encoding="UTF-8" standalone="no"?>
<!-- Created with Inkscape (http://www.inkscape.org/) -->

<svg
   xmlns:dc="http://purl.org/dc/elements/1.1/"
   xmlns:cc="http://creativecommons.org/ns#"
   xmlns:rdf="http://www.w3.org/1999/02/22-rdf-syntax-ns#"
   xmlns:svg="http://www.w3.org/2000/svg"
   xmlns="http://www.w3.org/2000/svg"
   xmlns:sodipodi="http://sodipodi.sourceforge.net/DTD/sodipodi-0.dtd"
   xmlns:inkscape="http://www.inkscape.org/namespaces/inkscape"
   width="1000"
   height="1000"
   id="svg4817"
   version="1.1"
   inkscape:version="0.48.4 r9939"
   sodipodi:docname="Services_LOGOS''.svg"
   inkscape:export-filename="/Users/Zexclu_zif/Documents/Zexclu_zif/8___Web/2014-08-31 Eauchat/datas/Services_LOGOS--.png"
   inkscape:export-xdpi="9"
   inkscape:export-ydpi="9">
  <defs
     id="defs4819">
    <clipPath
       id="clipPath2415"
       clipPathUnits="userSpaceOnUse">
      <rect
         y="240"
         x="725"
         height="175"
         width="75"
         id="rect2417"
         style="fill:#ffffff;fill-opacity:1;fill-rule:nonzero;stroke:none" />
    </clipPath>
    <clipPath
       id="clipPath3509"
       clipPathUnits="userSpaceOnUse">
      <rect
         y="240"
         x="725"
         height="175"
         width="75"
         id="rect3511"
         style="fill:#ffffff;fill-opacity:1;fill-rule:nonzero;stroke:none" />
    </clipPath>
  </defs>
  <sodipodi:namedview
     id="base"
     pagecolor="#ffffff"
     bordercolor="#666666"
     borderopacity="1.0"
     inkscape:pageopacity="0.0"
     inkscape:pageshadow="2"
     inkscape:zoom="0.24748737"
     inkscape:cx="413.16765"
     inkscape:cy="542.45717"
     inkscape:document-units="px"
     inkscape:current-layer="layer2"
     showgrid="false"
     width="372.05px"
     inkscape:window-width="1280"
     inkscape:window-height="776"
     inkscape:window-x="0"
     inkscape:window-y="24"
     inkscape:window-maximized="1"
     inkscape:object-nodes="true"
     inkscape:snap-smooth-nodes="true"
     inkscape:snap-page="true"
     inkscape:snap-global="false" />
  <metadata
     id="metadata4822">
    <rdf:RDF>
      <cc:Work
         rdf:about="">
        <dc:format>image/svg+xml</dc:format>
        <dc:type
           rdf:resource="http://purl.org/dc/dcmitype/StillImage" />
        <dc:title></dc:title>
      </cc:Work>
    </rdf:RDF>
  </metadata>
  <g
     inkscape:groupmode="layer"
     id="layer10"
     inkscape:label="LOGO"
     style="display:none">
    <path
       inkscape:connector-curvature="0"
       id="path3485"
       style="font-size:223.78775024px;font-style:normal;font-variant:normal;font-weight:bold;font-stretch:normal;text-align:start;line-height:125%;letter-spacing:0px;word-spacing:0px;writing-mode:lr-tb;text-anchor:start;fill:#0088ff;fill-opacity:1;stroke:none;font-family:Blurfont;-inkscape-font-specification:Blurfont Bold"
       d="m 931.80107,497.39081 c -17.3948,17.9738 -35.948,31.01909 -55.6601,39.13625 -19.7137,8.11717 -40.0064,12.17594 -60.8782,12.17555 -22.61275,3.9e-4 -62.03892,-8.11677 -118.27807,-24.35149 -55.66088,-16.81376 -95.08666,-25.22045 -118.27772,-25.22084 -4.05916,3.9e-4 -8.40746,0.29147 -13.04529,0.86974 -4.63899,0.57983 -8.11755,0.86974 -10.43646,0.86974 41.16486,0 73.63313,-16.52385 97.40557,-49.57233 24.35032,-33.04809 36.52626,-71.0243 36.52665,-113.92942 -3.9e-4,-21.45197 -2.89951,-40.58504 -8.6966,-57.39958 -5.79864,-17.3932 -18.55402,-35.07709 -38.26652,-53.05128 -19.71366,-17.97302 -37.97699,-32.75778 -54.79036,-44.3539 -16.81454,-11.59534 -1.9522,-73.10749 -23.98361,-73.10827 -3.47934,7.8e-4 -52.54981,58.3239 -78.64,63.54155 -25.51114,4.63898 -69.9462,65.46954 -104.73338,96.77776 -15.59506,14.56713 -32.22969,22.12816 -43.34098,50.72309 -3.9e-4,14.49524 14.40481,48.135 20.20306,62.62946 6.3773,13.91542 19.44944,25.26625 51.33866,54.25557 31.88805,28.40987 47.83246,49.57232 47.83285,63.48735 -3.9e-4,13.91503 -15.9448,35.36739 -47.83285,64.35709 -31.88922,28.40988 -51.31219,50.73198 -58.26932,66.96592 -6.9579,16.23432 -10.43646,34.49804 -10.43607,54.79075 -3.9e-4,33.62792 9.85586,64.35671 29.56952,92.18715 29.73324,18.56522 -35.94386,29.6682 -69.85357,32.953 -16.6304,1.61097 -12.97371,23.0397 -8.00116,26.90887 11.9592,9.30552 120.34562,6.92799 148.2996,7.63019 74.13129,2.20099 149.62997,-12.11624 207.85565,-27.48646 63.77649,-16.81415 108.42069,-25.22123 133.93222,-25.22123 4.058,0 8.4063,0 13.04568,0 6.3769,1.15965 11.0151,1.73948 13.915,1.73948 -19.1342,49.28241 -50.1529,84.6498 -93.05686,106.1022 -42.9055,22.0322 -93.34757,33.0481 -151.32619,33.0484 -47.54372,-3e-4 -98.27531,-6.378 -152.19555,-19.1334 C 358.38509,902.95632 312.29171,889.04131 273.44576,873.96664 234.59942,858.89196 200.9715,836.85977 172.56163,807.87046 144.15175,778.88075 114.29231,738.29494 82.9837,686.11379 52.25452,633.35242 36.88993,571.31463 36.88993,500.00002 c 0,-71.89404 21.74228,-143.20864 65.22683,-213.94381 43.48455,-70.73439 102.62322,-125.23485 177.41677,-163.50175 75.373,-38.265742 160.02241,-57.398802 253.94942,-57.399582 84.06959,7.8e-4 160.31232,20.87332 228.72858,62.617622 68.41474,41.74585 115.95804,87.2594 142.62924,136.54143 27.2494,48.70298 43.7733,82.62081 49.5723,101.75387 5.7971,18.55363 8.6958,35.9476 8.697,52.18115 0,14.49524 -2.3201,28.41027 -6.9575,41.74547 -4.6394,12.75538 -12.7566,25.22123 -24.3515,37.39639"
       sodipodi:nodetypes="cccccccccccccccccccccccssccscccccsscsscccccccc" />
  </g>
  <g
     inkscape:groupmode="layer"
     id="layer3"
     inkscape:label="Layer">
    <path
       inkscape:connector-curvature="0"
       id="path3485-5"
       style="font-size:223.78775024px;font-style:normal;font-variant:normal;font-weight:bold;font-stretch:normal;text-align:start;line-height:125%;letter-spacing:0px;word-spacing:0px;writing-mode:lr-tb;text-anchor:start;fill:#0088ff;fill-opacity:1;stroke:none;display:inline;font-family:Blurfont;-inkscape-font-specification:Blurfont Bold"
       d="m -105.34184,554.53366 c -17.3948,17.9738 -35.948,31.01909 -55.6601,39.13625 -19.7137,8.11717 -40.0064,12.17594 -60.8782,12.17555 -22.6128,3.9e-4 -62.0389,-8.11677 -118.2781,-24.35149 -55.6609,-16.81376 -95.0866,-25.22045 -118.2777,-25.22084 -4.0591,3.9e-4 -8.4074,0.29147 -13.0453,0.86974 -4.639,0.57983 -8.1175,0.86974 -10.4364,0.86974 41.1648,0 73.6331,-16.52385 97.4055,-49.57233 24.3503,-33.04809 36.5263,-71.0243 36.5267,-113.92942 -4e-4,-21.45197 -2.8995,-40.58504 -8.6966,-57.39958 -5.7987,-17.3932 -18.554,-35.07709 -38.2665,-53.05128 -19.7137,-17.97302 -37.977,-32.75778 -54.7904,-44.3539 -16.8145,-11.59534 -1.9522,-73.10749 -23.9836,-73.10827 -3.4793,7.8e-4 -52.5498,58.3239 -78.64,63.54155 -25.5111,4.63898 -69.9462,65.46954 -104.7334,96.77776 -15.595,14.56713 -32.2297,22.12816 -43.341,50.72309 -3e-4,14.49524 14.4049,48.135 20.2031,62.62946 6.3773,13.91542 19.4494,25.26625 51.3387,54.25557 31.888,28.40987 47.8324,49.57232 47.8328,63.48735 -4e-4,13.91503 -15.9448,35.36739 -47.8328,64.3571 -31.8893,28.4099 -51.3122,50.732 -58.2694,66.9659 -6.9579,16.2343 -10.4364,34.4981 -10.436,54.7908 -4e-4,33.6279 9.8558,64.3567 29.5695,92.1871 29.7332,18.5652 -35.9439,29.6682 -69.8536,32.953 -16.6304,1.611 -12.9737,23.0397 -8.0011,26.9089 11.9592,9.3055 120.3456,6.928 148.2996,7.6302 74.1313,2.201 149.6299,-12.1163 207.8556,-27.4865 63.7765,-16.8141 108.4207,-25.2212 133.9322,-25.2212 4.058,0 8.4063,0 13.0457,0 6.3769,1.1596 11.0151,1.7395 13.915,1.7395 -19.1342,49.2824 -50.1529,84.6498 -93.0569,106.1022 -42.9055,22.0322 -93.3475,33.0481 -151.3261,33.0484 -47.5438,-3e-4 -98.2753,-6.378 -152.1956,-19.1334 -53.3416,-12.7554 -99.4349,-26.6704 -138.2809,-41.7451 -38.8463,-15.0747 -72.4743,-37.1069 -100.8841,-66.0962 -28.4099,-28.9897 -58.2693,-69.5755 -89.578,-121.7567 -30.7291,-52.7613 -46.09366,-114.7991 -46.09366,-186.11374 0,-71.89404 21.74226,-143.20864 65.22676,-213.94381 43.4846,-70.73439 102.6232,-125.23484 177.4168,-163.50174 75.373,-38.26575 160.0224,-57.39881 253.9494,-57.39959 84.0696,7.8e-4 160.3123,20.87332 228.7286,62.61763 68.4147,41.74584 115.958,87.25939 142.6292,136.54142 27.2494,48.70298 43.773298,82.62081 49.572298,101.75387 5.7971,18.55363 8.6958,35.9476 8.697,52.18115 0,14.49524 -2.3201,28.41027 -6.9575,41.74547 -4.6394,12.75538 -12.7566,25.22123 -24.351498,37.39639"
       sodipodi:nodetypes="cccccccccccccccccccccccssccscccccsscsscccccccc" />
  </g>
  <g
     inkscape:groupmode="layer"
     id="layer8"
     inkscape:label="Medias"
     style="display:none">
    <path
       style="fill:#0088ff;fill-opacity:1"
       d="m 225,500 0,-325.00009 274.9999,0 275.0001,0 0,325.00009 0,325.00009 -275.0001,0 -274.9999,0 L 225,500 z m 99.99996,249.99991 c 0,-13.74996 -16.87504,-25 -37.50008,-25 -20.62485,0 -37.49988,11.25004 -37.49988,25 0,13.75018 16.87503,25.00019 37.49988,25.00019 20.62504,0 37.50008,-11.25001 37.50008,-25.00019 z m 325.0001,-99.99996 0,-124.99995 -150.00015,0 -149.99994,0 0,124.99995 0,125.00015 149.99994,0 150.00015,0 0,-125.00016 z m 99.99996,99.99996 c 0,-13.74996 -16.87504,-25 -37.5001,-25 -20.62483,0 -37.49988,11.25004 -37.49988,25 0,13.75018 16.87504,25.00019 37.49988,25.00019 20.62505,0 37.5001,-11.25001 37.5001,-25.00019 z M 324.99996,649.99995 c 0,-13.74996 -16.87504,-25 -37.50008,-25 -20.62485,0 -37.49988,11.25004 -37.49988,25 0,13.74996 16.87503,24.99999 37.49988,24.99999 20.62504,0 37.50008,-11.25002 37.50008,-24.99999 z m 425.00006,0 c 0,-13.74996 -16.87504,-25 -37.5001,-25 -20.62483,0 -37.49988,11.25004 -37.49988,25 0,13.74996 16.87504,24.99999 37.49988,24.99999 20.62505,0 37.5001,-11.25002 37.5001,-24.99999 z M 324.99996,549.99999 C 324.99996,536.25003 308.12492,525 287.49988,525 266.87503,525 250,536.25003 250,549.99999 c 0,13.74996 16.87503,24.99999 37.49988,24.99999 20.62504,0 37.50008,-11.25002 37.50008,-24.99999 z m 425.00006,0 C 750.00002,536.25003 733.12498,525 712.49992,525 c -20.62483,0 -37.49988,11.25003 -37.49988,24.99999 0,13.74996 16.87504,24.99999 37.49988,24.99999 20.62505,0 37.5001,-11.25002 37.5001,-24.99999 z M 324.99996,450.00003 c 0,-13.74997 -16.87504,-25 -37.50008,-25 -20.62485,0 -37.49988,11.25003 -37.49988,25 0,13.74996 16.87503,24.99998 37.49988,24.99998 20.62504,0 37.50008,-11.25002 37.50008,-24.99998 z m 325.0001,-100.00017 0,-124.99996 -150.00015,0 -149.99994,0 0,124.99996 0,125.00015 149.99994,0 150.00015,0 0,-125.00015 z m 99.99996,100.00018 c 0,-13.74998 -16.87504,-25 -37.5001,-25 -20.62483,0 -37.49988,11.25002 -37.49988,25 0,13.74996 16.87504,24.99998 37.49988,24.99998 20.62505,0 37.5001,-11.25002 37.5001,-24.99998 z M 324.99996,349.99986 c 0,-13.74996 -16.87504,-25 -37.50008,-25 -20.62485,0 -37.49988,11.25004 -37.49988,25 0,13.75016 16.87503,25.00018 37.49988,25.00018 20.62504,0 37.50008,-11.25002 37.50008,-25.00018 z m 425.00006,0 c 0,-13.74996 -16.87504,-25 -37.5001,-25 -20.62483,0 -37.49988,11.25004 -37.49988,25 0,13.75016 16.87504,25.00018 37.49988,25.00018 20.62505,0 37.5001,-11.25002 37.5001,-25.00018 z M 324.99996,249.9999 c 0,-13.74997 -16.87504,-25 -37.50008,-25 -20.62485,0 -37.49988,11.25003 -37.49988,25 0,13.74996 16.87503,24.99998 37.49988,24.99998 20.62504,0 37.50008,-11.25002 37.50008,-24.99998 z m 425.00006,0 c 0,-13.74997 -16.87504,-25 -37.5001,-25 -20.62483,0 -37.49988,11.25003 -37.49988,25 0,13.74996 16.87504,24.99998 37.49988,24.99998 20.62505,0 37.5001,-11.25002 37.5001,-24.99998 z"
       id="path5049"
       inkscape:connector-curvature="0" />
  </g>
  <g
     inkscape:groupmode="layer"
     id="layer9"
     inkscape:label="Pad"
     style="display:none">
    <path
       sodipodi:nodetypes="ccccccccccccccc"
       inkscape:connector-curvature="0"
       id="path4597"
       d="m 250,502.46174 0,-320.71285 157.89478,0 152.1234,0 c 0,63.04466 0,126.08929 0,189.13394 l 189.98182,0 0,223.68413 0,223.68415 -250.00013,0 -249.99987,0 z M 585.93014,181.74889 750,344.97087 l -164.06986,0 c 0,-52.9003 0,-110.32166 0,-163.22198 z"
       style="fill:#0088ff;fill-opacity:1;display:inline" />
  </g>
  <g
     inkscape:groupmode="layer"
     id="layer7"
     inkscape:label="Settings"
     style="display:none">
    <g
       transform="matrix(2.0220397,0,0,2.0220397,-4239.0602,351.19783)"
       id="g20497"
       style="fill:none;stroke:#00ffff;stroke-opacity:1;display:inline;enable-background:new">
      <path
         inkscape:connector-curvature="0"
         id="path19641"
         class="fil0 str0"
         d="m 2276.547,103.12348 c 55.5988,0 100.6883,-45.089201 100.6883,-100.6883492 0,-55.5988128 -45.0895,-100.6883448 -100.6883,-100.6883448 -55.5992,0 -100.6887,45.089532 -100.6887,100.6883448 0,55.5991482 45.0895,100.6883492 100.6887,100.6883492 z m -20.5972,-79.256839 -23.8597,41.436956 c 0,0 -6.0951,8.921116 -16.4865,1.479317 -11.169,-7.998762 -25.7154,-31.370097 -25.4816,-45.432485 0.1333,-8.177941 4.8613,-10.418519 11.6001,-10.461723 12.7395,-0.08205 45.9576,-0.08071 45.9576,-0.08071 6.6223,-0.01072 11.3905,6.509397 8.2701,13.058649 z m 49.3061,-28.4673929 47.8154,0.055261 c 0,0 10.7742,-0.8165215 9.5239,-13.5372421 -1.342,-13.672883 -14.3095,-37.955855 -26.6036,-44.78543 -7.1497,-3.972086 -11.4547,-0.998715 -14.8608,4.816405 -6.4411,10.990887 -23.0495,39.759034 -23.0495,39.759034 -3.3213,5.731391 -0.058,13.121278 7.1746,13.6919722 l 0,0 z m -57.3083,-0.3452968 -47.816,0.055261 c 0,0 -10.7736,-0.8178611 -9.5243,-13.5379123 1.343,-13.672212 14.3092,-37.955185 26.6049,-44.784425 7.1488,-3.973425 11.4538,-0.999385 14.8602,4.8154 6.4414,10.991557 23.0491,39.760374 23.0491,39.760374 3.3204,5.729046 0.057,13.1192685 -7.1739,13.6913024 z m 49.3058,28.4667237 23.86,41.436955 c 0,0 6.0948,8.922121 16.4862,1.479652 11.1694,-7.999096 25.715,-31.370432 25.4829,-45.432819 -0.1346,-8.176937 -4.8623,-10.419189 -11.6014,-10.461723 -12.7388,-0.08205 -45.957,-0.08138 -45.957,-0.08138 -6.6236,-0.01038 -11.3917,6.510737 -8.2707,13.059319 l 0,0 z m -28.601,7.781737 -23.9564,41.382364 c 0,0 -4.6785,9.738643 6.9625,15.016895 12.5124,5.673785 40.0253,6.585087 52.0869,-0.64739 7.0148,-4.205856 6.5928,-9.420474 3.2601,-15.278128 -6.2984,-11.073611 -22.9082,-39.840753 -22.9082,-39.840753 -3.3026,-5.740768 -11.3342,-6.610206 -15.4449,-0.632988 l 0,0 z m 0,-56.933112 -23.9564,-41.382699 c 0,0 -4.6775,-9.738643 6.9625,-15.016894 12.5121,-5.673116 40.025,-6.585758 52.0866,0.648394 7.0154,4.204516 6.5924,9.419134 3.26,15.277123 -6.2987,11.073946 -22.9081,39.841088 -22.9081,39.841088 -3.3016,5.740098 -11.3335,6.608866 -15.4446,0.632988 l 0,0 z m 3.4443,15.8401138 c -6.7506,2.4565975 -10.2327,9.92485478 -7.7754,16.6760603 2.4562,6.7505359 9.9248,10.2326409 16.6757,7.7753739 6.7505,-2.456263 10.2326,-9.9248549 7.7754,-16.6757254 -2.4563,-6.7505357 -9.9245,-10.2326416 -16.6757,-7.7757088 z"
         style="fill:#00ffff;fill-rule:evenodd;stroke:#ffffff;stroke-width:2.5;stroke-miterlimit:4;stroke-opacity:1;stroke-dasharray:none">
        <metadata
           id="metadata19643">
          <odm
             name="Comments"
             value=""
             type="0"
             id="odm19645" />
        </metadata>
      </path>
      <path
         inkscape:connector-curvature="0"
         id="path19647"
         class="fil0 str0"
         d="m 2276.547,114.7785 c 2.6415,0 5.2615,-0.0918 7.8574,-0.27128 l 7.0342,16.7484 7.0121,-1.29043 0,0.003 8.1977,-1.50644 0.6092,-17.93835 c 8.3628,-2.37287 16.3301,-5.6902 23.7762,-9.83008 l 13.4465,12.19993 5.8098,-4.13284 0,0.003 6.7924,-4.83115 -7.0419,-16.546109 c 6.5345,-5.659384 12.4106,-12.060269 17.4956,-19.071703 l 17.2843,5.355951 3.5189,-6.200606 0,0.002 4.1151,-7.248889 -13.3243,-11.973191 c 4.7598,-10.639897 7.9197,-22.152247 9.1579,-34.233281 l 17.5516,-3.714201 0.061,-8.334346 0,0 0.052,-7.1293239 -17.6617,-4.0082561 c -0.8945,-8.712799 -2.7881,-17.128865 -5.5596,-25.135664 l 14.3277,-10.775873 -3.466,-7.579449 0,0.0023 -2.966,-6.483609 -17.7089,3.833766 c -4.4577,-7.421705 -9.7477,-14.287116 -15.742,-20.464948 l 8.4639,-15.883653 -6.3442,-5.403844 0,0.0033 -5.4283,-4.622481 -14.4773,10.994898 c -7.0718,-4.783248 -14.7155,-8.784136 -22.8104,-11.873378 l 0.9542,-17.89147 -8.0343,-2.21613 0,0.005 -6.8735,-1.89562 -8.4458,16.02934 c -5.7435,-0.90761 -11.6303,-1.3842 -17.6286,-1.3842 -2.7299,0 -5.4357,0.0988 -8.117,0.29037 l -6.6869,-16.59534 -8.2181,1.38654 0,0.006 -7.0309,1.18627 -0.8774,18.04285 c -8.3719,2.39363 -16.3442,5.733727 -23.793,9.898388 l -13.0671,-12.207628 -6.8624,4.73 0,0.004 -5.8704,4.046768 6.844,16.759119 c -6.4451,5.605129 -12.2462,11.931328 -17.2749,18.855014 l -17.0907,-5.569962 -4.2203,7.186929 0,0.0027 -3.6101,6.148025 13.2968,12.305762 c -4.7715,10.647935 -7.9378,22.171001 -9.1793,34.2654319 l -17.6614,4.0079212 0.053,7.1299937 -0.01,0 0.061,8.3343462 17.5509,3.713531 c 0.8928,8.714139 2.7841,17.133889 5.5552,25.142028 l -14.2952,11.081984 3.0608,6.4394 0,0.002 3.5773,7.527872 17.4734,-4.05146 c 4.4256,7.370127 9.6704,14.190995 15.6117,20.336005 l -8.2774,16.093979 5.496,4.542783 0,0.003 6.4234,5.31074 14.0915,-11.030413 c 7.0761,4.806693 14.7252,8.829353 22.8294,11.938033 l -0.7006,18.09207 6.9006,1.79414 0,0.007 8.0664,2.09857 8.1237,-15.98211 c 5.806,0.92603 11.7575,1.41333 17.8241,1.41333 l 0,0 z m 0,-13.53624 c 54.5606,0 98.8065,-44.246216 98.8065,-98.8067942 0,-54.5605778 -44.2459,-98.8064608 -98.8065,-98.8064608 -54.5606,0 -98.8068,44.245883 -98.8068,98.8064608 0,54.5605782 44.2462,98.8067942 98.8068,98.8067942 z"
         style="fill:#00ffff;fill-rule:evenodd;stroke:#ffffff;stroke-width:2.5;stroke-miterlimit:4;stroke-opacity:1;stroke-dasharray:none" />
      <path
         inkscape:connector-curvature="0"
         id="path19649"
         class="fil1 str0"
         d="m 2419.1177,248.13139 c 42.0338,11.26384 85.2565,-13.68963 96.5204,-55.72341 11.2638,-42.03343 -13.6897,-85.25649 -55.7234,-96.520331 -42.0335,-11.263842 -85.2565,13.689631 -96.5204,55.723401 -11.2638,42.03377 13.6897,85.25649 55.7234,96.52034 l 0,0 z m 0.485,-64.09225 -26.4331,26.49307 c 0,0 -6.4153,5.51002 -12.7636,-2.22115 -6.8236,-8.31023 -13.0861,-28.92622 -10.0605,-39.51019 1.7576,-6.15573 5.786,-6.89187 10.8894,-5.55925 9.6479,2.5189 34.7611,9.24967 34.7611,9.24967 5.0086,1.33363 7.2928,7.2288 3.6067,11.54785 l 0,0 z m 43.0432,-11.53278 36.1379,9.72893 c 0,0 8.3109,1.56539 9.943,-8.30487 1.7553,-10.60875 -3.1288,-31.59416 -11.0395,-39.24796 -4.6007,-4.45168 -8.4576,-3.07585 -12.211,0.63031 -7.0961,7.0044 -25.4802,25.38886 -25.4802,25.38886 -3.6724,3.65995 -2.7021,9.90811 2.6498,11.80473 z m -43.2559,-11.87104 -36.1607,-9.6452 c 0,0 -7.979,-2.80089 -4.4577,-12.16443 3.7852,-10.06451 18.5074,-25.79578 29.1864,-28.46773 6.2097,-1.55601 8.8616,1.56472 10.2591,6.65107 2.6429,9.61472 9.3703,34.72862 9.3703,34.72862 1.3497,5.00396 -2.6144,9.93021 -8.1974,8.89767 z m 31.5091,31.51009 9.6435,36.16071 c 0,0 2.8003,7.98001 12.1641,4.45872 10.0649,-3.78453 25.7965,-18.50704 28.4698,-29.18545 1.5546,-6.20898 -1.5651,-8.86184 -6.6514,-10.25943 -9.6141,-2.64281 -34.7277,-9.37191 -34.7277,-9.37191 -5.0052,-1.35004 -9.9315,2.61434 -8.8983,8.19736 z m -23.1995,0.0888 -26.4951,26.43212 c 0,0 -5.5097,6.41495 2.2215,12.76359 8.3102,6.82455 28.9255,13.08745 39.5098,10.06318 6.1551,-1.75864 6.8926,-5.78632 5.5596,-10.89008 -2.5182,-9.64788 -9.2473,-34.76144 -9.2473,-34.76144 -1.3336,-5.00898 -7.2298,-7.29343 -11.5485,-3.60737 l 0,0 z m 11.5341,-43.0422 -9.7276,-36.13928 c 0,0 -1.5634,-8.31023 8.3062,-9.94227 10.6084,-1.75428 31.5935,3.12978 39.2466,11.04213 4.4521,4.60039 3.0759,8.45693 -0.6303,12.21031 -7.0054,7.09584 -25.3905,25.47963 -25.3905,25.47963 -3.6589,3.67066 -9.9071,2.70041 -11.8044,-2.65052 l 0,0 z m -0.6052,12.67317 c -5.6011,0.48964 -9.7467,5.4303 -9.2567,11.03208 0.4897,5.60111 5.4303,9.74668 11.0321,9.2567 5.6011,-0.48965 9.7467,-5.4303 9.2567,-11.03208 -0.4897,-5.60111 -5.4303,-9.74668 -11.0321,-9.2567 l 0,0 z"
         style="fill:#000000;fill-rule:evenodd;stroke:#ffffff;stroke-width:2.5;stroke-miterlimit:4;stroke-opacity:1;stroke-dasharray:none">
        <metadata
           id="metadata19651">
          <odm
             name="Comments"
             value=""
             type="0"
             id="odm19653" />
        </metadata>
      </path>
      <path
         inkscape:connector-curvature="0"
         id="path19655"
         class="fil1 str0"
         d="m 2416.7767,256.95303 c 1.9971,0.5352 3.9965,0.99671 5.9953,1.38688 l 1.9251,14.08717 5.5626,0.44477 0,0.003 6.5027,0.5218 4.0946,-13.43811 c 6.8035,-0.0998 13.4988,-0.99369 19.967,-2.61501 l 7.694,11.9474 5.2296,-1.94753 0,0.003 6.1139,-2.27608 -1.9717,-13.93579 c 6.0868,-2.95495 11.8259,-6.6035 17.0907,-10.874 l 11.9819,7.55065 3.9165,-3.9751 0,0.003 4.5796,-4.6466 -7.6478,-11.75148 c 5.7542,-7.07942 10.4755,-15.14282 13.8588,-24.02576 l 14.0215,0.7482 1.7345,-6.28869 0,-0.001 1.4836,-5.3794 -12.5405,-6.60819 c 1.0891,-6.76829 1.3624,-13.51481 0.8892,-20.12937 l 13.0151,-5.24409 -1.0848,-6.43237 0,6.7e-4 -0.9287,-5.50264 -14.1649,-0.68925 c -1.8665,-6.51375 -4.4748,-12.77599 -7.755,-18.66077 l 9.6168,-10.29359 -3.7018,-5.37069 0,0.002 -3.1673,-4.59402 -13.1728,5.37906 c -4.377,-5.04883 -9.3455,-9.62209 -14.8394,-13.59786 l 4.3458,-13.332608 -5.6249,-3.302926 0,0.0037 -4.8123,-2.825673 -9.6329,10.407131 c -4.1583,-1.849732 -8.5118,-3.402396 -13.0469,-4.6178 -2.0637,-0.552944 -4.1295,-1.026513 -6.1952,-1.424726 l -1.6934,-13.900959 -6.494,-0.616913 -3e-4,0.005 -5.5559,-0.52749 -4.3187,13.462556 c -6.8138,0.113871 -13.5178,1.023498 -19.9931,2.66324 l -7.4059,-11.876402 -6.146,2.185652 0,0.004 -5.2578,1.869827 1.7787,14.056695 c -6.008,2.931841 -11.6754,6.539539 -16.88,10.755106 l -11.7923,-7.673558 -4.6467,4.578608 0,0.003 -3.9748,3.91649 7.5594,11.9973 c -5.7646,7.08311 -10.4929,15.15354 -13.8816,24.04552 l -14.1642,-0.54825 -1.4046,5.40116 0,-10e-4 -1.6424,6.31313 12.5161,6.36304 c -1.0902,6.76896 -1.3665,13.51749 -0.8936,20.13339 l -13.0526,5.48188 1.0094,5.48824 0,0.001 1.1793,6.41562 14.0312,0.47726 c 1.8524,6.4682 4.4356,12.68756 7.6826,18.53684 l -9.5182,10.49053 3.2346,4.5478 0,0.002 3.7802,5.31643 12.8878,-5.48456 c 4.376,5.06759 9.3438,9.65826 14.8411,13.65044 l -4.1948,13.5359 4.8532,2.75434 0,0.003 5.6731,3.22087 9.3793,-10.43694 c 4.2021,1.87653 8.6026,3.45029 13.1889,4.67943 l 0,0 z m 2.7423,-10.23364 c 41.2487,11.05351 83.6633,-13.43342 94.7164,-54.68182 11.0536,-41.24873 -13.433,-83.66297 -54.6818,-94.716487 -41.2487,-11.053516 -83.6629,13.433417 -94.7165,54.681817 -11.0535,41.24873 13.4335,83.66297 54.6819,94.71649 l 0,0 z"
         style="fill:#000000;fill-rule:evenodd;stroke:#ffffff;stroke-width:2.5;stroke-miterlimit:4;stroke-opacity:1;stroke-dasharray:none" />
    </g>
  </g>
  <g
     inkscape:groupmode="layer"
     id="layer6"
     inkscape:label="Travaux"
     style="display:none">
    <path
       style="fill:#0088ff;fill-opacity:1;fill-rule:evenodd;stroke:none"
       d="m 512.56969,155.98153 c -34.8139,0 -63.0355,28.22156 -63.0355,63.03546 10e-5,34.81386 28.2216,63.03545 63.0355,63.03545 34.814,0 63.0356,-28.22159 63.0356,-63.03545 -2e-4,-34.8139 -28.2216,-63.03546 -63.0356,-63.03546 z m -143.6728,53.75817 -128.6784,1.30383 -16.298,0.15036 -6.8703,14.74338 -39.7168,85.05014 -10.4808,-9.72846 a 11.0738,11.0738 0 0 0 -8.0737,-3.05908 11.0738,11.0738 0 0 0 -7.0206,19.30688 l 15.7461,14.59285 -4.3125,9.17692 a 25.838867,25.838867 0 0 0 43.5781,27.23019 l 13.9913,12.93807 -51.1004,55.01193 a 40.603932,40.603932 0 0 0 -21.7641,35.30386 l -4.6638,147.73448 -40.0175,173.46041 a 40.603932,40.603932 0 1 0 79.0825,18.25371 l 41.0207,-177.52228 0.8526,-3.91151 0.1509,-3.96158 3.9615,-127.32467 24.0208,16.84957 69.0531,111.72871 -75.472,157.51333 a 40.603932,40.603932 0 1 0 73.2154,35.05321 l 85.1003,-177.52228 9.5783,-20.00894 -11.6343,-18.90555 -77.6284,-125.51936 30.0886,27.88203 a 25.853846,25.853846 0 0 0 26.9793,25.0237 l 199.1358,184.64323 c -13.5454,19.2366 -28.162,35.26054 -53.4571,34.35114 -61.9854,-2.10138 -48.3289,60.95373 -127.1241,92.47206 l 498.0153,0 c -26.2651,-70.39061 -58.0017,-21.42993 -93.5252,-62.03258 -6.4443,-80.34614 -64.0886,-85.05022 -64.0886,-85.05022 -58.8337,-52.53007 -49.2876,-41.61636 -77.7287,-42.02364 -35.3046,-0.4904 -53.6243,20.97643 -69.4544,43.82895 l -191.4636,-177.5222 a 25.853846,25.853846 0 0 0 0.3509,-0.55154 l 93.2242,-145.97956 a 25.838867,25.838867 0 0 0 -10.3302,-37.46029 l -90.2155,-106.2124 a 25.838867,25.838867 0 0 0 -26.0267,-19.3068 z m -36.9586,52.05314 -96.0827,103.45445 -18.7049,-17.35121 39.8672,-85.35095 74.9204,-0.75229 z m 93.8762,123.96471 -62.4336,97.73746 -37.8114,-35.05304 100.245,-62.68442 z"
       id="path22434"
       inkscape:connector-curvature="0" />
  </g>
  <g
     inkscape:groupmode="layer"
     id="layer5"
     inkscape:label="Cloud"
     style="display:none">
    <path
       d="m 591.40961,287.91064 c 119.93761,-8.57143 169.25289,82.29917 180.75629,160.74098 2.87715,-0.25599 5.77258,-0.42159 8.71204,-0.42159 56.15742,0 101.89101,47.6833 103.14234,106.88943 9.38194,-5.24057 20.16101,-8.2437 31.66441,-8.2437 35.94697,0 65.1547,29.20752 65.1547,65.15468 0,35.94753 -36.78093,75.36156 -72.72829,75.36156 -304.66111,0.9811 -507.08273,4.02172 -810.688506,2.04088 -40.874981,0 -78.261983,-19.38361 -78.261983,-60.2586 0,-40.87539 33.179268,-74.05482 74.054643,-74.05482 10.656756,0 20.772256,2.26513 29.930716,6.32361 16.59338,-27.4767 46.71006,-45.85669 81.12778,-45.85669 13.55198,0 26.46636,2.87658 38.12786,8.00963 6.49575,-41.70472 30.13868,-101.01295 90.09255,-113.67978 59.95387,-12.66683 116.42658,22.48329 116.42658,22.48329 0,0 22.55126,-135.91745 142.48887,-144.48888 z"
       id="path4319"
       stroke-miterlimit="4"
       inkscape:connector-curvature="0"
       style="fill:#0088ff;fill-opacity:1;fill-rule:nonzero;stroke:#ffffff;stroke-width:19.23357201;stroke-miterlimit:4;stroke-opacity:1;stroke-dasharray:none;stroke-dashoffset:0;display:inline"
       sodipodi:nodetypes="zcscssccsscsczcz" />
  </g>
  <g
     inkscape:label="Mails"
     inkscape:groupmode="layer"
     id="layer1"
     transform="translate(0,-52.361892)"
     style="display:none">
    <path
       sodipodi:nodetypes="ccccccccccccccccccccccccccccc"
       inkscape:connector-curvature="0"
       id="path5085"
       d="m 125,269.43015 0,565.86349 750,0 0,-565.86348 z m 88.7868,52.31576 576.45789,0 -265.37595,267.11046 -0.0937,0 c -10.47904,10.56175 -36.44544,10.99832 -47.53423,-0.0938 l -0.0469,-0.0468 z m -36.42415,37.54924 189.57434,192.15264 -189.57434,193.74647 z m 645.32157,4.0315 0,381.77385 -188.02737,-192.52765 z m -419.0418,225.34221 36.37726,36.84604 0.0469,0.0468 c 33.54264,33.80187 88.64746,33.62541 121.83575,0.23439 0.0177,-0.018 0.076,-0.076 0.0937,-0.0937 l 35.76786,-36.00225 188.68366,193.23082 -572.8483,0 z"
       style="font-size:medium;font-style:normal;font-variant:normal;font-weight:normal;font-stretch:normal;text-indent:0;text-align:start;text-decoration:none;line-height:normal;letter-spacing:normal;word-spacing:normal;text-transform:none;direction:ltr;block-progression:tb;writing-mode:lr-tb;text-anchor:start;baseline-shift:baseline;color:#000000;fill:#0088ff;fill-opacity:1;stroke:none;stroke-width:30.65500069;marker:none;visibility:visible;display:inline;overflow:visible;enable-background:accumulate;font-family:Sans;-inkscape-font-specification:Sans" />
  </g>
  <g
     inkscape:groupmode="layer"
     id="layer2"
     inkscape:label="Telephone"
     style="display:inline">
    <g
       id="g22384"
       transform="matrix(1.1888713,-1.1888713,1.1888713,1.1888713,2839.6682,4291.8566)"
       style="fill:#0088ff;stroke:#00ffff;stroke-opacity:1;display:inline;enable-background:new;fill-opacity:1">
      <path
         id="path22390"
         style="fill:#0088ff;stroke:none;fill-opacity:1"
         d="m 640.35437,-2681.2678 c 8.625,0 14.811,-7.027 14.811,-14.902 l 0.062,-0.062 c 0,0 -0.062,-107.0001 -0.062,-107.0631 0,-8.25 -6.686,-14.754 -14.811,-14.754 l -37.799,0 0,136.7811 c 0,0 37.707,0.058 37.738,0.027 l 0.061,-0.027 z m 0,339 c 8.625,0 14.811,-7.027 14.811,-14.902 l 0.062,-0.062 c 0,0 -0.062,-104 -0.062,-104.063 0,-8.25 -6.686,-14.754 -14.811,-14.754 l -37.799,0 0,133.781 c 0,0 37.707,0.058 37.738,0.027 l 0.061,-0.027 z m -48.246,-475.7811 c -22.379,2.504 -103.754,39.6981 -106.129,231.4791 -2.5,202.025 83.75,244.525 106.37,244.067 l 0,-133.436 c -18.62,0 -22.366,-20.275 -26.62,-62.106 -2.814,-27.679 -3.634,-61.942 0,-96 2.552,-23.897 7,-47.223 26.5,-47.223 l -0.121,-136.7811 z"
         inkscape:connector-curvature="0" />
    </g>
  </g>
  <g
     inkscape:groupmode="layer"
     id="layer4"
     inkscape:label="Chat"
     style="display:none">
    <path
       style="font-size:12px;font-style:normal;font-variant:normal;font-weight:normal;font-stretch:normal;text-indent:0;text-align:start;text-decoration:none;line-height:normal;letter-spacing:normal;word-spacing:normal;text-transform:none;direction:ltr;block-progression:tb;writing-mode:lr-tb;text-anchor:start;baseline-shift:baseline;color:#000000;fill:#0088ff;fill-opacity:1;fill-rule:evenodd;stroke:none;stroke-width:25.97548294;marker:none;visibility:visible;display:inline;overflow:visible;enable-background:accumulate;font-family:Sans;-inkscape-font-specification:Sans"
       d="m 578.125,139.0625 c -18.49054,0.0621 -37.21987,1.39584 -56.03125,4.0625 -86.01486,12.1934 -158.25549,50.2493 -205.5,103.1875 -35.01356,39.23323 -56.11598,87.13194 -58,137.59375 -76.71079,24.47265 -137.59589,78.00821 -154.25,148.3125 -13.022761,54.97443 4.29638,109.32736 41.6875,151.25 32.53658,36.47977 80.08822,64.05892 136.8125,77 L 199,838.4375 a 12.98904,12.98904 0 0 0 14.375,21.25 l 207.1875,-97.34375 0.1875,0 a 12.98904,12.98904 0 0 0 7.15625,-2.4375 c 62.58862,-14.74383 113.34554,-45.56551 145.125,-88.0625 L 756,757.8125 a 17.31872,17.31872 0 0 0 19.15625,-28.34375 L 671.0625,632.65625 C 741.78655,616.16901 801.15195,581.60483 841.875,535.9375 889.07132,483.01097 910.98669,414.30908 894.53125,344.84375 865.72248,223.22949 733.3717,141.4925 586.03125,139.125 c -2.63146,-0.0423 -5.26474,-0.0714 -7.90625,-0.0625 z m 0.125,34.65625 c 2.41588,-0.009 4.81192,-0.007 7.21875,0.0312 134.80557,2.16608 251.3163,77.66347 275.34375,179.09375 13.72443,57.93662 -3.80856,114.11522 -44.78125,160.0625 -40.97269,45.94728 -105.68554,80.77206 -184.375,91.96875 A 17.31872,17.31872 0 0 0 617.03125,619 c -1.12491,6.37881 -0.10595,6.21654 -0.1875,4.75 a 17.31872,17.31872 0 0 0 9.1875,14.3125 l 44.375,41.28125 L 514.625,606.125 a 17.31872,17.31872 0 0 0 -1.75,-1.5 l -1.6875,-1.3125 a 17.31872,17.31872 0 0 0 -9.9375,-3.53125 l -2.65625,-0.0937 C 389.99662,575.39666 317.07984,511.89144 297.5625,429.5 c -13.72966,-57.95869 3.85759,-114.16437 44.875,-160.125 41.01741,-45.96063 105.78709,-80.77478 184.53125,-91.9375 17.22943,-2.44241 34.37007,-3.6571 51.28125,-3.71875 z M 259.4375,411.0625 c 0.87895,8.76806 2.34728,17.58256 4.4375,26.40625 22.74586,96.02049 106.72375,167.49268 222.28125,194.8125 a 17.31872,17.31872 0 0 0 9.4375,3.1875 l 53.34375,25.0625 c -28.3118,35.42412 -73.23667,62.15274 -130.4375,74.9375 l -2.1875,0.0625 a 12.98904,12.98904 0 0 0 -7.5,2.65625 l -1.34375,1.03125 a 12.98904,12.98904 0 0 0 -1.34375,1.21875 l -128.5625,60.40625 39,-36.25 A 12.98904,12.98904 0 0 0 323.59375,753.75 c -0.0581,1.07164 0.7252,1.33435 -0.15625,-3.625 A 12.98904,12.98904 0 0 0 312.5,739.5625 C 249.7671,730.63627 198.12929,702.84507 165.40625,666.15625 132.68321,629.46743 118.6195,584.54558 129.59375,538.21875 143.1476,481.00201 193.0866,434.28074 259.4375,411.0625 z"
       id="path22380"
       inkscape:connector-curvature="0" />
  </g>
</svg>
